<svg width="21" height="23" viewBox="0 0 21 23" fill="none" xmlns="http://www.w3.org/2000/svg">
<path d="M9.17823 19.0669C9.17823 18.8497 9.17823 18.7206 9.17823 18.5903C9.17823 12.8411 9.17823 7.09058 9.17823 1.34133C9.17823 0.623914 9.5164 0.191976 10.1871 0.0368242C10.9554 -0.139426 11.7336 0.337196 11.8058 1.03475C11.8228 1.20107 11.8185 1.36988 11.8185 1.53744C11.8185 7.20353 11.8185 12.8696 11.8185 18.5357C11.8185 18.6784 11.8185 18.8212 11.8185 19.0533C11.9813 18.9267 12.0874 18.851 12.185 18.7666C14.3159 16.9259 16.4469 15.0852 18.575 13.242C18.875 12.9826 19.1947 12.774 19.6404 12.7728C20.1994 12.7716 20.6196 12.9838 20.8616 13.422C21.095 13.8477 21.0285 14.261 20.6974 14.6346C20.6055 14.7376 20.4951 14.8282 20.3875 14.9213C17.4699 17.4434 14.5522 19.9668 11.6332 22.4877C10.8422 23.1704 10.1574 23.1704 9.37066 22.4902C6.4431 19.9594 3.50847 17.4335 0.595071 14.8915C0.337548 14.6669 0.116813 14.3541 0.0319146 14.05C-0.0940162 13.5932 0.16351 13.2023 0.614882 12.9503C1.08182 12.6896 1.57564 12.7008 2.04541 12.9577C2.2053 13.0446 2.34113 13.1687 2.47697 13.2867C4.58809 15.11 6.6978 16.9358 8.80892 18.7604C8.90655 18.8448 9.0056 18.9242 9.17823 19.0669Z" fill="white"/>
</svg>
