<svg width="43" height="43" viewBox="0 0 43 43" fill="none" xmlns="http://www.w3.org/2000/svg">
<circle cx="21.5" cy="21.5" r="21" fill="#151515" stroke="white"/>
<path d="M23.0671 15.4225C23.0671 15.6093 23.0671 15.7203 23.0671 15.8324C23.0671 20.7767 23.0671 25.7221 23.0671 30.6665C23.0671 31.2835 22.7763 31.6549 22.1995 31.7884C21.5387 31.9399 20.8695 31.5301 20.8074 30.9302C20.7928 30.7871 20.7964 30.6419 20.7964 30.4978C20.7964 25.625 20.7964 20.7522 20.7964 15.8793C20.7964 15.7566 20.7964 15.6338 20.7964 15.4342C20.6565 15.5431 20.5652 15.6082 20.4813 15.6808C18.6487 17.2638 16.8161 18.8468 14.9859 20.4319C14.7279 20.655 14.4529 20.8344 14.0696 20.8354C13.5889 20.8365 13.2275 20.654 13.0195 20.2772C12.8187 19.911 12.8759 19.5556 13.1606 19.2343C13.2397 19.1457 13.3346 19.0678 13.4271 18.9877C15.9363 16.8187 18.4455 14.6486 20.9559 12.4806C21.6361 11.8935 22.225 11.8935 22.9016 12.4785C25.4193 14.655 27.9431 16.8272 30.4486 19.0133C30.6701 19.2065 30.8599 19.4755 30.9329 19.737C31.0412 20.1299 30.8198 20.4661 30.4316 20.6828C30.03 20.9069 29.6053 20.8973 29.2013 20.6764C29.0638 20.6017 28.947 20.4949 28.8302 20.3935C27.0146 18.8255 25.2003 17.2553 23.3847 15.6861C23.3008 15.6135 23.2156 15.5452 23.0671 15.4225Z" fill="white"/>
</svg>
