<svg width="256" height="256" viewBox="0 0 256 256" fill="none" xmlns="http://www.w3.org/2000/svg">
<path d="M89.9611 137.18C89.6411 135.155 89.5259 133.164 89.6155 131.151C89.7819 127.414 90.5243 123.768 91.3409 120.133C91.5918 119.017 91.8375 117.898 92.0987 116.782C92.1729 116.465 92.1268 116.196 91.9655 115.907C88.4251 109.599 85.9214 102.897 84.3419 95.8464C83.1745 90.6291 82.6164 85.353 82.8238 80.0051C82.9953 75.5533 83.5483 71.1578 84.7719 66.8621C84.9793 66.1376 85.2481 65.4234 85.5553 64.7347C86.0545 63.6109 86.4564 63.2141 87.5444 62.6099C87.6033 61.8598 87.6519 61.0893 87.7262 60.3187C87.867 58.8493 88.1025 57.3952 88.5991 56C88.8039 55.424 89.0651 54.8634 89.3595 54.3283C89.554 53.975 89.8177 53.6448 90.107 53.3632C91.1207 52.3648 92.3393 52.4467 93.243 53.5526C93.7883 54.2208 94.0545 55.0093 94.2107 55.8464C94.4052 56.8883 94.3003 57.92 94.1595 58.9619C93.9598 60.4416 93.7959 61.9264 93.6423 63.4112C93.6244 63.5827 93.7294 63.8106 93.8523 63.9411C94.1723 64.2816 94.2593 64.6554 94.2286 65.1162C94.0289 68.0576 93.8241 70.9965 93.6782 73.9405C93.4887 77.8061 93.4606 81.6742 93.6884 85.5424C93.8753 88.7142 94.2311 91.8605 94.8455 94.9786C96.1998 101.855 98.7777 108.216 102.848 113.943C103.102 114.301 103.143 114.614 103.035 115.018C102.646 116.46 102.234 117.896 101.914 119.352C101.486 121.295 101.586 123.256 101.86 125.215C101.903 125.519 102.08 125.637 102.339 125.676C103.532 125.855 104.719 126.095 105.918 126.182C108.009 126.336 110.088 126.098 112.154 125.77C112.983 125.64 113.81 125.504 114.637 125.363C114.913 125.317 115.149 125.366 115.395 125.509C119.552 127.939 124.012 129.559 128.737 130.445C132.352 131.123 135.998 131.346 139.676 131.174C144.371 130.957 148.908 129.93 153.393 128.604C153.943 128.443 154.488 128.266 155.044 128.131C156.869 127.685 158.531 126.83 160.213 126.044C165.494 123.569 170.051 120.118 173.85 115.686C178.627 110.116 181.755 103.734 183.127 96.5171C183.759 93.1891 184.095 89.8202 183.877 86.4384C183.217 76.1139 179.886 66.8314 172.803 59.1232C167.199 53.0253 160.254 49.239 152.149 47.5725C148.721 46.8685 145.255 46.6432 141.765 46.8608C135.521 47.2474 129.567 48.8218 124.188 51.9962C117.85 55.7389 112.999 60.9459 110.083 67.8144C108.611 71.2806 107.556 74.8621 107.159 78.6125C106.857 81.4515 106.898 84.2906 107.223 87.1296C107.658 90.9133 108.549 94.5792 110.08 98.071C110.646 99.3613 111.335 100.598 111.995 101.844C112.494 102.792 112.952 103.752 113.057 104.829C113.109 105.354 113.129 105.897 113.055 106.414C112.965 107.044 113.055 107.579 113.48 108.063C114.02 108.677 114.54 109.309 115.075 109.929C115.582 110.518 116.124 111.081 116.603 111.69C117.368 112.666 117.97 113.738 118.211 114.967C118.308 115.461 118.334 115.988 118.282 116.488C118.185 117.44 117.519 117.978 116.565 117.955C115.914 117.939 115.318 117.714 114.76 117.407C113.411 116.664 112.115 115.843 111.13 114.627C110.395 113.72 109.65 112.822 108.956 111.887C108.631 111.447 108.252 111.163 107.725 111.06C107.484 111.014 107.241 110.973 107.006 110.907C105.941 110.615 105.075 110.019 104.407 109.151C104.072 108.716 103.762 108.252 103.491 107.771C100.606 102.666 98.6651 97.2211 97.6513 91.4432C97.1265 88.4531 96.8372 85.4451 96.8014 82.409C96.7143 75.2512 98.2503 68.439 101.187 61.9315C103.544 56.7117 106.68 52.0269 110.853 48.0691C112.192 46.7994 113.644 45.6678 115.154 44.608C116.275 43.8221 117.397 43.0387 118.556 42.3066C121.536 40.4224 124.751 39.0682 128.074 37.9494C131.889 36.6618 135.8 35.8016 139.812 35.4509C149.276 34.6266 158.165 36.5542 166.479 41.1418C169.265 42.6778 171.902 44.439 174.357 46.4614C176.525 48.2483 178.46 50.2861 180.28 52.4211C186.417 59.6198 190.625 67.8016 192.804 77.015C193.994 82.048 194.473 87.1501 194.186 92.3085C193.577 103.309 189.793 113.106 182.989 121.774C176.965 129.449 169.339 134.884 160.266 138.353C155.622 140.127 150.828 141.309 145.897 141.952C142.067 142.451 138.227 142.602 134.377 142.385C126.784 141.957 119.544 140.183 112.801 136.584C112.471 136.407 112.151 136.374 111.8 136.428C109.397 136.806 106.99 137.18 104.586 137.556C101.586 138.028 98.5703 138.273 95.5316 138.097C93.6628 137.987 91.8247 137.7 89.9611 137.18Z" fill="#F8F8F8"/>
<path d="M145.613 104.484C137.139 104.484 128.663 104.471 120.189 104.492C117.896 104.497 116.188 103.465 114.9 101.665C113.928 100.303 113.48 98.729 113.267 97.0854C112.878 94.057 113.236 91.0771 113.951 88.1382C114.342 86.5331 114.834 84.9459 115.371 83.3818C115.627 82.6394 116.037 81.9277 116.48 81.2749C117.32 80.0384 118.548 79.6365 119.977 79.9565C120.689 80.1152 121.385 80.384 122.058 80.6733C124.198 81.5949 126.41 82.2067 128.742 82.3757C132.429 82.6419 135.851 81.8074 139.039 79.9693C140.196 79.3037 141.258 78.505 142.262 77.6269C142.6 77.3325 142.955 77.0483 143.329 76.8026C144.264 76.1882 145.252 76.1242 146.237 76.6515C146.831 76.969 147.41 77.3248 147.95 77.7267C150.881 79.9206 154.137 81.4899 157.586 82.6419C159.442 83.2614 161.362 83.7094 163.269 84.1702C165.494 84.7053 167.744 85.1405 169.971 85.6755C171.202 85.9699 172.411 86.3616 173.617 86.7482C174.121 86.9094 174.605 87.145 175.081 87.3779C177.953 88.7936 179.415 91.1872 179.855 94.2874C180.057 95.7082 179.996 97.1213 179.533 98.473C178.429 101.701 176.171 103.644 172.802 104.189C171.597 104.384 170.358 104.415 169.131 104.417C161.293 104.435 153.451 104.428 145.613 104.428C145.613 104.448 145.613 104.466 145.613 104.484Z" fill="#F8F8F8"/>
<path d="M172.337 194.931C169.521 194.931 166.787 194.931 164.063 194.931C163.937 194.458 163.891 157.588 164.007 156.621C164.439 156.503 171.502 156.47 172.337 156.595C172.337 161.375 172.337 166.164 172.337 170.957C172.38 170.972 172.421 170.988 172.465 171.003C172.634 170.811 172.8 170.616 172.974 170.429C175.375 167.844 178.307 167.053 181.688 167.921C183.409 168.361 184.709 169.429 185.669 170.913C186.586 172.332 187.085 173.908 187.318 175.562C187.474 176.673 187.576 177.802 187.582 178.924C187.61 184.061 187.594 189.199 187.594 194.335C187.594 194.516 187.594 194.698 187.594 194.921C184.796 194.921 182.047 194.921 179.228 194.921C179.228 194.657 179.228 194.417 179.228 194.179C179.228 189.389 179.238 184.599 179.218 179.809C179.215 179.016 179.093 178.222 179 177.431C178.97 177.17 178.878 176.914 178.788 176.666C178.296 175.278 177.37 174.549 176.049 174.487C174.636 174.423 173.399 175.148 172.808 176.392C172.467 177.109 172.342 177.871 172.342 178.657C172.339 180.562 172.339 182.464 172.339 184.369C172.339 187.643 172.339 190.917 172.339 194.194C172.337 194.414 172.337 194.637 172.337 194.931Z" fill="#F8F8F8"/>
<path d="M56.8809 156.559C59.6713 156.559 62.4053 156.559 65.1957 156.559C65.1957 161.372 65.1957 166.154 65.1957 170.977C65.5106 170.936 65.6002 170.708 65.7333 170.555C66.9596 169.162 68.4418 168.189 70.2645 167.79C71.8159 167.452 73.3596 167.503 74.87 168.005C76.5109 168.55 77.7474 169.61 78.6485 171.075C79.4985 172.457 79.9797 173.978 80.1922 175.57C80.3509 176.742 80.4482 177.933 80.4559 179.116C80.4841 184.172 80.4687 189.228 80.4687 194.281C80.4687 194.481 80.4687 194.683 80.4687 194.924C77.6783 194.924 74.9442 194.924 72.1308 194.924C72.1205 194.698 72.1026 194.463 72.1026 194.227C72.1001 189.417 72.1103 184.607 72.0898 179.796C72.0873 179.003 71.9618 178.209 71.8697 177.418C71.8389 177.157 71.7442 176.901 71.6572 176.653C71.2117 175.375 70.3644 174.584 68.9717 174.49C67.5663 174.395 66.3093 175.114 65.7026 176.343C65.4082 176.94 65.27 177.577 65.2316 178.235C65.2111 178.58 65.2162 178.931 65.2162 179.279C65.2162 184.233 65.2162 189.187 65.2162 194.14C65.2162 194.383 65.2162 194.627 65.2162 194.857C64.7273 194.99 57.59 195.013 56.8809 194.89C56.8809 182.136 56.8809 169.375 56.8809 156.559Z" fill="#F8F8F8"/>
<path d="M158.116 159.229C157.586 161.551 157.074 163.796 156.549 166.098C156.314 166.003 156.129 165.937 155.947 165.855C153.874 164.931 151.7 164.526 149.432 164.636C148.544 164.68 147.689 164.874 146.906 165.315C145.597 166.047 145.014 167.306 145.311 168.722C145.441 169.347 145.761 169.876 146.245 170.271C146.765 170.696 147.307 171.116 147.896 171.433C149.084 172.073 150.303 172.657 151.521 173.238C152.875 173.88 154.179 174.605 155.359 175.532C157.338 177.085 158.771 179.013 159.286 181.509C160.276 186.317 158.548 191.652 152.75 194.109C151.173 194.778 149.519 195.159 147.822 195.318C144.499 195.63 141.243 195.279 138.074 194.227C137.533 194.048 137.019 193.802 136.422 193.559C136.899 191.199 137.367 188.884 137.846 186.511C138.094 186.614 138.296 186.693 138.496 186.78C140.989 187.855 143.585 188.431 146.312 188.37C147.2 188.349 148.06 188.196 148.887 187.866C151.611 186.775 151.67 183.608 150.057 182.118C149.491 181.596 148.849 181.135 148.186 180.741C147.397 180.273 146.555 179.889 145.723 179.497C144.087 178.729 142.513 177.866 141.092 176.74C139.994 175.869 139.039 174.868 138.26 173.696C136.01 170.301 136.561 165.601 138.667 162.632C140.267 160.379 142.479 159.027 145.091 158.272C147.464 157.586 149.888 157.504 152.333 157.724C154.033 157.875 155.689 158.231 157.276 158.866C157.542 158.973 157.801 159.094 158.116 159.229Z" fill="#F8F8F8"/>
<path d="M52.4952 194.184C51.3227 194.678 50.181 194.918 49.029 195.098C46.9579 195.42 44.8767 195.528 42.7877 195.346C38.3256 194.959 34.4549 193.354 31.5391 189.824C29.7547 187.666 28.6642 185.167 28.0908 182.444C27.1512 177.969 27.2459 173.514 28.7615 169.183C31.004 162.775 35.5915 159.05 42.2475 157.896C45.3503 157.358 48.4479 157.519 51.4891 158.382C51.973 158.52 52.4363 158.73 52.933 158.917C52.4184 161.216 51.9192 163.443 51.42 165.67C50.565 165.42 49.7739 165.143 48.9624 164.961C47.2267 164.575 45.4706 164.508 43.7272 164.91C41.1493 165.507 39.2268 166.984 37.9416 169.295C37.1762 170.673 36.7384 172.163 36.5285 173.711C36.1957 176.187 36.2392 178.652 36.8562 181.087C37.1147 182.103 37.4936 183.073 38.0287 183.977C39.4085 186.309 41.4565 187.674 44.1138 188.111C46.3512 188.48 48.5605 188.234 50.7365 187.653C50.9515 187.597 51.1666 187.54 51.4533 187.466C51.804 189.719 52.1471 191.933 52.4952 194.184Z" fill="#F8F8F8"/>
<path d="M217.057 181.522C217.034 183.647 216.773 185.818 215.941 187.876C214.154 192.307 210.823 194.747 206.126 195.366C203.981 195.651 201.869 195.446 199.833 194.711C196.254 193.416 193.976 190.848 192.773 187.29C192.043 185.132 191.833 182.897 191.954 180.628C192.054 178.734 192.374 176.886 193.111 175.13C194.934 170.788 198.21 168.335 202.862 167.711C204.961 167.429 207.035 167.567 209.042 168.269C212.549 169.495 214.797 171.983 216.066 175.414C216.786 177.357 217.052 179.379 217.057 181.522ZM200.381 182.067C200.455 182.712 200.545 183.877 200.737 185.024C200.939 186.225 201.346 187.364 202.176 188.296C203.522 189.806 205.665 189.74 206.919 188.157C207.424 187.523 207.762 186.798 207.972 186.025C208.788 183.04 208.798 180.047 207.982 177.057C207.764 176.264 207.421 175.521 206.904 174.871C206.167 173.944 205.212 173.553 204.034 173.724C203.174 173.85 202.521 174.313 201.999 174.981C201.502 175.621 201.193 176.353 200.962 177.121C200.53 178.565 200.427 180.052 200.381 182.067Z" fill="#F8F8F8"/>
<path d="M100.27 194.918C100.104 194.084 99.9397 193.252 99.7605 192.346C99.6018 192.484 99.502 192.548 99.4277 192.637C98.2041 194.094 96.6245 194.929 94.7762 195.284C93.0764 195.61 91.3868 195.592 89.7586 194.959C86.8658 193.836 85.2863 191.639 84.7717 188.631C84.5516 187.343 84.6386 186.058 84.9433 184.794C85.4655 182.628 86.6994 180.946 88.5247 179.689C90.0991 178.601 91.8604 177.969 93.7164 177.569C95.1986 177.249 96.7013 177.08 98.2194 177.052C98.4217 177.05 98.6213 177.034 98.8108 177.024C99.1052 176.049 98.5036 174.528 97.3388 173.993C96.6373 173.67 95.9001 173.527 95.1397 173.501C92.7999 173.417 90.5906 173.921 88.5145 175.004C88.3711 175.078 88.2277 175.153 88.0025 175.268C87.7413 174.356 87.4879 173.486 87.2421 172.613C86.9913 171.73 86.7481 170.844 86.4844 169.892C86.6764 169.787 86.8607 169.672 87.0553 169.577C88.8165 168.719 90.6802 168.184 92.6079 167.88C94.5765 167.567 96.5554 167.485 98.5394 167.729C99.7247 167.875 100.872 168.156 101.962 168.65C104.479 169.797 105.989 171.784 106.747 174.395C107.177 175.88 107.348 177.4 107.354 178.941C107.361 182.4 107.356 185.859 107.361 189.317C107.364 191.078 107.433 192.835 107.714 194.578C107.73 194.675 107.717 194.778 107.717 194.924C105.242 194.918 102.779 194.918 100.27 194.918ZM99.0924 182.28C97.7177 182.267 96.3276 182.405 95.0143 182.986C92.8281 183.954 92.4697 185.897 92.9125 187.543C93.1839 188.552 93.8444 189.217 94.8761 189.448C96.7986 189.875 98.8338 188.605 99.0898 186.657C99.2741 185.252 99.1564 183.805 99.1743 182.38C99.1743 182.364 99.1513 182.349 99.0924 182.28Z" fill="#F8F8F8"/>
<path d="M243.671 184.522C238.641 184.522 233.651 184.522 228.59 184.522C228.616 184.801 228.611 185.042 228.659 185.27C228.969 186.685 229.819 187.681 231.086 188.339C232.295 188.966 233.605 189.181 234.944 189.197C236.961 189.22 238.938 188.918 240.876 188.352C241.032 188.306 241.191 188.26 241.347 188.219C241.383 188.209 241.424 188.224 241.541 188.234C241.897 190.108 242.256 192.005 242.629 193.987C241.813 194.235 241.047 194.511 240.259 194.698C237.471 195.359 234.645 195.579 231.788 195.331C230.602 195.228 229.443 194.977 228.319 194.575C224.853 193.331 222.495 190.961 221.392 187.461C220.042 183.188 220.234 178.936 222.034 174.815C223.283 171.955 225.29 169.769 228.209 168.538C230.866 167.416 233.61 167.276 236.383 168.036C238.938 168.737 240.832 170.314 242.122 172.621C243.128 174.42 243.61 176.376 243.827 178.406C244.014 180.16 244.017 181.919 243.843 183.677C243.827 183.841 243.809 184.003 243.781 184.164C243.768 184.261 243.725 184.356 243.671 184.522ZM236.265 178.719C236.298 177.385 236.099 176.172 235.495 175.048C234.335 172.892 231.632 172.946 230.311 174.249C229.077 175.468 228.677 177.016 228.511 178.719C231.112 178.719 233.654 178.719 236.265 178.719Z" fill="#F8F8F8"/>
<path d="M128.169 168.095C128.169 170.161 128.169 172.116 128.169 174.144C126.318 174.144 124.506 174.144 122.655 174.144C122.637 174.387 122.609 174.564 122.609 174.74C122.606 177.953 122.596 181.169 122.619 184.381C122.624 185.052 122.701 185.733 122.847 186.386C123.172 187.85 124.04 188.552 125.54 188.572C126.27 188.582 126.999 188.485 127.795 188.431C127.795 190.533 127.795 192.648 127.795 194.844C127.317 194.947 126.805 195.082 126.287 195.156C124.419 195.43 122.545 195.571 120.666 195.254C117.66 194.744 115.748 193.001 114.88 190.098C114.527 188.915 114.363 187.699 114.358 186.465C114.348 182.638 114.345 178.811 114.34 174.984C114.34 174.74 114.34 174.497 114.34 174.175C113.239 174.175 112.187 174.175 111.091 174.175C111.091 172.124 111.091 170.153 111.091 168.108C112.161 168.108 113.214 168.108 114.322 168.108C114.322 166.446 114.322 164.856 114.322 163.2C117.082 162.422 119.808 161.654 122.614 160.863C122.614 163.305 122.614 165.67 122.614 168.097C124.493 168.095 126.305 168.095 128.169 168.095Z" fill="#F8F8F8"/>
<path d="M143.091 220.49C142.303 220.49 141.593 220.49 140.82 220.49C140.82 216.855 140.82 213.243 140.82 209.582C141.414 209.582 142.036 209.582 142.694 209.582C142.748 210.063 142.802 210.537 142.863 211.077C144.624 208.617 147.901 208.783 149.038 211.241C149.186 211.059 149.322 210.895 149.455 210.732C150.308 209.682 151.411 209.216 152.752 209.329C153.91 209.426 154.734 210.028 155.274 211.041C155.686 211.82 155.842 212.669 155.853 213.53C155.881 215.759 155.865 217.992 155.865 220.221C155.865 220.298 155.837 220.375 155.819 220.483C155.092 220.483 154.386 220.483 153.61 220.483C153.6 220.26 153.582 220.045 153.582 219.827C153.579 217.943 153.597 216.061 153.567 214.177C153.556 213.612 153.487 213.025 153.311 212.493C152.834 211.059 151.216 210.742 150.175 211.84C149.67 212.375 149.481 213.025 149.483 213.752C149.488 215.757 149.486 217.764 149.486 219.771C149.486 219.991 149.486 220.214 149.486 220.475C148.705 220.475 147.983 220.475 147.192 220.475C147.192 220.227 147.192 220.006 147.192 219.789C147.192 217.843 147.208 215.9 147.182 213.957C147.174 213.453 147.118 212.928 146.957 212.452C146.532 211.187 145.208 210.803 144.13 211.597C143.498 212.063 143.183 212.71 143.117 213.481C143.088 213.806 143.096 214.136 143.096 214.461C143.094 216.223 143.096 217.981 143.096 219.743C143.091 219.968 143.091 220.191 143.091 220.49Z" fill="#F8F8F8"/>
<path d="M187.463 220.488C186.708 220.488 186.002 220.488 185.218 220.488C185.218 220.237 185.218 220.019 185.218 219.799C185.218 217.979 185.234 216.156 185.208 214.336C185.2 213.788 185.144 213.228 185.011 212.7C184.604 211.113 183.047 210.936 182.044 211.51C181.34 211.912 180.951 212.541 180.831 213.333C180.784 213.635 180.784 213.944 180.784 214.252C180.779 216.092 180.782 217.935 180.782 219.776C180.782 219.996 180.782 220.219 180.782 220.48C179.993 220.48 179.271 220.48 178.47 220.48C178.47 216.847 178.47 213.235 178.47 209.58C179.056 209.58 179.681 209.58 180.377 209.58C180.423 210.051 180.472 210.524 180.528 211.108C180.708 210.908 180.82 210.783 180.933 210.655C181.962 209.482 183.268 209.103 184.76 209.411C185.879 209.641 186.639 210.363 187.09 211.405C187.369 212.052 187.499 212.736 187.502 213.437C187.512 215.688 187.512 217.94 187.512 220.191C187.512 220.268 187.487 220.347 187.463 220.488Z" fill="#F8F8F8"/>
<path d="M121.736 220.495C121.06 220.495 120.433 220.495 119.749 220.495C119.685 220.124 119.619 219.75 119.539 219.29C119.363 219.456 119.237 219.571 119.112 219.686C118.021 220.677 116.752 220.948 115.351 220.557C114.448 220.306 113.831 219.699 113.472 218.836C112.837 217.308 113.347 215.529 114.698 214.577C115.61 213.934 116.654 213.668 117.742 213.537C118.247 213.478 118.753 213.445 119.253 213.402C119.478 212.076 118.874 211.215 117.591 211.031C116.716 210.906 115.884 211.095 115.077 211.43C114.893 211.507 114.711 211.599 114.465 211.715C114.304 211.208 114.153 210.734 113.984 210.209C114.307 210.053 114.586 209.884 114.885 209.774C116.201 209.293 117.55 209.147 118.925 209.469C120.138 209.754 120.963 210.514 121.331 211.692C121.516 212.288 121.603 212.931 121.623 213.558C121.667 214.886 121.628 216.218 121.644 217.546C121.657 218.509 121.703 219.469 121.736 220.495ZM119.391 215.017C118.375 214.986 117.448 215.073 116.593 215.508C115.623 216 115.236 217.116 115.661 218.117C115.848 218.557 116.173 218.839 116.639 218.967C117.891 219.315 119.26 218.383 119.381 217.05C119.44 216.404 119.391 215.752 119.391 215.017Z" fill="#F8F8F8"/>
<path d="M107.2 215.542C104.868 215.542 102.602 215.542 100.35 215.542C100.104 216.53 100.682 217.836 101.596 218.427C102.088 218.744 102.633 218.908 103.214 218.939C104.121 218.988 105.011 218.895 105.874 218.598C106.005 218.552 106.14 218.522 106.322 218.47C106.448 219.018 106.563 219.525 106.698 220.111C106.158 220.265 105.68 220.431 105.188 220.534C104.264 220.728 103.324 220.79 102.382 220.669C100.447 220.424 99.0594 219.43 98.4041 217.572C97.7462 215.701 97.8358 213.821 98.678 212.019C99.6303 209.979 101.63 208.973 103.839 209.38C104.968 209.587 105.836 210.197 106.419 211.185C107.2 212.511 107.341 213.952 107.2 215.542ZM105.014 213.875C105.096 213.22 104.953 212.654 104.681 212.119C104.069 210.913 102.513 210.563 101.45 211.402C100.67 212.019 100.378 212.885 100.258 213.875C101.865 213.875 103.409 213.875 105.014 213.875Z" fill="#F8F8F8"/>
<path d="M171.64 215.544C169.352 215.544 167.089 215.544 164.836 215.544C164.554 216.791 165.391 218.22 166.641 218.706C167.45 219.021 168.287 219 169.121 218.88C169.682 218.798 170.23 218.639 170.824 218.504C170.942 219.021 171.057 219.53 171.182 220.081C170.842 220.201 170.563 220.321 170.271 220.398C169.114 220.705 167.934 220.826 166.746 220.652C164.867 220.38 163.525 219.374 162.895 217.564C162.243 215.69 162.332 213.811 163.175 212.012C164.127 209.974 166.134 208.97 168.338 209.38C169.395 209.577 170.217 210.14 170.824 211.031C171.495 212.022 171.948 213.896 171.64 215.544ZM169.511 213.878C169.585 213.215 169.444 212.649 169.173 212.114C168.589 210.972 167.16 210.588 166.09 211.302C165.192 211.904 164.9 212.831 164.744 213.878C166.364 213.878 167.908 213.878 169.511 213.878Z" fill="#F8F8F8"/>
<path d="M74.8444 207.252C73.4441 207.252 72.1436 207.252 70.8124 207.252C70.6588 206.587 70.7791 205.965 70.7305 205.307C74.2428 205.307 77.6911 205.307 81.1394 205.307C81.2751 205.722 81.2956 206.49 81.1804 207.224C79.8722 207.224 78.5513 207.224 77.1535 207.224C77.1535 211.674 77.1535 216.056 77.1535 220.48C76.3522 220.48 75.6277 220.48 74.8444 220.48C74.8444 216.09 74.8444 211.72 74.8444 207.252Z" fill="#F8F8F8"/>
<path d="M134.16 218.76C134.195 219.318 134.229 219.863 134.267 220.488C133.043 220.78 131.871 220.938 130.747 220.275C130.089 219.886 129.761 219.244 129.623 218.519C129.534 218.04 129.488 217.546 129.482 217.057C129.464 215.381 129.475 213.701 129.475 212.022C129.475 211.802 129.475 211.581 129.475 211.282C128.932 211.282 128.453 211.282 127.944 211.282C127.944 210.678 127.944 210.156 127.944 209.551C128.44 209.551 128.922 209.551 129.459 209.551C129.459 208.845 129.459 208.22 129.459 207.562C130.22 207.324 130.934 207.101 131.722 206.856C131.845 207.757 131.725 208.609 131.807 209.528C132.654 209.528 133.481 209.528 134.344 209.528C134.344 210.132 134.344 210.655 134.344 211.244C133.527 211.354 132.69 211.231 131.822 211.318C131.807 211.51 131.781 211.686 131.781 211.863C131.779 213.501 131.774 215.137 131.784 216.776C131.786 217.142 131.812 217.516 131.902 217.869C132.073 218.537 132.462 218.824 133.141 218.831C133.445 218.826 133.75 218.788 134.16 218.76Z" fill="#F8F8F8"/>
<path d="M193.79 211.279C193.79 210.675 193.79 210.153 193.79 209.549C194.284 209.549 194.762 209.549 195.303 209.549C195.303 208.845 195.303 208.218 195.303 207.557C196.063 207.319 196.777 207.096 197.553 206.853C197.711 207.747 197.553 208.602 197.66 209.518C198.497 209.518 199.322 209.518 200.184 209.518C200.184 210.122 200.184 210.644 200.184 211.233C199.37 211.346 198.536 211.22 197.673 211.308C197.655 211.479 197.624 211.635 197.622 211.791C197.619 213.471 197.612 215.148 197.627 216.827C197.63 217.211 197.678 217.605 197.781 217.974C197.932 218.529 198.339 218.819 198.92 218.821C199.26 218.824 199.603 218.788 200.005 218.765C200.039 219.313 200.074 219.858 200.113 220.477C198.871 220.772 197.678 220.948 196.544 220.239C195.917 219.848 195.599 219.22 195.471 218.516C195.379 218.017 195.333 217.503 195.328 216.993C195.31 215.337 195.32 213.678 195.32 212.019C195.32 211.799 195.32 211.579 195.32 211.277C194.78 211.279 194.302 211.279 193.79 211.279Z" fill="#F8F8F8"/>
<path d="M86.9502 209.577C87.5288 209.577 88.1534 209.577 88.8472 209.577C88.8728 209.871 88.906 210.171 88.9188 210.468C88.9316 210.77 88.9214 211.075 89.0315 211.415C89.1288 211.251 89.2209 211.085 89.3208 210.924C89.8686 210.017 90.6187 209.403 91.7169 209.321C91.9371 209.306 92.1598 209.341 92.4235 209.354C92.4235 210.094 92.4235 210.796 92.4235 211.517C92.3108 211.528 92.2315 211.543 92.1547 211.54C90.46 211.502 89.4744 212.372 89.3054 214.062C89.2747 214.367 89.267 214.674 89.267 214.981C89.2644 216.579 89.2644 218.173 89.2644 219.771C89.2644 219.991 89.2644 220.214 89.2644 220.477C88.4811 220.477 87.7592 220.477 86.9553 220.477C86.9502 216.847 86.9502 213.235 86.9502 209.577Z" fill="#F8F8F8"/>
</svg>
