<svg width="119" height="69" viewBox="0 0 119 69" fill="none" xmlns="http://www.w3.org/2000/svg">
<g clip-path="url(#clip0_249_1086)">
<path d="M108.753 25.7453C108.753 18.176 108.753 10.6066 108.753 3.03294C108.753 2.72355 108.761 2.41415 108.761 2.10039C108.761 1.66462 108.956 1.52953 109.392 1.58183C110.907 1.77357 112.38 3.0068 112.717 4.52328C112.885 5.28152 112.933 6.08334 112.933 6.86337C112.928 19.6402 112.902 32.417 112.894 45.1938C112.894 46.0261 112.924 46.8672 113.019 47.6951C113.321 50.3403 115.731 52.323 118.343 52.1182C118.797 52.0833 119.224 51.9657 118.87 51.3861C118.158 50.2095 118.067 48.924 118.067 47.5949C118.08 35.1754 118.084 22.7603 118.071 10.3408C118.071 9.36906 117.98 8.38421 117.825 7.42552C117.277 4.04829 114.172 0.73643 110.804 0.300659C108.308 -0.0218114 105.756 0.0871314 103.225 0.0391966C102.681 0.0261234 102.521 0.352952 102.828 0.867162C103.523 2.02631 103.631 3.29441 103.631 4.593C103.631 18.42 103.631 32.247 103.627 46.0741C103.627 46.9107 103.692 47.7605 103.571 48.5754C103.437 49.4818 103.173 50.3751 102.863 51.2379C102.629 51.896 102.621 52.0921 103.329 52.1095C105.268 52.1618 107.211 52.14 109.15 52.1226C109.629 52.1226 109.815 51.7739 109.564 51.3905C108.688 50.0396 108.766 48.5187 108.761 47.024C108.748 39.9297 108.757 32.8397 108.757 25.7453H108.753Z" fill="white"/>
<path d="M5.95452 27.8719H5.94157C5.94157 20.9693 5.93293 14.0667 5.9502 7.1641C5.9502 6.33178 6.02361 5.49074 6.17475 4.67585C6.45111 3.18115 7.76815 1.93921 9.2536 1.66467C10.0956 1.50779 10.1388 1.54265 10.1431 2.42291C10.1647 5.55175 10.195 8.68059 10.1863 11.8094C10.1863 13.4261 10.2468 15.0646 9.32269 16.5288C9.10247 16.8731 9.29247 17.1694 9.68542 17.1651C10.3159 17.1563 10.9895 17.1868 11.5725 16.9907C13.7402 16.2543 15.1263 14.777 15.2127 12.3977C15.3077 9.91818 15.2299 7.43428 15.2688 4.95474C15.2904 3.52541 15.3509 2.09173 16.1454 0.810559C16.4045 0.387861 16.2318 0.0348862 15.7006 0.0479593C13.1745 0.113325 10.6181 2.44863e-05 8.12656 0.335568C4.58998 0.801843 1.55431 4.06577 1.09659 7.63909C0.880678 9.31245 0.863406 11.0163 0.863406 12.7071C0.846133 24.5775 0.872042 36.4479 0.833179 48.3183C0.833179 49.2334 0.522271 50.1878 0.185454 51.055C-0.142727 51.9134 -0.095227 52.1793 0.820224 52.1662C2.97499 52.14 5.13407 52.1488 7.27588 51.9919C11.2443 51.6999 14.7895 48.192 15.1565 44.2003C15.3163 42.4703 15.1781 40.7141 15.3206 38.9798C15.407 37.9557 15.7049 36.9316 16.0461 35.9599C16.3052 35.2234 16.2404 34.9184 15.4372 34.9358C14.2022 34.9576 13.0795 35.3411 12.0993 36.1429C10.6959 37.289 10.1777 38.8142 10.1604 40.566C10.1388 42.6184 10.1734 44.6709 10.1086 46.7234C10.0525 48.5014 8.8736 49.9568 7.20679 50.4754C6.20929 50.7848 5.95884 50.6148 5.95452 49.5821C5.9502 42.3439 5.95452 35.1101 5.95452 27.8719Z" fill="white"/>
<path d="M24.7002 31.685C24.7002 31.3582 24.7002 31.1316 24.7002 30.905C24.7002 22.0196 24.6916 13.1386 24.7002 4.25321C24.7002 3.07227 24.9118 1.93491 25.4948 0.880341C25.8273 0.278977 25.6848 0.0567337 25.0068 0.0305874C23.9359 -0.00863199 22.9427 0.261546 22.0316 0.828049C20.2698 1.92183 19.5616 3.56469 19.5659 5.59974C19.5789 10.5196 19.5746 15.4395 19.5746 20.3593C19.5746 29.6717 19.5875 38.9885 19.54 48.301C19.5357 49.2204 19.2507 50.1835 18.8923 51.042C18.508 51.9614 18.5166 52.1445 19.553 52.1706C21.1852 52.2098 22.8218 52.2142 24.4541 52.2185C24.7132 52.2185 24.9809 52.1967 25.227 52.1314C25.607 52.0312 25.8273 51.8133 25.5639 51.4036C24.8427 50.2706 24.6916 49.0025 24.6916 47.6996C24.6873 43.6643 24.6916 39.6291 24.6959 35.5939C24.6959 35.3542 24.7261 35.1102 24.7434 34.8705L24.9377 34.7964C25.3868 36.1517 26.4836 36.8794 27.5286 37.642C28.3966 38.2782 28.6945 39.1846 28.7852 40.1825C28.8586 41.0149 28.8629 41.8515 28.8672 42.6882C28.8802 44.0958 28.837 45.5077 28.8759 46.9152C28.9277 48.837 29.7913 50.3404 31.3502 51.4341C31.7 51.6782 32.0325 51.8263 32.365 51.3208C34.0534 48.7454 34.062 48.7498 34.0534 45.6122C34.0534 45.1329 34.0447 44.6579 34.0188 44.1786C33.9454 42.6664 33.7554 41.1892 33.0084 39.8296C32.0929 38.1693 30.6118 37.1714 29.0443 36.2519C28.1073 35.7028 27.1702 35.1407 26.2763 34.5175C25.9482 34.2866 25.7495 33.8682 25.4602 33.4978C26.6218 33.0446 26.9457 32.6481 26.7427 32.0728C26.5009 31.393 25.9007 31.2492 24.7089 31.685H24.7002Z" fill="white"/>
<path d="M8.62764 36.0863C8.92559 35.7638 9.11991 35.5721 9.29264 35.3629C11.1408 33.1274 13.4726 32.0728 16.3701 32.4694C16.9833 32.5522 17.0308 32.2253 17.0308 31.7634C17.0265 26.7303 17.0308 21.6927 17.0222 16.6596C17.0222 16.4679 16.9703 16.2761 16.9401 16.0844L16.7587 16.0146C16.6983 16.1192 16.6465 16.2238 16.5774 16.324C14.8242 18.8995 12.3888 20.0063 9.32286 19.7318C8.73991 19.6795 8.52832 19.8712 8.52832 20.4813C8.54991 25.4186 8.54127 30.3602 8.54991 35.2975C8.54991 35.498 8.58446 35.7028 8.62332 36.0906L8.62764 36.0863Z" fill="white"/>
<path d="M56.9177 46.9893C57.4531 46.7017 57.9454 46.5448 58.2952 46.2267C59.1113 45.4859 60.057 45.207 61.1063 45.2637C61.7842 45.2985 61.9742 45.0196 61.957 44.3834C61.9181 42.8538 61.8706 41.3243 61.9224 39.7991C61.9613 38.6138 62.052 37.4154 62.6997 36.3478C63.1142 35.6636 62.9026 35.3411 62.1081 35.3586C59.1242 35.4196 56.9133 37.6115 56.8486 40.6271C56.8097 42.466 56.8356 44.305 56.8356 46.1439C56.8356 46.3705 56.8788 46.6015 56.9133 46.9893H56.9177Z" fill="white"/>
<path d="M88.4528 50.301L88.6644 50.3707C89.351 49.7825 89.7872 49.0024 89.839 48.1178C89.9469 46.3137 89.9296 44.4966 89.9642 42.6881C90.0031 40.4613 89.6706 38.1866 90.871 36.1167C91.0653 35.7811 90.9617 35.4238 90.4781 35.4369C89.8908 35.4543 89.2776 35.4282 88.7206 35.5807C86.2765 36.243 84.8903 38.2737 84.8558 41.0888C84.8472 41.7468 85.0026 42.1783 85.7151 42.3177C86.0519 42.3831 86.3844 42.5574 86.6824 42.7448C88.4399 43.8473 89.4331 46.536 88.889 48.68C88.7508 49.2203 88.604 49.7563 88.4615 50.2967L88.4528 50.301Z" fill="white"/>
<path d="M83.3537 7.22949C83.2717 7.4038 83.2198 7.46481 83.2155 7.52582C83.2069 9.7221 83.2026 11.9184 83.1982 14.1147C83.1982 14.5635 83.4746 14.6681 83.8503 14.6855C86.7953 14.8032 89.1919 13.7966 90.7766 11.1994C91.1048 10.6634 91.2689 10.0271 91.5064 9.43885L91.2948 9.22968C89.9 9.81797 88.4923 10.0838 87.0112 9.6916C85.5214 9.2994 84.3555 8.44094 83.3537 7.22949Z" fill="white"/>
<path d="M27.4285 7.31226C27.3508 7.45606 27.2904 7.51707 27.2904 7.57808C27.2774 9.81794 27.2601 12.0622 27.2817 14.302C27.2817 14.4415 27.6056 14.6855 27.7826 14.6899C28.2749 14.7073 28.7715 14.6071 29.2681 14.5896C32.0231 14.485 33.8108 12.9293 35.0717 10.6241C35.2833 10.2406 35.3524 9.77872 35.5553 9.13814C32.2519 10.5065 29.5963 9.92252 27.4285 7.31226Z" fill="white"/>
<path d="M55.3758 7.26855C55.2938 7.40364 55.229 7.46029 55.229 7.51694C55.2117 9.73502 55.1858 11.9531 55.2074 14.1668C55.2074 14.3368 55.5442 14.6374 55.7386 14.6505C58.6404 14.8205 61.0499 13.8923 62.639 11.3125C62.9974 10.7329 63.1917 10.0531 63.4594 9.42126L63.3342 9.20774C60.1776 10.5717 57.5306 9.87882 55.3715 7.26855H55.3758Z" fill="white"/>
<path d="M50.9932 46.7407C51.0364 46.3877 51.0493 46.0871 51.1141 45.7951C51.7575 43.0236 50.6866 41.0103 48.005 40.0778C47.4739 39.8948 47.4782 39.5418 47.4782 39.1365C47.4696 35.4368 47.4782 31.7328 47.4523 28.0331C47.435 25.5753 47.4394 23.1176 47.3228 20.6642C47.2709 19.5791 46.6707 18.7076 45.6603 18.1977C44.9607 19.0286 44.1964 19.245 43.3673 18.847C43.3673 19.2 43.3673 19.4963 43.3673 19.797C43.363 26.3902 43.3457 32.9791 43.3673 39.5723C43.3673 40.2782 43.1082 40.592 42.5037 40.9232C41.3464 41.555 40.2669 42.3351 39.1571 43.0585C38.9283 43.2066 38.708 43.3766 38.4878 43.5334L38.2589 43.4724V39.995C37.6112 39.995 37.1405 40.0429 36.6871 39.9688C36.5101 39.9427 36.3244 39.6638 36.238 39.4633C35.9876 38.8838 36.2639 38.5134 37.3219 37.9599C37.1535 37.1712 36.5403 36.7441 35.9314 36.365C35.0246 35.8029 34.066 35.3279 33.1419 34.8006C30.279 33.1708 28.9447 30.6346 28.8842 27.3794C28.841 25.0655 28.8842 22.7472 28.8022 20.4332C28.7806 19.7665 28.5517 19.0693 28.2753 18.4505C27.809 17.4177 27.8392 17.2869 28.9922 17.2477C32.2783 17.1344 34.8389 15.692 36.713 12.9859C37.4989 11.8485 37.9955 10.5761 38.0689 9.19468C38.1467 7.74792 38.1683 6.28808 38.0689 4.84568C37.9998 3.80419 37.3305 3.00237 36.5317 2.36179C36.3719 2.23105 36.1387 2.19619 35.8062 2.06546C35.871 2.40536 35.8926 2.58403 35.9358 2.75834C36.4453 4.70623 35.4305 6.5234 33.4874 7.12912C31.7385 7.67384 29.7306 6.68028 29.139 4.97641C28.474 3.05902 29.3117 0.884521 31.1901 0.344165C32.4251 -0.0131671 33.8242 -0.0523865 35.1067 0.104491C38.7685 0.557693 41.381 2.58839 42.698 6.06148C43.173 7.3165 43.2766 8.76326 43.3328 10.1272C43.4235 12.2974 43.3241 14.4719 43.3198 16.6464C43.3198 16.9688 43.3673 17.2957 43.4019 17.7184C44.4296 17.0168 45.4875 17.2826 46.5066 17.2957C47.1889 17.3044 47.5128 17.0996 47.5128 16.3718C47.4998 12.3148 47.53 8.25341 47.4912 4.19638C47.4825 3.02852 47.2666 1.87372 46.6491 0.832229C46.3512 0.322377 46.5066 0.0652717 47.0766 0.0260523C49.5034 -0.12211 52.103 1.62969 52.4139 4.17459C52.5348 5.16815 52.5952 6.17042 52.6039 7.1727C52.6255 10.2275 52.6212 13.2866 52.5866 16.3413C52.578 17.0386 52.7723 17.3175 53.5064 17.3087C55.5186 17.2826 57.5352 17.3654 59.5043 16.8294C63.0927 15.8489 65.7829 12.6155 66.0507 8.86785C66.1413 7.58668 66.1241 6.28808 66.0463 5.00692C65.9729 3.84341 65.2777 2.98058 64.3838 2.29206C64.25 2.19183 64.06 2.17005 63.8311 2.08725C63.9045 2.71912 64.0125 3.25076 64.0168 3.7824C64.0254 5.23352 63.0323 6.61927 61.7109 7.06811C60.0959 7.61283 58.5845 7.15963 57.5914 5.83488C56.6759 4.61472 56.6241 3.01108 57.423 1.74735C58.0577 0.749432 58.9516 0.18293 60.1002 0.0739871C63.965 -0.287703 67.2684 0.732002 69.6434 4.04386C70.7359 5.56906 71.2325 7.30343 71.2843 9.13803C71.362 11.7396 71.3188 14.3411 71.3188 16.9427C71.3274 25.8455 71.3274 34.7439 71.3318 43.6467C71.3318 43.8385 71.3188 44.0302 71.3231 44.2176C71.3404 44.7536 71.0986 44.9105 70.615 44.7231C69.3022 44.2176 67.9981 44.1435 66.6854 44.7405C66.2363 44.9453 66.15 44.6359 66.15 44.2786C66.1457 43.0846 66.15 41.8906 66.1413 40.6966C66.137 40.0516 66.1413 39.4067 66.0982 38.7617C65.9384 36.5437 64.3579 35.0098 62.147 34.9705C60.3723 34.94 58.5932 34.9705 56.8184 34.9618C55.8598 34.9618 55.8296 34.8093 56.1491 33.9116C56.4773 32.9834 56.8184 31.9942 56.8357 31.0268C56.9005 27.5886 56.8443 24.1503 56.8055 20.7121C56.8011 20.163 56.6586 19.6096 56.5593 18.9385C55.5921 19.4745 54.9573 19.3569 54.6075 18.4025C54.5816 18.3328 54.1671 18.3023 54.0418 18.3982C53.2084 19.03 52.6902 19.8798 52.66 20.9431C52.6125 22.4465 52.6212 23.9499 52.6212 25.4533C52.6212 32.0683 52.6212 38.6833 52.6255 45.2983C52.6255 46.6231 52.5305 46.7146 51.0062 46.7538L50.9932 46.7407ZM38.1942 36.5306C38.1855 29.0179 38.2762 21.4573 38.0905 13.8792C37.8098 14.0361 37.6803 14.2322 37.5162 14.3891C36.5533 15.2955 35.6162 16.2324 34.5971 17.0691C34.1826 17.409 33.9796 17.7096 33.984 18.2413C34.0012 22.2983 34.0185 26.351 33.9883 30.408C33.9753 32.016 34.5928 33.2318 35.8235 34.2341C36.6526 34.9052 37.3651 35.7201 38.1942 36.5306ZM66.0636 13.6875C65.8132 13.9664 65.7009 14.1145 65.5713 14.2409C64.5825 15.1865 63.6282 16.1757 62.5832 17.0473C62.1513 17.409 61.9354 17.7271 61.9354 18.2849C61.9484 21.2437 61.9354 24.2026 61.9354 27.1615C61.9354 29.0005 61.9225 30.8351 61.9527 32.674C61.957 32.9224 62.1557 33.3364 62.337 33.3843C63.5375 33.6894 64.7552 33.9116 66.0593 34.1818V13.6875H66.0636Z" fill="white"/>
<path d="M73.655 18.0845C73.4866 18.3939 73.3786 18.5987 73.2663 18.7992C72.9986 19.2872 72.515 19.4223 72.1177 19.1739C71.8198 18.9865 71.5866 18.5203 71.5304 18.1499C71.457 17.6749 71.7982 17.3306 72.2991 17.3132C73.1023 17.2783 73.9098 17.274 74.7129 17.2958C75.2916 17.3132 75.5118 17.0866 75.5118 16.4983C75.4945 12.3672 75.5247 8.23608 75.4859 4.10497C75.4772 2.98939 75.3261 1.87817 74.7043 0.875901C74.3459 0.300683 74.5229 0.0566517 75.1966 0.0261477C78.0336 -0.108941 80.5165 2.10042 80.5727 4.96343C80.6461 8.68928 80.5943 12.4151 80.5986 16.1366C80.5986 17.274 80.6072 17.2958 81.7515 17.287C83.7379 17.274 85.7631 17.457 87.6674 16.7903C91.1781 15.5657 93.5056 13.1777 93.9979 9.36036C94.1965 7.8003 94.0929 6.18359 93.9849 4.60174C93.9201 3.63869 93.2292 2.92838 92.4995 2.32702C92.3656 2.21808 92.1756 2.18757 91.8863 2.06556C91.951 2.55362 92.0115 2.91967 92.0461 3.28572C92.2188 5.12903 91.1436 6.70652 89.3947 7.17715C87.702 7.63471 85.9272 6.7501 85.1802 5.07674C84.4979 3.54718 85.0679 1.56878 86.5231 0.671089C87.0154 0.370407 87.607 0.122017 88.1727 0.0653671C91.7136 -0.270177 94.8313 0.601366 97.2322 3.43388C98.8256 5.31641 99.3481 7.55627 99.3653 9.95301C99.3826 12.6984 99.3437 15.4437 99.3437 18.1891C99.3351 27.5015 99.3265 36.8139 99.3265 46.1264C99.3265 47.011 99.2833 47.9043 99.4128 48.7715C99.5381 49.6038 99.7928 50.4361 100.112 51.2162C100.393 51.9003 100.35 52.1269 99.5769 52.14C97.4222 52.1792 95.3149 51.0244 94.5635 48.7628C94.2785 47.9 94.2138 46.9369 94.2008 46.0174C94.1663 43.8211 94.3001 41.6205 94.2094 39.4286C94.1706 38.5135 93.8856 37.5286 93.4408 36.7311C92.7585 35.5066 91.5322 34.975 90.1504 34.9532C88.3972 34.9227 86.644 34.9532 84.8952 34.9532C83.8545 34.9532 83.7768 34.7658 84.2388 33.8289C84.4936 33.306 84.7311 32.7133 84.7527 32.1425C84.8477 29.5932 84.8822 27.0396 84.8908 24.486C84.8952 22.9608 84.8261 21.4356 84.757 19.9104C84.744 19.6053 84.5929 19.3047 84.5065 18.9996C83.2543 19.3787 83.1161 19.3177 82.4424 18.1063C82.179 18.3024 81.8984 18.4593 81.6868 18.6859C80.8793 19.5487 80.6029 20.6033 80.6072 21.7755C80.6245 27.4361 80.6288 33.0925 80.6375 38.7531C80.6375 39.8295 80.6029 40.9015 80.6245 41.9778C80.6331 42.5051 80.4345 42.6838 79.9163 42.6925C79.0397 42.7056 78.2409 42.9888 77.6147 43.6468C77.0447 44.2438 76.5222 43.6643 75.9868 43.5728C75.4772 43.49 75.5032 43.076 75.5032 42.6838C75.5075 35.7332 75.5075 28.787 75.5118 21.8365C75.5118 20.734 75.3045 19.6925 74.5532 18.8427C74.3113 18.5682 74.0004 18.359 73.6593 18.0671L73.655 18.0845ZM94.1879 13.9534L93.8683 13.7399C93.7863 13.9142 93.7388 14.1103 93.6222 14.2584C92.7154 15.4307 91.7092 16.4896 90.4095 17.2435C90.1892 17.3698 90.0295 17.7882 90.0251 18.0758C89.9949 22.9477 89.9949 27.8196 89.9776 32.6915C89.9776 33.197 90.1849 33.3844 90.6772 33.4672C91.5581 33.611 92.4347 33.8158 93.2897 34.0729C94.1619 34.3344 94.2224 34.33 94.2224 33.4149C94.2224 27.1573 94.2224 20.8996 94.2224 14.6463C94.2224 14.4153 94.1965 14.1887 94.1835 13.9577L94.1879 13.9534Z" fill="white"/>
<path d="M108.753 25.7454C108.753 32.8397 108.744 39.9297 108.757 47.0241C108.757 48.5231 108.684 50.0396 109.56 51.3905C109.811 51.774 109.621 52.1182 109.146 52.1226C107.207 52.14 105.264 52.1618 103.325 52.1095C102.617 52.0921 102.626 51.896 102.859 51.238C103.165 50.3752 103.433 49.4775 103.567 48.5754C103.688 47.7562 103.623 46.9064 103.623 46.0741C103.623 32.2471 103.627 18.4201 103.627 4.59304C103.627 3.29445 103.519 2.02635 102.824 0.8672C102.518 0.35299 102.677 0.0305194 103.221 0.0392348C105.752 0.0915274 108.304 -0.0174154 110.8 0.300698C114.168 0.732111 117.277 4.04833 117.821 7.42556C117.977 8.38425 118.067 9.36909 118.067 10.3409C118.08 22.7603 118.076 35.1755 118.063 47.5949C118.063 48.924 118.154 50.2139 118.866 51.3862C119.22 51.9701 118.793 52.0834 118.339 52.1182C115.727 52.3274 113.322 50.3403 113.015 47.6952C112.92 46.8672 112.89 46.0262 112.89 45.1938C112.898 32.417 112.924 19.6402 112.929 6.86341C112.929 6.08338 112.881 5.28156 112.713 4.52332C112.376 3.00684 110.903 1.7736 109.388 1.58186C108.952 1.52521 108.757 1.6603 108.757 2.10043C108.757 2.40983 108.749 2.71923 108.749 3.03298C108.749 10.6023 108.749 18.1717 108.749 25.7454H108.753Z" fill="white"/>
<path d="M85.5516 45.1808C84.8564 44.3528 84.2648 44.3354 83.5437 45.1328C82.8657 45.8824 82.2094 46.6537 81.5444 47.4119C81.5184 47.2333 81.5789 47.1156 81.6437 47.0023C82.0971 46.2136 82.0237 45.8954 81.2291 45.4553C80.9657 45.3115 80.6591 45.2374 80.3655 45.1459C79.7782 44.9672 79.3162 45.0762 78.988 45.6645C78.5691 46.4097 78.0682 47.1112 77.658 47.8608C76.3755 50.2009 75.1319 52.5584 73.4003 54.6109C73.0289 55.051 72.6446 55.4824 72.2646 55.9138L72.0703 55.8049C72.1308 55.5478 72.148 55.2689 72.2603 55.0379C73.4953 52.5192 74.7217 49.996 75.9955 47.4991C76.4878 46.5317 76.4835 46.3879 75.4557 46.0262C75.3219 45.9782 75.188 45.9259 75.0498 45.8911C74.3201 45.7037 73.7198 45.8039 73.2967 46.5447C72.8519 47.3291 72.3078 48.0612 71.8242 48.8238C70.1617 51.4297 68.5035 54.0444 66.8324 56.6459C66.6812 56.8812 66.4394 57.0555 66.2408 57.256L65.986 57.1471C66.0681 56.5544 66.0724 55.9356 66.2451 55.3691C67.0656 52.7327 68.2617 50.2837 69.9846 48.1092C70.1271 47.9305 70.2437 47.5427 70.153 47.3945C69.6003 46.5273 67.7737 46.5273 67.208 47.3814C66.6035 48.2965 66.0594 49.2465 65.4678 50.166C65.0749 50.7761 64.6258 51.3295 63.7492 51.6345C63.7492 50.9591 63.7794 50.4405 63.7449 49.9263C63.6412 48.3575 61.5124 47.0154 60.1306 47.7344C59.2281 48.205 58.3299 48.8108 57.6433 49.5559C56.119 51.2075 54.9704 53.1423 54.1845 55.2645C53.5756 56.9161 52.3751 58.0883 51.2092 59.3041C51.1229 59.3956 50.9761 59.4305 50.6824 59.5743C50.7558 59.0993 50.7515 58.742 50.8724 58.4369C51.2913 57.3998 51.6497 56.3147 52.2283 55.3735C53.1999 53.8003 54.2967 52.3013 55.4065 50.8197C55.7908 50.3054 55.7606 49.9743 55.3892 49.5167C54.6638 48.619 53.7613 48.6452 52.7465 48.8282C51.1661 49.1071 49.5727 49.3337 47.9793 49.4906C46.917 49.5951 46.7443 49.7956 47.2106 50.7935C47.2711 50.9242 47.3834 51.0419 47.3963 51.177C47.4352 51.5474 47.5863 52.0093 47.4265 52.2795C46.0577 54.5934 44.6327 56.8769 43.2163 59.1603C43.0954 59.3564 42.9011 59.5133 42.7413 59.6876L42.5729 59.5743C42.6938 59.2518 42.7931 58.9163 42.9443 58.6069C43.4409 57.5785 43.9634 56.5631 44.4643 55.5347C44.5463 55.3691 44.6715 55.0597 44.6197 55.0248C44.1793 54.6937 43.7388 54.3233 43.2336 54.1402C42.845 53.9964 42.4304 54.0836 42.0634 54.5281C40.4959 56.4324 38.8809 58.2975 37.2313 60.1277C36.8082 60.594 36.2209 61.1954 35.5127 60.7814C34.8304 60.3805 35.0593 59.5874 35.1457 58.9424C35.4307 56.781 36.2813 54.8113 37.3307 52.9331C38.9975 49.9568 40.9666 47.2158 43.7993 45.2505C44.5161 44.7537 45.4143 44.4966 46.252 44.2003C46.7918 44.0086 46.9386 44.3179 46.7745 44.8147C46.7313 44.9498 46.6752 45.0849 46.6147 45.2113C45.492 47.4773 44.0195 49.4949 42.167 51.1901C41.6272 51.6868 40.8068 51.8655 40.1116 52.1923C39.9906 52.249 39.8654 52.2969 39.5459 52.432C39.9518 52.8721 40.2325 53.3341 40.6384 53.5824C41.7136 54.2492 42.6679 53.735 43.484 53.0334C45.2113 51.5474 46.619 49.7782 47.664 47.7518C48.1045 46.8977 48.4672 45.9521 48.6183 45.0065C48.8947 43.3113 47.9706 42.3178 46.2606 42.2829C45.0256 42.2568 43.8684 42.5967 42.8061 43.2242C38.4836 45.7865 35.5429 49.5734 33.5566 54.1359C32.8139 55.8441 32.3561 57.6525 32.4382 59.5612C32.4857 60.6289 32.8052 61.5745 33.5782 62.3327C34.9125 63.6488 36.0913 63.6226 37.3566 62.2543C37.8229 61.7488 38.2893 61.2389 38.7643 60.7378C38.8938 60.5984 39.0622 60.4938 39.2091 60.3718C39.2609 60.6332 39.222 60.8119 39.1529 60.9818C38.5613 62.4373 37.9179 63.8754 37.3782 65.3483C36.7607 67.0347 37.5293 68.464 39.2263 68.9477C39.6538 69.0698 39.8611 68.9826 39.9561 68.4858C40.2109 67.1785 40.5175 65.8799 40.8327 64.59C40.8888 64.3591 41.0788 64.1412 41.2559 63.9625C42.0418 63.1433 43.0004 62.446 43.605 61.5135C45.7079 58.2844 47.6943 54.9813 49.7152 51.6999C50.2074 50.8981 51.0883 50.5146 52.1204 50.7499C51.464 51.6738 50.7861 52.554 50.1858 53.4822C49.1452 55.1033 48.1477 56.7505 47.6511 58.6505C47.0681 60.8816 48.0311 62.4547 50.1556 62.7162C50.6781 62.7816 51.0063 62.616 51.2567 62.1541C51.6454 61.4438 52.0642 60.7509 52.4961 60.0667C52.699 59.7399 52.9581 59.4479 53.2517 59.0644C53.3942 59.3738 53.4979 59.5351 53.5411 59.7137C53.8736 61.0254 54.8495 61.5658 56.0413 61.8447C57.4965 62.1846 58.3429 61.2215 59.159 60.289C60.5797 58.6679 61.6592 56.8246 62.6049 54.8898C62.8251 54.4366 63.1447 54.0356 63.421 53.6129C63.5031 53.6565 63.5894 53.7001 63.6715 53.748C63.6283 53.9703 63.6024 54.1969 63.5419 54.4104C63.3347 55.1207 63.0842 55.8136 62.9115 56.5326C62.5056 58.1885 63.4469 59.9229 65.0317 60.5112C65.9169 60.8424 66.0378 60.7988 66.5128 59.9796C67.316 58.6025 68.1192 57.2255 68.9267 55.8485C69.0217 55.6872 69.1555 55.5478 69.2721 55.3996C69.3585 55.6262 69.3067 55.7787 69.2851 55.9356C69.1599 56.7766 68.9742 57.6177 68.9396 58.4674C68.9051 59.2998 69.4103 59.8881 70.1099 60.0536C70.8871 60.2367 71.3189 59.9883 71.7983 59.1255C72.0617 58.6548 72.3553 58.2016 72.636 57.7397L72.8044 57.8356C72.7655 57.9881 72.7396 58.145 72.6835 58.2888C72.2344 59.4174 71.768 60.5373 71.3233 61.666C70.9778 62.5419 71.2067 63.0648 72.0271 63.3742C73.1585 63.7969 73.3787 63.7359 73.7458 62.7075C75.4687 57.8661 77.9862 53.504 81.3716 49.6561C81.9632 48.9851 82.5678 48.327 83.1637 47.6647L83.4271 47.791C83.3796 48.1309 83.4055 48.497 83.2803 48.802C82.8139 49.9176 82.3864 51.0637 81.7862 52.1052C80.6591 54.0662 79.2514 55.8092 77.2435 56.9248C76.6519 57.256 76.6907 57.5305 77.0146 57.9707C77.9171 59.1952 79.3766 59.2954 80.5166 58.1057C83.0687 55.4432 84.9341 52.3449 86.1734 48.8587C86.6527 47.5078 86.4498 46.2746 85.5214 45.1808H85.5516ZM59.7074 55.3735C58.8265 56.598 57.9283 57.8138 56.974 58.986C56.797 59.2039 56.3479 59.1952 56.024 59.2867C56.0024 58.9555 55.8642 58.5764 55.9765 58.2975C56.5595 56.8507 57.1985 55.4214 57.8333 53.9964C57.9154 53.8134 58.0751 53.6609 58.1788 53.5258C58.7315 53.9834 59.2151 54.345 59.6383 54.7634C59.7549 54.8767 59.7981 55.2427 59.7031 55.3735H59.7074ZM60.9856 52.4277C60.8647 52.846 60.5926 52.8809 60.3163 52.5584C59.9017 52.0747 60.2601 50.4144 60.856 50.2183C60.9769 50.1791 61.236 50.5582 61.3742 50.6933C61.2144 51.4123 61.1281 51.9309 60.9856 52.4277Z" fill="white"/>
<path d="M5.95452 27.8719C5.95452 35.11 5.95452 42.3438 5.95452 49.582C5.95452 50.6148 6.20929 50.7847 7.20679 50.4753C8.8736 49.9567 10.0525 48.5013 10.1086 46.7233C10.1734 44.6708 10.1388 42.6184 10.1604 40.5659C10.1777 38.8141 10.6959 37.2889 12.0993 36.1428C13.0795 35.341 14.2022 34.9575 15.4372 34.9357C16.2361 34.9226 16.3052 35.2277 16.0461 35.9598C15.7006 36.9315 15.4027 37.9556 15.3206 38.9797C15.1781 40.714 15.3163 42.4702 15.1565 44.2002C14.7895 48.1962 11.2443 51.6998 7.27588 51.9918C5.12975 52.1487 2.97067 52.14 0.820224 52.1661C-0.095227 52.1792 -0.142727 51.9134 0.185454 51.0549C0.517952 50.1834 0.82886 49.2334 0.833178 48.3182C0.872042 36.4478 0.846133 24.5774 0.863406 12.707C0.863406 11.0162 0.884997 9.30802 1.09659 7.63902C1.55431 4.0657 4.58998 0.80177 8.1352 0.326779C10.6268 -0.00876457 13.1831 0.104536 15.7093 0.0391702C16.2361 0.0260971 16.4131 0.379072 16.154 0.80177C15.3595 2.08294 15.3034 3.51662 15.2774 4.94595C15.2386 7.42549 15.3163 9.91374 15.2213 12.3889C15.1306 14.7682 13.7445 16.2499 11.5811 16.982C10.9981 17.178 10.3245 17.1475 9.69405 17.1563C9.3011 17.1606 9.1111 16.8643 9.33133 16.52C10.2554 15.0602 10.1906 13.4217 10.195 11.8006C10.2036 8.6718 10.1691 5.54296 10.1518 2.41412C10.1475 1.53387 10.1043 1.499 9.26224 1.65588C7.77679 1.93042 6.45975 3.17672 6.18338 4.66706C6.03225 5.48195 5.95884 6.32299 5.95884 7.15531C5.94157 14.0579 5.9502 20.9605 5.9502 27.8632H5.96316L5.95452 27.8719Z" fill="white"/>
<path d="M24.7001 31.6849C25.8919 31.2491 26.4921 31.3929 26.7339 32.0728C26.9412 32.648 26.613 33.0402 25.4514 33.4977C25.7364 33.8681 25.9351 34.2865 26.2676 34.5174C27.1571 35.1406 28.0941 35.6984 29.0355 36.2518C30.603 37.1713 32.0884 38.1692 32.9996 39.8295C33.7466 41.1847 33.9366 42.6663 34.01 44.1785C34.0316 44.6535 34.0446 45.1328 34.0446 45.6122C34.0532 48.7497 34.0446 48.7454 32.3562 51.3208C32.028 51.8263 31.6912 51.6781 31.3414 51.4341C29.7825 50.3403 28.9189 48.8412 28.8671 46.9151C28.8325 45.5076 28.8714 44.0957 28.8585 42.6881C28.8498 41.8515 28.8498 41.0148 28.7764 40.1825C28.69 39.1845 28.3878 38.2781 27.5198 37.6419C26.4748 36.8793 25.3823 36.1516 24.9289 34.7963L24.7346 34.8704C24.7173 35.1101 24.6871 35.3541 24.6871 35.5938C24.6828 39.629 24.6785 43.6643 24.6828 47.6995C24.6828 48.9981 24.8339 50.2706 25.5551 51.4036C25.8185 51.8132 25.5982 52.0354 25.2182 52.1313C24.9678 52.1967 24.7044 52.2185 24.4453 52.2185C22.813 52.2097 21.1764 52.2054 19.5442 52.1705C18.5078 52.1487 18.4992 51.9657 18.8835 51.0419C19.2419 50.1834 19.5269 49.2203 19.5312 48.3009C19.5787 38.9884 19.5658 29.6717 19.5658 20.3592C19.5658 15.4394 19.5658 10.5195 19.5571 5.59966C19.5528 3.5646 20.261 1.92175 22.0228 0.827962C22.9383 0.26146 23.9314 -0.0130763 25.0023 0.0261431C25.6803 0.0522894 25.8185 0.274533 25.4903 0.875897C24.9117 1.93046 24.7001 3.06783 24.6957 4.24877C24.6871 13.1341 24.6957 22.0152 24.6957 30.9005C24.6957 31.1271 24.6957 31.3581 24.6957 31.6806L24.7001 31.6849Z" fill="white"/>
<path d="M8.62723 36.0862C8.59268 35.6984 8.55382 35.4979 8.55382 35.2931C8.5495 30.3558 8.55382 25.4142 8.53223 20.4769C8.53223 19.8668 8.74382 19.6751 9.32677 19.7274C12.3883 19.9976 14.8281 18.8951 16.5813 16.3197C16.6461 16.2238 16.7022 16.1148 16.7626 16.0103L16.944 16.08C16.9742 16.2717 17.0261 16.4635 17.0261 16.6552C17.0304 21.6884 17.0261 26.7259 17.0347 31.759C17.0347 32.2253 16.9872 32.5478 16.374 32.465C13.4765 32.0728 11.1447 33.123 9.29654 35.3585C9.12382 35.5677 8.9295 35.7594 8.63154 36.0819L8.62723 36.0862Z" fill="white"/>
<path d="M56.9182 46.9893C56.8794 46.6015 56.8405 46.3749 56.8405 46.1439C56.8405 44.305 56.8146 42.466 56.8534 40.6271C56.9139 37.6115 59.1248 35.4196 62.113 35.3586C62.9075 35.3411 63.1191 35.6636 62.7046 36.3478C62.0568 37.4154 61.9662 38.6138 61.9273 39.7991C61.8755 41.3243 61.9273 42.8538 61.9618 44.3834C61.9791 45.0153 61.7848 45.2985 61.1112 45.2637C60.0618 45.207 59.1162 45.4859 58.3 46.2267C57.9503 46.5448 57.4623 46.7017 56.9225 46.9893H56.9182Z" fill="white"/>
<path d="M88.4537 50.3011C88.5962 49.7607 88.743 49.2247 88.8812 48.6844C89.4252 46.5404 88.4321 43.8517 86.6746 42.7492C86.3766 42.5618 86.0441 42.3875 85.7073 42.3221C84.9948 42.1827 84.8394 41.7512 84.848 41.0932C84.8869 38.2781 86.2687 36.2431 88.7127 35.5851C89.2698 35.4326 89.883 35.4587 90.4702 35.4413C90.9582 35.4282 91.0618 35.7812 90.8632 36.1211C89.6627 38.191 89.9952 40.4657 89.9564 42.6925C89.9262 44.501 89.9391 46.3181 89.8312 48.1222C89.7793 49.0068 89.3389 49.7869 88.6566 50.3751L88.445 50.3054L88.4537 50.3011Z" fill="white"/>
<path d="M83.3537 7.22949C84.3555 8.43658 85.5214 9.2994 87.0112 9.6916C88.4966 10.0794 89.9 9.81797 91.2948 9.22968L91.5064 9.43885C91.2689 10.0271 91.1048 10.6634 90.7766 11.1994C89.1919 13.8009 86.7953 14.8032 83.8503 14.6855C83.4789 14.6725 83.1982 14.5635 83.1982 14.1147C83.2026 11.9184 83.2069 9.7221 83.2155 7.52582C83.2155 7.46481 83.2673 7.4038 83.3537 7.22949Z" fill="white"/>
<path d="M27.4285 7.31226C29.5963 9.91817 32.2519 10.5065 35.5553 9.13814C35.3524 9.78308 35.2833 10.2406 35.0717 10.6241C33.8065 12.9337 32.0231 14.485 29.2681 14.5896C28.7715 14.6071 28.2749 14.7116 27.7826 14.6899C27.6056 14.6811 27.2817 14.4371 27.2817 14.302C27.2601 12.0622 27.2774 9.81794 27.2904 7.57808C27.2904 7.51707 27.3508 7.45606 27.4285 7.31226Z" fill="white"/>
<path d="M55.3762 7.26855C57.5352 9.87882 60.1823 10.5717 63.3389 9.20774L63.4641 9.42126C63.1964 10.0531 62.9977 10.7373 62.6436 11.3125C61.0545 13.8923 58.645 14.8205 55.7432 14.6505C55.5489 14.6374 55.2164 14.3368 55.2121 14.1668C55.1905 11.9487 55.2121 9.73066 55.2337 7.51694C55.2337 7.46029 55.2984 7.39929 55.3805 7.26855H55.3762Z" fill="white"/>
</g>
<defs>
<clipPath id="clip0_249_1086">
<rect width="119" height="69" fill="white"/>
</clipPath>
</defs>
</svg>
