<?xml version="1.0" encoding="utf-8"?>
<!-- Generator: Adobe Illustrator 26.3.1, SVG Export Plug-In . SVG Version: 6.00 Build 0)  -->
<svg version="1.1" id="Layer_1" xmlns="http://www.w3.org/2000/svg" xmlns:xlink="http://www.w3.org/1999/xlink" x="0px" y="0px"
	 viewBox="0 0 853.6 726.2" style="enable-background:new 0 0 853.6 726.2;" xml:space="preserve">
<style type="text/css">
	.st0{fill:#F8F8F8;}
</style>
<path class="st0" d="M246.1,399.8c-1.2-7.9-1.7-15.7-1.4-23.5c0.6-14.6,3.5-28.8,6.7-43c1-4.4,1.9-8.7,3-13.1
	c0.3-1.2,0.1-2.3-0.5-3.4c-13.8-24.6-23.6-50.8-29.8-78.4c-4.6-20.4-6.7-41-5.9-61.9c0.7-17.4,2.8-34.6,7.6-51.3
	c0.8-2.8,1.9-5.6,3.1-8.3c2-4.4,3.5-5.9,7.8-8.3c0.2-2.9,0.4-5.9,0.7-8.9c0.5-5.7,1.5-11.4,3.4-16.9c0.8-2.2,1.8-4.4,3-6.5
	c0.8-1.4,1.8-2.7,2.9-3.8c4-3.9,8.7-3.6,12.2,0.7c2.1,2.6,3.2,5.7,3.8,9c0.8,4.1,0.4,8.1-0.2,12.2c-0.8,5.8-1.4,11.6-2,17.4
	c-0.1,0.7,0.3,1.6,0.8,2.1c1.2,1.3,1.6,2.8,1.5,4.6c-0.8,11.5-1.6,23-2.1,34.5c-0.7,15.1-0.9,30.2,0,45.3
	c0.7,12.4,2.1,24.7,4.5,36.9c5.3,26.9,15.4,51.7,31.3,74.1c1,1.4,1.1,2.6,0.7,4.2c-1.5,5.6-3.1,11.2-4.4,16.9
	c-1.7,7.6-1.3,15.2-0.2,22.9c0.2,1.2,0.9,1.6,1.9,1.8c4.7,0.7,9.3,1.6,14,2c8.2,0.6,16.3-0.3,24.4-1.6c3.2-0.5,6.5-1,9.7-1.6
	c1.1-0.2,2,0,3,0.6c16.2,9.5,33.7,15.8,52.1,19.3c14.1,2.7,28.4,3.5,42.7,2.8c18.3-0.9,36.1-4.9,53.6-10c2.2-0.6,4.3-1.3,6.5-1.9
	c7.1-1.7,13.6-5.1,20.2-8.1c20.6-9.7,38.4-23.1,53.3-40.5c18.7-21.8,30.9-46.7,36.2-74.9c2.5-13,3.8-26.2,2.9-39.4
	c-2.6-40.3-15.6-76.6-43.3-106.7c-21.9-23.8-49-38.6-80.7-45.1C475.6,47,462,46.1,448.4,47c-24.4,1.5-47.6,7.7-68.7,20.1
	c-24.8,14.6-43.7,35-55.1,61.8c-5.8,13.5-9.9,27.5-11.4,42.2c-1.2,11.1-1,22.2,0.2,33.3c1.7,14.8,5.2,29.1,11.2,42.7
	c2.2,5,4.9,9.9,7.5,14.7c2,3.7,3.7,7.5,4.1,11.7c0.2,2,0.3,4.2,0,6.2c-0.4,2.5,0,4.5,1.7,6.4c2.1,2.4,4.1,4.9,6.2,7.3
	c2,2.3,4.1,4.5,6,6.9c3,3.8,5.3,8,6.3,12.8c0.4,1.9,0.5,4,0.3,5.9c-0.4,3.7-3,5.8-6.7,5.7c-2.5-0.1-4.9-0.9-7-2.1
	c-5.3-2.9-10.3-6.1-14.2-10.9c-2.9-3.5-5.8-7-8.5-10.7c-1.3-1.7-2.8-2.8-4.8-3.2c-0.9-0.2-1.9-0.3-2.8-0.6
	c-4.2-1.1-7.5-3.5-10.1-6.9c-1.3-1.7-2.5-3.5-3.6-5.4c-11.3-19.9-18.9-41.2-22.8-63.8c-2-11.7-3.2-23.4-3.3-35.3
	c-0.3-28,5.7-54.6,17.1-80c9.2-20.4,21.5-38.7,37.8-54.1c5.2-5,10.9-9.4,16.8-13.5c4.4-3.1,8.8-6.1,13.3-9
	c11.6-7.4,24.2-12.6,37.2-17c14.9-5,30.2-8.4,45.9-9.8c37-3.2,71.7,4.3,104.2,22.2c10.9,6,21.2,12.9,30.8,20.8
	c8.5,7,16,14.9,23.1,23.3c24,28.1,40.4,60.1,48.9,96.1c4.7,19.7,6.5,39.6,5.4,59.7c-2.4,43-17.2,81.2-43.7,115.1
	c-23.5,30-53.3,51.2-88.8,64.8c-18.1,6.9-36.9,11.5-56.1,14.1c-15,2-30,2.5-45,1.7c-29.7-1.7-57.9-8.6-84.3-22.7
	c-1.3-0.7-2.5-0.8-3.9-0.6c-9.4,1.5-18.8,2.9-28.2,4.4c-11.7,1.8-23.5,2.8-35.4,2.1C260.5,402.9,253.3,401.8,246.1,399.8z"/>
<path class="st0" d="M463.4,272.1c-33.1,0-66.2,0-99.3,0c-9,0-15.6-4-20.7-11c-3.8-5.3-5.5-11.5-6.4-17.9c-1.5-11.8-0.1-23.5,2.7-35
	c1.5-6.3,3.5-12.5,5.5-18.6c1-2.9,2.6-5.7,4.3-8.2c3.3-4.8,8.1-6.4,13.7-5.1c2.8,0.6,5.5,1.7,8.1,2.8c8.4,3.6,17,6,26.1,6.6
	c14.4,1,27.8-2.2,40.2-9.4c4.5-2.6,8.7-5.7,12.6-9.1c1.3-1.1,2.7-2.3,4.2-3.2c3.7-2.4,7.5-2.6,11.4-0.6c2.3,1.2,4.6,2.6,6.7,4.2
	c11.5,8.6,24.2,14.7,37.6,19.2c7.3,2.4,14.8,4.2,22.2,6c8.7,2.1,17.5,3.8,26.2,5.9c4.8,1.1,9.5,2.7,14.2,4.2c2,0.6,3.9,1.5,5.7,2.5
	c11.2,5.5,16.9,14.9,18.7,27c0.8,5.5,0.5,11.1-1.3,16.4c-4.3,12.6-13.1,20.2-26.3,22.3c-4.7,0.8-9.5,0.9-14.3,0.9
	c-30.6,0.1-61.3,0-91.9,0C463.4,271.9,463.4,272,463.4,272.1z"/>
<path class="st0" d="M567.8,625.4c-11,0-21.7,0-32.3,0c-0.5-1.8-0.7-145.9-0.2-149.6c1.7-0.5,29.3-0.6,32.5-0.1
	c0,18.7,0,37.4,0,56.1c0.2,0.1,0.3,0.1,0.5,0.2c0.7-0.8,1.3-1.5,2-2.2c9.4-10.1,20.8-13.2,34-9.8c6.7,1.7,11.8,5.9,15.5,11.7
	c3.6,5.5,5.5,11.7,6.4,18.2c0.6,4.3,1,8.8,1,13.1c0.1,20.1,0,40.1,0,60.2c0,0.7,0,1.4,0,2.3c-10.9,0-21.7,0-32.7,0c0-1,0-2,0-2.9
	c0-18.7,0-37.4,0-56.1c0-3.1-0.5-6.2-0.8-9.3c-0.1-1-0.5-2-0.8-3c-1.9-5.4-5.5-8.3-10.7-8.5c-5.5-0.2-10.3,2.6-12.7,7.4
	c-1.3,2.8-1.8,5.8-1.8,8.8c0,7.4,0,14.9,0,22.3c0,12.8,0,25.6,0,38.4C567.8,623.4,567.8,624.2,567.8,625.4z"/>
<path class="st0" d="M116.8,475.5c10.9,0,21.6,0,32.5,0c0,18.8,0,37.5,0,56.3c1.2-0.2,1.6-1,2.1-1.7c4.8-5.4,10.6-9.2,17.7-10.8
	c6.1-1.3,12.1-1.1,18,0.8c6.4,2.1,11.2,6.3,14.8,12c3.3,5.4,5.2,11.3,6,17.6c0.6,4.6,1,9.2,1,13.8c0.1,19.8,0,39.5,0,59.2
	c0,0.8,0,1.6,0,2.5c-10.9,0-21.6,0-32.6,0c0-0.9-0.1-1.8-0.1-2.7c0-18.8,0-37.6,0-56.4c0-3.1-0.5-6.2-0.9-9.3c-0.1-1-0.5-2-0.8-3
	c-1.7-5-5-8.1-10.5-8.5c-5.5-0.4-10.4,2.4-12.8,7.2c-1.1,2.3-1.7,4.8-1.8,7.4c-0.1,1.3-0.1,2.7-0.1,4.1c0,19.3,0,38.7,0,58
	c0,1,0,1.9,0,2.8c-1.9,0.5-29.8,0.6-32.6,0.1C116.8,575.4,116.8,525.5,116.8,475.5z"/>
<path class="st0" d="M512.3,485.9c-2.1,9.1-4.1,17.8-6.1,26.8c-0.9-0.4-1.6-0.6-2.3-1c-8.1-3.6-16.6-5.2-25.5-4.8
	c-3.5,0.2-6.8,0.9-9.9,2.7c-5.1,2.9-7.4,7.8-6.2,13.3c0.5,2.4,1.8,4.5,3.7,6c2,1.7,4.2,3.3,6.5,4.5c4.6,2.5,9.4,4.8,14.2,7
	c5.3,2.5,10.4,5.3,15,9c7.7,6.1,13.3,13.6,15.3,23.3c3.9,18.8-2.9,39.6-25.5,49.2c-6.2,2.6-12.6,4.1-19.2,4.7
	c-13,1.2-25.7-0.2-38.1-4.3c-2.1-0.7-4.1-1.7-6.5-2.6c1.9-9.2,3.7-18.3,5.6-27.5c1,0.4,1.8,0.7,2.5,1c9.7,4.2,19.9,6.5,30.5,6.2
	c3.5-0.1,6.8-0.7,10.1-2c10.6-4.3,10.9-16.6,4.6-22.5c-2.2-2-4.7-3.8-7.3-5.4c-3.1-1.8-6.4-3.3-9.6-4.9c-6.4-3-12.5-6.4-18.1-10.8
	c-4.3-3.4-8-7.3-11.1-11.9c-8.8-13.3-6.6-31.6,1.6-43.2c6.2-8.8,14.9-14.1,25.1-17c9.3-2.7,18.7-3,28.3-2.1c6.6,0.6,13.1,2,19.3,4.5
	C510,484.9,511.1,485.4,512.3,485.9z"/>
<path class="st0" d="M99.7,622.5c-4.6,1.9-9,2.9-13.5,3.6c-8.1,1.3-16.2,1.7-24.4,1c-17.4-1.5-32.6-7.8-43.9-21.6
	c-7-8.4-11.2-18.2-13.5-28.8c-3.7-17.5-3.3-34.9,2.6-51.8c8.8-25,26.7-39.6,52.7-44.1c12.1-2.1,24.2-1.5,36.1,1.9
	c1.9,0.5,3.7,1.4,5.6,2.1c-2,9-4,17.7-5.9,26.4c-3.3-1-6.4-2.1-9.6-2.8c-6.8-1.5-13.6-1.8-20.4-0.2c-10.1,2.3-17.6,8.1-22.6,17.1
	c-3,5.4-4.7,11.2-5.5,17.2c-1.3,9.7-1.1,19.3,1.3,28.8c1,4,2.5,7.8,4.6,11.3c5.4,9.1,13.4,14.4,23.8,16.2c8.7,1.4,17.4,0.5,25.9-1.8
	c0.8-0.2,1.7-0.4,2.8-0.7C97,605,98.3,613.7,99.7,622.5z"/>
<path class="st0" d="M742.5,573c-0.1,8.3-1.1,16.8-4.4,24.8c-7,17.3-20,26.8-38.3,29.3c-8.4,1.1-16.6,0.3-24.6-2.6
	c-14-5.1-22.9-15.1-27.6-29c-2.8-8.4-3.7-17.2-3.2-26c0.4-7.4,1.6-14.6,4.5-21.5c7.1-17,19.9-26.5,38.1-29
	c8.2-1.1,16.3-0.6,24.1,2.2c13.7,4.8,22.5,14.5,27.4,27.9C741.5,556.7,742.5,564.6,742.5,573z M677.4,575.1
	c0.3,2.5,0.6,7.1,1.4,11.5c0.8,4.7,2.4,9.1,5.6,12.8c5.3,5.9,13.6,5.6,18.5-0.5c2-2.5,3.3-5.3,4.1-8.3c3.2-11.7,3.2-23.3,0-35
	c-0.8-3.1-2.2-6-4.2-8.5c-2.9-3.6-6.6-5.2-11.2-4.5c-3.4,0.5-5.9,2.3-8,4.9c-1.9,2.5-3.2,5.4-4,8.4
	C678,561.4,677.6,567.3,677.4,575.1z"/>
<path class="st0" d="M286.3,625.3c-0.6-3.3-1.3-6.5-2-10c-0.6,0.5-1,0.8-1.3,1.1c-4.8,5.7-11,9-18.2,10.3
	c-6.6,1.3-13.2,1.2-19.6-1.3c-11.3-4.4-17.5-13-19.5-24.7c-0.9-5-0.5-10,0.7-15c2-8.5,6.9-15,14-19.9c6.1-4.2,13-6.7,20.3-8.3
	c5.8-1.2,11.7-1.9,17.6-2c0.8,0,1.6-0.1,2.3-0.1c1.1-3.8-1.2-9.8-5.8-11.8c-2.7-1.3-5.6-1.8-8.6-1.9c-9.1-0.3-17.8,1.6-25.9,5.9
	c-0.6,0.3-1.1,0.6-2,1c-1-3.6-2-7-3-10.4c-1-3.5-1.9-6.9-3-10.6c0.8-0.4,1.5-0.9,2.2-1.2c6.9-3.3,14.2-5.4,21.7-6.6
	c7.7-1.2,15.4-1.5,23.2-0.6c4.6,0.6,9.1,1.7,13.4,3.6c9.8,4.5,15.7,12.2,18.7,22.4c1.7,5.8,2.4,11.7,2.4,17.8c0,13.5,0,27,0,40.5
	c0,6.9,0.3,13.7,1.4,20.5c0.1,0.4,0,0.8,0,1.3C305.7,625.3,296.1,625.3,286.3,625.3z M281.7,576c-5.4,0-10.8,0.5-15.9,2.8
	c-8.5,3.8-9.9,11.4-8.2,17.8c1.1,3.9,3.6,6.5,7.7,7.4c7.5,1.7,15.5-3.3,16.5-10.9c0.7-5.5,0.3-11.1,0.3-16.7
	C282,576.3,282,576.2,281.7,576z"/>
<path class="st0" d="M846.5,584.7c-19.7,0-39.1,0-58.9,0c0.1,1.1,0.1,2,0.3,2.9c1.2,5.5,4.5,9.4,9.5,12c4.7,2.5,9.8,3.3,15.1,3.3
	c7.9,0.1,15.6-1.1,23.2-3.3c0.6-0.2,1.2-0.4,1.8-0.5c0.1,0,0.3,0,0.8,0.1c1.4,7.3,2.8,14.7,4.2,22.5c-3.2,1-6.2,2-9.3,2.8
	c-10.9,2.6-21.9,3.4-33.1,2.5c-4.6-0.4-9.2-1.4-13.5-3c-13.5-4.9-22.8-14.1-27.1-27.8c-5.3-16.7-4.5-33.3,2.5-49.4
	c4.9-11.2,12.7-19.7,24.1-24.5c10.4-4.4,21.1-4.9,31.9-2c10,2.7,17.4,8.9,22.4,17.9c3.9,7,5.8,14.7,6.7,22.6
	c0.7,6.8,0.7,13.7,0.1,20.6c-0.1,0.6-0.1,1.3-0.2,1.9C846.9,583.7,846.7,584.1,846.5,584.7z M817.6,562c0.1-5.2-0.7-10-3-14.3
	c-4.5-8.4-15.1-8.2-20.2-3.1c-4.8,4.8-6.4,10.8-7,17.5C797.4,562,807.4,562,817.6,562z"/>
<path class="st0" d="M395.3,520.5c0,8.1,0,15.7,0,23.6c-7.2,0-14.3,0-21.5,0c-0.1,1-0.2,1.6-0.2,2.3c0,12.5,0,25.1,0,37.7
	c0,2.6,0.3,5.3,0.9,7.8c1.3,5.7,4.7,8.5,10.5,8.5c2.9,0,5.7-0.3,8.8-0.5c0,8.2,0,16.5,0,25c-1.9,0.4-3.9,0.9-5.9,1.2
	c-7.3,1.1-14.6,1.6-22,0.4c-11.7-2-19.2-8.8-22.6-20.1c-1.4-4.6-2-9.4-2-14.2c0-15,0-29.9-0.1-44.8c0-1,0-1.9,0-3.2
	c-4.3,0-8.4,0-12.7,0c0-8,0-15.7,0-23.7c4.2,0,8.3,0,12.6,0c0-6.5,0-12.7,0-19.2c10.8-3,21.4-6,32.4-9.1c0,9.5,0,18.8,0,28.3
	C380.9,520.5,388,520.5,395.3,520.5z"/>
<path class="st0" d="M453.6,725.2c-3.1,0-5.8,0-8.9,0c0-14.2,0-28.3,0-42.6c2.3,0,4.8,0,7.3,0c0.2,1.9,0.4,3.7,0.7,5.8
	c6.9-9.6,19.7-9,24.1,0.6c0.6-0.7,1.1-1.3,1.6-2c3.3-4.1,7.6-5.9,12.9-5.5c4.5,0.4,7.7,2.7,9.8,6.7c1.6,3,2.2,6.4,2.3,9.7
	c0.1,8.7,0,17.4,0,26.1c0,0.3-0.1,0.6-0.2,1c-2.8,0-5.6,0-8.6,0c0-0.9-0.1-1.7-0.1-2.6c0-7.4,0.1-14.7-0.1-22.1c0-2.2-0.3-4.5-1-6.6
	c-1.9-5.6-8.2-6.8-12.2-2.5c-2,2.1-2.7,4.6-2.7,7.5c0,7.8,0,15.7,0,23.5c0,0.9,0,1.7,0,2.8c-3,0-5.9,0-9,0c0-1,0-1.8,0-2.7
	c0-7.6,0.1-15.2,0-22.8c0-2-0.2-4-0.9-5.9c-1.7-4.9-6.8-6.4-11-3.3c-2.5,1.8-3.7,4.3-4,7.4c-0.1,1.3-0.1,2.6-0.1,3.8
	c0,6.9,0,13.8,0,20.6C453.6,723.2,453.6,724,453.6,725.2z"/>
<path class="st0" d="M626.9,725.2c-3,0-5.7,0-8.8,0c0-1,0-1.8,0-2.7c0-7.1,0.1-14.2,0-21.3c0-2.1-0.2-4.3-0.8-6.4
	c-1.6-6.2-7.7-6.9-11.6-4.7c-2.8,1.6-4.3,4-4.7,7.1c-0.2,1.2-0.2,2.4-0.2,3.6c0,7.2,0,14.4,0,21.6c0,0.9,0,1.7,0,2.8
	c-3.1,0-5.9,0-9,0c0-14.2,0-28.3,0-42.6c2.3,0,4.7,0,7.5,0c0.2,1.8,0.4,3.7,0.6,6c0.7-0.8,1.1-1.3,1.6-1.8c4-4.6,9.1-6.1,15-4.9
	c4.4,0.9,7.3,3.7,9.1,7.8c1.1,2.5,1.6,5.2,1.6,7.9c0,8.8,0,17.6,0,26.4C627.1,724.3,627,724.7,626.9,725.2z"/>
<path class="st0" d="M370.2,725.2c-2.6,0-5.1,0-7.8,0c-0.2-1.5-0.5-2.9-0.8-4.7c-0.7,0.7-1.2,1.1-1.7,1.5c-4.3,3.9-9.2,4.9-14.7,3.4
	c-3.5-1-5.9-3.3-7.3-6.7c-2.5-6-0.5-12.9,4.8-16.6c3.6-2.5,7.6-3.5,11.9-4.1c2-0.2,4-0.4,5.9-0.5c0.9-5.2-1.5-8.5-6.5-9.3
	c-3.4-0.5-6.7,0.2-9.8,1.6c-0.7,0.3-1.4,0.7-2.4,1.1c-0.6-2-1.2-3.8-1.9-5.9c1.3-0.6,2.4-1.3,3.5-1.7c5.1-1.9,10.4-2.5,15.8-1.2
	c4.7,1.1,8,4.1,9.4,8.7c0.7,2.3,1.1,4.8,1.1,7.3c0.2,5.2,0,10.4,0.1,15.6C369.9,717.5,370,721.2,370.2,725.2z M361,703.8
	c-4-0.1-7.6,0.2-10.9,1.9c-3.8,1.9-5.3,6.3-3.6,10.2c0.7,1.7,2,2.8,3.8,3.3c4.9,1.4,10.2-2.3,10.7-7.5
	C361.2,709.3,361,706.7,361,703.8z"/>
<path class="st0" d="M313.4,705.9c-9.1,0-18,0-26.8,0c-1,3.9,1.3,9,4.9,11.3c1.9,1.2,4,1.9,6.3,2c3.5,0.2,7-0.2,10.4-1.3
	c0.5-0.2,1-0.3,1.8-0.5c0.5,2.1,0.9,4.1,1.5,6.4c-2.1,0.6-4,1.2-5.9,1.7c-3.6,0.8-7.3,1-11,0.5c-7.6-1-13-4.8-15.5-12.1
	c-2.6-7.3-2.2-14.7,1.1-21.7c3.7-8,11.5-11.9,20.2-10.3c4.4,0.8,7.8,3.2,10.1,7C313.4,694,313.9,699.7,313.4,705.9z M304.9,699.4
	c0.3-2.6-0.2-4.8-1.3-6.9c-2.4-4.7-8.5-6.1-12.6-2.8c-3,2.4-4.2,5.8-4.7,9.7C292.6,699.4,298.6,699.4,304.9,699.4z"/>
<path class="st0" d="M565.1,705.9c-8.9,0-17.8,0-26.6,0c-1.1,4.9,2.2,10.5,7,12.3c3.2,1.2,6.4,1.2,9.7,0.7c2.2-0.3,4.3-0.9,6.7-1.5
	c0.5,2,0.9,4,1.4,6.2c-1.3,0.5-2.4,0.9-3.6,1.2c-4.5,1.2-9.1,1.7-13.8,1c-7.3-1.1-12.6-5-15-12.1c-2.5-7.3-2.2-14.7,1.1-21.7
	c3.7-8,11.6-11.9,20.2-10.3c4.1,0.8,7.3,3,9.7,6.5C564.5,692.1,566.3,699.5,565.1,705.9z M556.8,699.4c0.3-2.6-0.3-4.8-1.3-6.9
	c-2.3-4.5-7.9-6-12-3.2c-3.5,2.3-4.7,6-5.3,10.1C544.5,699.4,550.5,699.4,556.8,699.4z"/>
<path class="st0" d="M187,673.5c-5.5,0-10.5,0-15.8,0c-0.6-2.6-0.1-5-0.3-7.6c13.7,0,27.2,0,40.7,0c0.5,1.6,0.6,4.6,0.2,7.5
	c-5.1,0-10.3,0-15.7,0c0,17.4,0,34.5,0,51.8c-3.1,0-6,0-9,0C187,708,187,691,187,673.5z"/>
<path class="st0" d="M418.7,718.5c0.1,2.2,0.3,4.3,0.4,6.8c-4.8,1.1-9.4,1.8-13.8-0.8c-2.6-1.5-3.9-4-4.4-6.9
	c-0.4-1.9-0.5-3.8-0.5-5.7c-0.1-6.5,0-13.1,0-19.7c0-0.9,0-1.7,0-2.9c-2.1,0-4,0-6,0c0-2.4,0-4.4,0-6.8c1.9,0,3.8,0,5.9,0
	c0-2.8,0-5.2,0-7.8c3-0.9,5.8-1.8,8.8-2.8c0.5,3.5,0,6.8,0.3,10.4c3.3,0,6.5,0,9.9,0c0,2.4,0,4.4,0,6.7c-3.2,0.4-6.5,0-9.8,0.3
	c-0.1,0.8-0.2,1.4-0.2,2.1c0,6.4,0,12.8,0,19.2c0,1.4,0.1,2.9,0.5,4.3c0.7,2.6,2.2,3.7,4.8,3.8C415.9,718.7,417.1,718.6,418.7,718.5
	z"/>
<path class="st0" d="M651.6,689.2c0-2.4,0-4.4,0-6.8c1.9,0,3.8,0,5.9,0c0-2.8,0-5.2,0-7.8c3-0.9,5.8-1.8,8.8-2.8
	c0.6,3.5,0,6.8,0.4,10.4c3.3,0,6.5,0,9.9,0c0,2.4,0,4.4,0,6.7c-3.2,0.4-6.4,0-9.8,0.3c-0.1,0.7-0.2,1.3-0.2,1.9c0,6.6,0,13.1,0,19.7
	c0,1.5,0.2,3,0.6,4.5c0.6,2.2,2.2,3.3,4.5,3.3c1.3,0,2.7-0.1,4.2-0.2c0.1,2.1,0.3,4.3,0.4,6.7c-4.8,1.2-9.5,1.8-13.9-0.9
	c-2.5-1.5-3.7-4-4.2-6.7c-0.4-2-0.5-4-0.6-6c-0.1-6.5,0-13,0-19.4c0-0.9,0-1.7,0-2.9C655.5,689.2,653.6,689.2,651.6,689.2z"/>
<path class="st0" d="M234.3,682.6c2.3,0,4.7,0,7.4,0c0.1,1.2,0.2,2.3,0.3,3.5c0,1.2,0,2.4,0.4,3.7c0.4-0.6,0.7-1.3,1.1-1.9
	c2.1-3.5,5.1-5.9,9.4-6.3c0.9-0.1,1.7,0.1,2.8,0.1c0,2.9,0,5.6,0,8.5c-0.4,0-0.8,0.1-1,0.1c-6.6-0.2-10.5,3.2-11.1,9.8
	c-0.1,1.2-0.1,2.4-0.1,3.6c0,6.2,0,12.5,0,18.7c0,0.9,0,1.7,0,2.8c-3.1,0-5.9,0-9,0C234.3,711,234.3,696.9,234.3,682.6z"/>
</svg>
