<svg width="317" height="52" viewBox="0 0 317 52" fill="none" xmlns="http://www.w3.org/2000/svg">
<path fill-rule="evenodd" clip-rule="evenodd" d="M24.7589 52C11.0804 52 0 40.3621 0 26.0022C0 11.6424 11.0893 0 24.7679 0H49.5312V21.6641H28.8884C27.774 21.7255 26.7256 22.2091 25.9585 23.0155C25.1915 23.8219 24.764 24.8899 24.764 26C24.764 27.1101 25.1915 28.1781 25.9585 28.9845C26.7256 29.7909 27.774 30.2745 28.8884 30.3359H49.5223V52H24.7589Z" fill="white"/>
<path fill-rule="evenodd" clip-rule="evenodd" d="M59.4375 52H83.85V38.9989H91.986V52H116.398V0H91.986V13.0011H83.85V0H59.4375V52Z" fill="white"/>
<path fill-rule="evenodd" clip-rule="evenodd" d="M126.305 0V26.0022H142.578V52H166.992V26.0022H183.266V0H126.305Z" fill="white"/>
<path fill-rule="evenodd" clip-rule="evenodd" d="M193.172 0V26.0022H209.445V52H233.86V26.0022H250.133V0H193.172Z" fill="white"/>
<path fill-rule="evenodd" clip-rule="evenodd" d="M292.59 13.0011L284.453 0H260.039V52H284.453V38.9989L292.59 52H317V0H292.59V13.0011Z" fill="white"/>
</svg>
