<?xml version="1.0" encoding="utf-8"?>
<!-- Generator: Adobe Illustrator 26.3.1, SVG Export Plug-In . SVG Version: 6.00 Build 0)  -->
<svg version="1.1" id="Layer_1" xmlns="http://www.w3.org/2000/svg" xmlns:xlink="http://www.w3.org/1999/xlink" x="0px" y="0px"
	 viewBox="0 0 338 347.2" style="enable-background:new 0 0 338 347.2;" xml:space="preserve">
<path d="M21.4,337.7c-1.9-0.8-3.8-1.4-5.6-2.4c-11.9-6.4-14.8-22.2-6-32.4c1-1.1,2.1-2.2,3.1-3.2c41-41.1,82.1-82.1,123.2-123.2
	c0.8-0.8,1.8-1.5,2.9-2.5c-1.1-1.2-2-2.1-2.8-3C94.8,129.6,53.4,88.2,12,46.7c-9.6-9.6-9.6-23.3-0.1-31.8c8-7.2,19.9-7.3,28.1-0.3
	c1.3,1.1,2.5,2.4,3.7,3.6c40.9,40.9,81.8,81.8,122.7,122.7c0.8,0.8,1.7,1.6,2.7,2.5c1-1,2-1.8,2.8-2.7
	c41.4-41.4,82.8-82.9,124.3-124.3C307.7,4.9,326,8.3,331.8,23c0.5,1.4,1,2.8,1.5,4.2c0,2.4,0,4.7,0,7.1c-1.6,6.5-5.8,11.2-10.4,15.8
	c-40.4,40.3-80.7,80.7-121.1,121c-0.9,0.9-2.1,1.3-3.5,2.2c1.9,1.7,2.8,2.4,3.6,3.3c40.4,40.4,80.8,80.9,121.3,121.3
	c4.5,4.5,8.6,9.2,10.1,15.6c0,2.4,0,4.7,0,7.1c-2.4,8.8-7.9,14.7-16.7,17.3c-3.2,0-6.4,0-9.6,0c-6.2-2.1-10.6-6.5-15.1-10.9
	c-40-40.1-80.1-80.1-120.1-120.2c-0.9-0.9-1.8-1.7-3.2-3c-1,1.3-1.7,2.4-2.6,3.3C125.8,247,85.6,287.2,45.4,327.5
	c-4.2,4.3-8.6,8.3-14.4,10.2C27.8,337.7,24.6,337.7,21.4,337.7z"/>
</svg>
