<svg width="28" height="27" viewBox="0 0 28 27" fill="none" xmlns="http://www.w3.org/2000/svg">
<g clip-path="url(#clip0_249_1139)">
<path d="M0.875 14.346V12.6589C0.89101 12.582 0.910222 12.5063 0.921962 12.4294C1.01162 11.8222 1.06392 11.2065 1.19626 10.6089C1.57999 8.846 2.31393 7.17815 3.35454 5.70426C4.39514 4.23036 5.72122 2.98044 7.2541 2.02865C8.78698 1.07686 10.4954 0.442587 12.2781 0.163454C14.0608 -0.11568 15.8814 -0.0339851 17.6319 0.403691C24.6666 2.14955 29.0064 9.02308 27.6231 16.1292C27.0927 18.8013 25.7657 21.2502 23.8166 23.1537C21.8674 25.0572 19.3876 26.326 16.7034 26.7933C16.2113 26.8765 15.715 26.932 15.2219 27.0003H13.5334C13.4768 26.9806 13.4186 26.966 13.3594 26.9566C12.2188 26.8867 11.0939 26.6546 10.0187 26.2672C5.11404 24.4509 2.13728 20.9794 1.08846 15.8528C0.987069 15.3534 0.944376 14.8487 0.875 14.346ZM15.2742 11.8211C15.2742 11.2118 15.2646 10.6334 15.2742 10.0561C15.2881 9.4382 15.5944 9.11485 16.2092 9.06896C16.5763 9.04122 16.9467 9.05295 17.3149 9.04122C17.5988 9.03268 17.7216 8.92063 17.7269 8.63997C17.7365 8.14801 17.7355 7.65605 17.7269 7.1641C17.7269 6.88237 17.5946 6.75644 17.3224 6.75538C16.7514 6.75538 16.1793 6.73724 15.6083 6.76391C14.1098 6.83221 13.0425 7.77664 12.8525 9.27065C12.7607 10.007 12.8012 10.7647 12.7831 11.5053C12.7831 11.6056 12.7831 11.707 12.7831 11.8254H11.4756C11.054 11.8254 10.9526 11.9321 10.9516 12.359C10.9516 12.8776 10.9516 13.3963 10.9516 13.9138C10.9516 14.3076 11.0583 14.4111 11.4521 14.4122C11.8897 14.4122 12.3273 14.4122 12.7916 14.4122V14.7249C12.7916 16.4323 12.7891 18.1369 12.7842 19.8387C12.7842 20.2004 12.8311 20.2463 13.1972 20.2463C13.7415 20.2463 14.2862 20.2463 14.8313 20.2463C15.2144 20.2463 15.2689 20.1908 15.2689 19.8024C15.2689 18.1149 15.2689 16.428 15.2689 14.7419V14.4495C15.2954 14.4362 15.3233 14.4259 15.3521 14.4186L17.0919 14.4111C17.458 14.4111 17.554 14.3151 17.5946 13.9533C17.6533 13.4293 17.713 12.9064 17.7814 12.3835C17.8358 11.9631 17.7152 11.8179 17.2861 11.8179C16.6276 11.8201 15.969 11.8211 15.2742 11.8211Z" fill="white"/>
</g>
<defs>
<clipPath id="clip0_249_1139">
<rect width="27" height="27" fill="white" transform="translate(0.875)"/>
</clipPath>
</defs>
</svg>
