<svg width="24" height="17" viewBox="0 0 24 17" fill="none" xmlns="http://www.w3.org/2000/svg">
                        <path d="M24 8.70629C23.7921 9.28372 23.3714 9.49148 22.7557 9.4905C15.5401 9.48075 8.32363 9.48465 1.10811 9.48368C0.471505 9.48368 0.0219026 9.09742 0.00300343 8.53755C-0.0149011 7.99719 0.396903 7.56022 0.963879 7.52023C1.06534 7.5134 1.1668 7.51632 1.26826 7.51632C8.4221 7.51632 15.575 7.52022 22.7288 7.5095C23.3475 7.5095 23.7872 7.70067 24 8.29176V8.70532V8.70629Z" fill="black"/>
                        <path d="M24.0001 1.21532C23.8917 1.37919 23.8141 1.58207 23.6659 1.69521C23.4978 1.82396 23.269 1.88151 23.0602 1.95369C22.9836 1.98003 22.8901 1.96149 22.8035 1.96149C15.6019 1.96149 8.40133 1.96149 1.19974 1.95954C1.02268 1.95954 0.835681 1.95272 0.669567 1.902C0.221954 1.76349 -0.0535761 1.30994 0.00908967 0.858333C0.0727502 0.392098 0.463665 0.0370577 0.944103 0.012673C1.04556 0.00779609 1.14702 0.00877148 1.24848 0.00877148C8.40233 0.00877148 15.5572 0.0136484 22.711 -6.99589e-06C23.3307 -0.000982382 23.7684 0.177513 24.0001 0.754942V1.21435V1.21532Z" fill="black"/>
                        <path d="M24 16.2441C23.9721 16.2967 23.9433 16.3484 23.9174 16.4021C23.7483 16.7581 23.4678 16.962 23.065 16.9922C22.9566 17 22.8462 17 22.7377 17C15.5769 17 8.41611 17 1.2563 16.999C1.08521 16.999 0.909151 17.001 0.744032 16.9629C0.268568 16.8537 -0.0527186 16.3777 0.00795777 15.9017C0.0676395 15.4287 0.47248 15.0629 0.957891 15.0453C1.05139 15.0424 1.14489 15.0444 1.23939 15.0444C8.41512 15.0444 15.5918 15.0483 22.7676 15.0375C23.3883 15.0375 23.804 15.2453 24 15.8315V16.2451V16.2441Z" fill="black"/>
                    </svg>