<svg width="24" height="24" viewBox="0 0 24 24" fill="none" xmlns="http://www.w3.org/2000/svg">
<g clip-path="url(#clip0_249_998)">
<path d="M1.35356e-06 11.9845C0.00247002 9.61018 0.708932 7.28993 2.03002 5.31725C3.35111 3.34457 5.22748 1.80809 7.42176 0.902174C9.61605 -0.00374452 12.0297 -0.238402 14.3573 0.227884C16.685 0.69417 18.8221 1.84045 20.4983 3.52172C22.1745 5.203 23.3145 7.34373 23.7741 9.67313C24.2337 12.0025 23.9922 14.4159 23.0803 16.6081C22.1683 18.8002 20.6268 20.6725 18.6508 21.9883C16.6747 23.304 14.3529 24.004 11.979 23.9998C8.79842 23.9923 5.75072 22.7229 3.50486 20.4702C1.259 18.2176 -0.00150779 15.1657 1.35356e-06 11.9845ZM4.60811 11.9845H4.58772C4.58772 12.8909 4.58092 13.8075 4.58772 14.7195C4.58652 15.063 4.61037 15.406 4.65908 15.746C4.87884 17.1713 5.5653 18.2771 6.91216 18.8923C7.58787 19.19 8.31934 19.3398 9.05763 19.3319C10.929 19.341 12.8003 19.341 14.6716 19.3319C15.0789 19.3341 15.4858 19.3038 15.8882 19.2413C17.4027 18.9909 18.5231 18.2216 19.0826 16.7487C19.3071 16.1454 19.4185 15.5059 19.4111 14.8623C19.4111 13.0064 19.4111 11.151 19.4111 9.29593C19.414 8.94453 19.3902 8.59342 19.3398 8.24565C19.103 6.72179 18.3452 5.58427 16.8658 5.00645C16.267 4.7778 15.6309 4.66254 14.9899 4.66655C12.9985 4.65636 11.0071 4.65296 9.01572 4.66655C8.20414 4.65628 7.40259 4.84659 6.68221 5.22058C5.31383 5.95362 4.71119 7.17498 4.6217 8.65352C4.55374 9.76385 4.60811 10.8753 4.60811 11.9868V11.9845Z" fill="white"/>
<path d="M11.999 6.05124C12.9834 6.05124 13.9667 6.04218 14.951 6.05124C15.2705 6.05604 15.5887 6.09401 15.9003 6.16454C17.0852 6.43192 17.8555 7.29752 17.9971 8.51888C18.0286 8.78853 18.0449 9.05974 18.0458 9.33123C18.0458 11.1553 18.0616 12.9794 18.0378 14.8035C18.035 15.258 17.962 15.7094 17.8215 16.1416C17.4545 17.2372 16.6241 17.8241 15.5004 17.8875C14.1049 17.9657 12.7036 17.9589 11.3092 17.9634C10.3815 17.9634 9.45145 17.9634 8.52824 17.8943C7.11228 17.7912 6.16188 16.835 6.00216 15.4255C5.97349 15.1796 5.95837 14.9322 5.95685 14.6846C5.95685 12.8367 5.94213 10.9877 5.96478 9.14089C5.97064 8.70221 6.0436 8.26701 6.18114 7.85042C6.55156 6.75482 7.38075 6.1872 8.50332 6.10222C9.4741 6.02745 10.4528 6.04557 11.4281 6.02405C11.6196 6.02405 11.8121 6.02405 12.0036 6.02405L11.999 6.05124ZM11.999 8.09967C11.2287 8.10103 10.4761 8.3305 9.836 8.75915C9.19592 9.1878 8.69709 9.79643 8.40241 10.5083C8.10774 11.2201 8.03042 12.0033 8.18021 12.7591C8.33 13.5148 8.70019 14.2093 9.24409 14.7549C9.78799 15.3004 10.4812 15.6727 11.2364 15.8247C11.9916 15.9767 12.7748 15.9017 13.4874 15.609C14.2 15.3163 14.8099 14.8192 15.2404 14.1802C15.6708 13.5412 15.9024 12.7891 15.906 12.0187C15.9099 11.5034 15.8114 10.9925 15.6162 10.5156C15.4211 10.0388 15.1331 9.60543 14.7691 9.24081C14.405 8.87619 13.9722 8.58755 13.4957 8.39165C13.0192 8.19576 12.5086 8.09651 11.9934 8.09967H11.999ZM15.9286 8.89276C16.0822 8.89208 16.2322 8.84582 16.3595 8.75983C16.4868 8.67384 16.5857 8.55199 16.6437 8.40973C16.7017 8.26746 16.7162 8.11118 16.6853 7.96067C16.6544 7.81017 16.5796 7.67222 16.4703 7.56429C16.3609 7.45637 16.222 7.38334 16.0712 7.35444C15.9203 7.32554 15.7642 7.34208 15.6228 7.40196C15.4813 7.46184 15.3608 7.56237 15.2765 7.69081C15.1922 7.81926 15.1479 7.96983 15.1493 8.12347C15.1505 8.32802 15.2325 8.5238 15.3774 8.66812C15.5223 8.81244 15.7184 8.8936 15.923 8.8939L15.9286 8.89276Z" fill="white"/>
<path d="M9.48344 12.0119C9.48075 11.5139 9.6258 11.0263 9.90024 10.6108C10.1747 10.1952 10.5662 9.87044 11.0252 9.67748C11.4842 9.48453 11.9901 9.43207 12.479 9.52675C12.9678 9.62144 13.4176 9.859 13.7714 10.2094C14.1252 10.5598 14.3672 11.0073 14.4667 11.4952C14.5662 11.9832 14.5187 12.4897 14.3304 12.9507C14.142 13.4117 13.8212 13.8065 13.4085 14.0851C12.9957 14.3636 12.5097 14.5135 12.0118 14.5158C11.6812 14.518 11.3535 14.455 11.0473 14.3302C10.7412 14.2055 10.4627 14.0216 10.2278 13.7889C9.9929 13.5563 9.80623 13.2796 9.67849 12.9746C9.55076 12.6697 9.48447 12.3425 9.48344 12.0119Z" fill="white"/>
</g>
<defs>
<clipPath id="clip0_249_998">
<rect width="24" height="24" fill="white"/>
</clipPath>
</defs>
</svg>
