<svg width="9" height="8" viewBox="0 0 9 8" fill="none" xmlns="http://www.w3.org/2000/svg">
<path d="M7.46098 4.50353C7.37598 4.50353 7.32547 4.50353 7.27447 4.50353C5.02477 4.50353 2.77457 4.50353 0.524868 4.50353C0.24414 4.50353 0.0751207 4.3747 0.0144098 4.1192C-0.054558 3.82651 0.131946 3.53004 0.404902 3.50255C0.469985 3.49608 0.536038 3.4977 0.601606 3.4977C2.81877 3.4977 5.03594 3.4977 7.2531 3.4977C7.30896 3.4977 7.36481 3.4977 7.45563 3.4977C7.40609 3.43571 7.37647 3.39528 7.34344 3.35809C6.62316 2.54631 5.90289 1.73452 5.18164 0.923816C5.08013 0.809541 4.99854 0.68772 4.99805 0.517924C4.99757 0.305007 5.08062 0.144914 5.25207 0.0527397C5.41866 -0.0362007 5.58039 -0.0108667 5.72659 0.115267C5.7669 0.150304 5.80235 0.192349 5.83878 0.233315C6.8257 1.3448 7.8131 2.45629 8.79953 3.56831C9.06666 3.86963 9.06666 4.13052 8.8005 4.43023C7.81019 5.54548 6.82181 6.66344 5.82712 7.77331C5.73921 7.87141 5.61682 7.9555 5.49783 7.98784C5.31909 8.03582 5.1661 7.93771 5.06751 7.76576C4.96551 7.58788 4.96988 7.39976 5.07042 7.2208C5.10442 7.15989 5.15299 7.10814 5.19913 7.05639C5.9126 6.25216 6.62705 5.44846 7.34101 4.64422C7.37404 4.60703 7.40512 4.5693 7.46098 4.50353Z" fill="white"/>
</svg>
