<?xml version="1.0" encoding="utf-8"?>
<!-- Generator: Adobe Illustrator 26.3.1, SVG Export Plug-In . SVG Version: 6.00 Build 0)  -->
<svg version="1.1" id="Layer_1" xmlns="http://www.w3.org/2000/svg" xmlns:xlink="http://www.w3.org/1999/xlink" x="0px" y="0px"
	 viewBox="0 0 411.8 407.9" style="enable-background:new 0 0 411.8 407.9;" xml:space="preserve">
<style type="text/css">
	.st0{fill:#FFFFFF;}
</style>
<path d="M1.9,204.3c0-0.5,0-1.1,0-1.6c0.4-1.8,1-3.6,1-5.4c0-13.5,1.8-26.8,5-39.8C22.9,97.1,57.8,52.1,112.5,22.8
	c31.3-16.8,65-24,100.6-22.8c15.8,0.5,31.2,2.6,46.4,6.8C306.8,20,345,46.6,373.2,86.9c31.1,44.4,42.1,93.8,34.5,147.2
	c-4.6,32.2-16.5,61.9-36,88c-39.4,53-92.1,81.8-158.4,84.8c-1.8,0.1-3.6,0.7-5.4,1c-0.8,0-1.6,0-2.4,0c-2.3-0.4-4.6-0.8-7-1.1
	c-12.4-1.6-24.9-2.3-37-4.8c-22.5-4.5-43.4-13.4-62.7-25.8c-3.5-2.2-6.5-2.5-10.4-1.2c-22.3,7.3-44.8,14.4-67.2,21.6
	c-1.3,0.4-2.7,0.7-4.5,1.2c0.6-1.9,0.9-3.1,1.3-4.4c7-21,13.9-42.2,21.2-63.1c1.9-5.4,1.2-9.2-2-13.8C15.6,284.3,3.9,248.7,3,209.6
	C3,207.8,2.3,206,1.9,204.3z M131.8,92.1c-11.3-0.1-17.7,1.9-23.4,7.1c-13.7,12.7-20.5,28.5-21.3,47c-0.7,17,4.6,32.5,12.7,47.1
	c11.5,20.8,26.3,39.3,42.3,56.8c30.6,33.6,68.5,54.7,112.2,65.8c14.2,3.6,28.1,3.8,41.7-2.1c26.9-11.7,32.5-24.4,34.4-48.5
	c0.4-4.4-1.2-8-5.6-10.1c-15.5-7.4-30.9-14.9-46.5-22.1c-7.5-3.4-12.5-1.8-17.4,4.7c-4,5.3-7.8,10.8-11.9,16
	c-6.6,8.4-10.5,9.2-20.3,5.2c-31.7-13.1-55.8-35.1-74.1-63.7c-6.7-10.4-6.3-11.8,1.9-21c4.2-4.6,8-9.6,11.7-14.6
	c2.2-3.1,2.4-6.7,0.9-10.3c-1.6-4.1-3.2-8.1-4.9-12.2c-5.4-12.7-10.8-25.5-16.2-38.2c-2.1-4.8-6-6.9-11.1-7
	C135.2,92.1,133.5,92.1,131.8,92.1z"/>
<path class="st0" d="M1.9,204.3c0.4,1.8,1,3.6,1.1,5.4c0.9,39.1,12.6,74.7,34.4,107c3.1,4.6,3.9,8.4,2,13.8
	c-7.4,20.9-14.2,42-21.2,63.1c-0.4,1.2-0.8,2.5-1.3,4.4c1.9-0.5,3.2-0.8,4.6-1.2c22.4-7.2,44.8-14.2,67.2-21.6
	c3.9-1.3,6.9-1,10.4,1.2c19.3,12.4,40.2,21.2,62.7,25.8c12.2,2.5,24.7,3.2,37,4.8c2.3,0.3,4.6,0.7,7,1.1c-67.9,0-135.8,0-203.6,0
	C1.9,340,1.9,272.1,1.9,204.3z"/>
</svg>
