<?xml version="1.0" encoding="utf-8"?>
<!-- Generator: Adobe Illustrator 26.3.1, SVG Export Plug-In . SVG Version: 6.00 Build 0)  -->
<svg version="1.1" id="Layer_1" xmlns="http://www.w3.org/2000/svg" xmlns:xlink="http://www.w3.org/1999/xlink" x="0px" y="0px"
	 viewBox="0 0 385.1 384.9" style="enable-background:new 0 0 385.1 384.9;" xml:space="preserve">
<g>
	<path d="M182.2,0c7.7,0,15.5,0,23.2,0c1,0.2,1.9,0.5,2.9,0.6c28.8,2.2,55.8,10.2,80.6,25c51,30.3,82.2,74.6,93.2,133
		c1.3,7,2,14,2.9,21c0,7.7,0,15.5,0,23.2c-0.2,1.2-0.5,2.4-0.6,3.6c-1.5,9.8-2.4,19.8-4.7,29.5c-27.2,114.8-151.3,178-260,132.5
		c-83-34.8-130.1-120.9-115-210.1C17.8,81.4,78.9,18.7,155.6,3.8C164.4,2.1,173.3,1.3,182.2,0z M193.4,263.7c20.3,0,40.7,0.1,61,0
		c23.8-0.1,39.9-16.3,40-40c0-21.5,0.1-42.9,0-64.4c-0.1-23.3-16.2-39.6-39.5-39.7c-40.9-0.1-81.8-0.1-122.7,0
		c-23.5,0.1-39.6,16.4-39.6,39.9c0,21.5-0.1,42.9,0,64.4c0,3.3,0.3,6.8,1.1,10c4.2,18.2,19,29.6,38.4,29.7
		C152.5,263.8,172.9,263.7,193.4,263.7z"/>
	<path d="M167.1,222.4c0-20.6,0-40.7,0-61.5c17.6,10.3,34.9,20.3,52.9,30.8C202.2,202.1,184.9,212.1,167.1,222.4z"/>
</g>
</svg>
