<?xml version="1.0" encoding="utf-8"?>
<!-- Generator: Adobe Illustrator 26.3.1, SVG Export Plug-In . SVG Version: 6.00 Build 0)  -->
<svg version="1.1" id="Layer_1" xmlns="http://www.w3.org/2000/svg" xmlns:xlink="http://www.w3.org/1999/xlink" x="0px" y="0px"
	 viewBox="0 0 620.4 700.4" style="enable-background:new 0 0 620.4 700.4;" xml:space="preserve">
<style type="text/css">
	.st0{fill:none;}
	
		.st1{fill-rule:evenodd;clip-rule:evenodd;fill:#FAF6EB;stroke:#1C2628;stroke-width:2.13;stroke-linecap:round;stroke-linejoin:round;}
	
		.st2{fill-rule:evenodd;clip-rule:evenodd;fill:#F45B49;stroke:#1C2628;stroke-width:2.13;stroke-linecap:round;stroke-linejoin:round;}
	
		.st3{fill-rule:evenodd;clip-rule:evenodd;fill:#1C2628;stroke:#1C2628;stroke-width:2.13;stroke-linecap:round;stroke-linejoin:round;}
	.st4{fill:none;stroke:#FAF6EB;stroke-width:2.13;stroke-linecap:round;stroke-linejoin:round;}
	.st5{fill:none;stroke:#1C2628;stroke-width:2.13;stroke-linecap:round;stroke-linejoin:round;}
	.st6{fill:none;stroke:#FFFFFF;stroke-width:2.13;stroke-linecap:round;stroke-linejoin:round;}
	
		.st7{fill-rule:evenodd;clip-rule:evenodd;fill:#F3A140;stroke:#1C2628;stroke-width:2.13;stroke-linecap:round;stroke-linejoin:round;}
	.st8{fill-rule:evenodd;clip-rule:evenodd;fill:#FAF6EB;}
	.st9{fill-rule:evenodd;clip-rule:evenodd;fill:#F3A13B;}
	.st10{fill:#F45B49;}
	.st11{clip-path:url(#SVGID_00000106134573730310496210000013926304759682976683_);}
	.st12{fill:#F45B49;stroke:#1C2628;stroke-width:2.13;stroke-linecap:round;stroke-linejoin:round;}
	.st13{clip-path:url(#SVGID_00000016051175027282483670000001952307261103241104_);}
	.st14{fill:#1C2628;stroke:#1C2628;stroke-width:2.13;stroke-linecap:round;stroke-linejoin:round;}
	.st15{fill:none;stroke:#FFFDFD;stroke-width:2.13;stroke-linecap:round;stroke-linejoin:round;}
	.st16{clip-path:url(#SVGID_00000140699975357073401980000006227950912573680042_);}
	.st17{clip-path:url(#SVGID_00000103255901369945907130000002017059135680465824_);}
	.st18{fill-rule:evenodd;clip-rule:evenodd;fill:#FFD8B4;stroke:#1C2628;stroke-width:2;stroke-miterlimit:10;}
	.st19{fill:#FFD8B4;stroke:#1C2628;stroke-width:2;stroke-miterlimit:10;}
	
		.st20{fill-rule:evenodd;clip-rule:evenodd;fill:#1C2628;stroke:#1C2628;stroke-width:2.1299;stroke-linecap:round;stroke-linejoin:round;stroke-miterlimit:3.9998;}
	.st21{fill:#FAF6EB;stroke:#1C2628;stroke-width:2.13;stroke-linecap:round;stroke-linejoin:round;}
	.st22{fill-rule:evenodd;clip-rule:evenodd;fill:#FFD8B4;}
	.st23{fill-rule:evenodd;clip-rule:evenodd;fill:#C6BCA3;}
	.st24{fill-rule:evenodd;clip-rule:evenodd;fill:#FAF6EB;stroke:#1C2628;stroke-width:2;stroke-miterlimit:10;}
	.st25{fill:#FAF6EB;stroke:#1C2628;stroke-width:2;stroke-miterlimit:10;}
	.st26{fill:none;stroke:#000000;stroke-width:2;stroke-miterlimit:10;}
	.st27{fill:#FFFFFF;stroke:#000000;stroke-width:2;stroke-linecap:round;stroke-linejoin:round;stroke-miterlimit:10;}
	.st28{fill-rule:evenodd;clip-rule:evenodd;fill:#FAF6EB;stroke:#000000;stroke-width:2;stroke-miterlimit:10;}
	
		.st29{fill:url(#SVGID_00000090293272758003271400000011851851065920684448_);stroke:#000000;stroke-width:2;stroke-linecap:round;stroke-linejoin:round;stroke-miterlimit:10;}
	.st30{fill-rule:evenodd;clip-rule:evenodd;stroke:#000000;stroke-width:2.13;stroke-linecap:round;stroke-linejoin:round;}
	.st31{fill-rule:evenodd;clip-rule:evenodd;fill:#FFD8B4;stroke:#000000;stroke-width:2;stroke-miterlimit:10;}
	.st32{fill:#FFD8B4;stroke:#000000;stroke-width:2;stroke-miterlimit:10;}
	.st33{fill-rule:evenodd;clip-rule:evenodd;}
	.st34{fill-rule:evenodd;clip-rule:evenodd;stroke:#FFFFFF;stroke-width:0.25;stroke-miterlimit:10;}
	.st35{fill:none;stroke:#000000;stroke-width:2.13;stroke-linecap:round;stroke-linejoin:round;}
	
		.st36{fill:url(#SVGID_00000151504280774049096960000008064299728402174139_);stroke:#000000;stroke-width:2;stroke-linecap:round;stroke-linejoin:round;stroke-miterlimit:10;}
	
		.st37{fill-rule:evenodd;clip-rule:evenodd;fill:url(#SVGID_00000067925113907057878880000005414993371063644589_);stroke:#000000;stroke-width:2;stroke-linecap:round;stroke-linejoin:round;stroke-miterlimit:10;}
	.st38{fill:none;stroke:#1C2628;stroke-width:2;stroke-miterlimit:10;}
	.st39{fill-rule:evenodd;clip-rule:evenodd;fill:#F7AA9A;}
</style>
<pattern  x="-5184.2" y="1015.4" width="18" height="12" patternUnits="userSpaceOnUse" id="New_Pattern" viewBox="2.7 -14.7 18 12" style="overflow:visible;">
	<g>
		<rect x="2.7" y="-14.7" class="st0" width="18" height="12"/>
		<circle cx="20.7" cy="-2.7" r="2.7"/>
		<circle cx="2.7" cy="-2.7" r="2.7"/>
		<circle cx="20.7" cy="-14.7" r="2.7"/>
		<circle cx="11.7" cy="-8.7" r="2.7"/>
		<circle cx="2.7" cy="-14.7" r="2.7"/>
	</g>
</pattern>
<pattern  id="SVGID_00000103952690458015238480000016167625212552778648_" xlink:href="#New_Pattern" patternTransform="matrix(1 0 0 1 -265.0886 117.5398)">
</pattern>
<path style="fill-rule:evenodd;clip-rule:evenodd;fill:url(#SVGID_00000103952690458015238480000016167625212552778648_);stroke:#000000;stroke-width:2;stroke-linecap:round;stroke-linejoin:round;stroke-miterlimit:10;" d="
	M468.5,557.5c-3.4,34.6-66,58.2-149.4,60.2c-0.1,0-0.3,0-0.3,0c-19.9,0.4-41.1-0.3-62.9-2.4c-44.4-4.3-84.9-13.6-117.6-26
	c-13.3-5-25.2-10.5-35.6-16.3c-29.4-16.6-46.1-36-44.3-55.3c3.8-39.4,84.4-64.5,185.3-59.8c9,0.4,18.2,1,27.4,2
	c45.3,4.4,86.6,14.1,119.6,26.7C440.1,505.6,471,531.7,468.5,557.5z"/>
<path class="st5" d="M488.7,530.7c10.7,13.1,11.7,24.6,11.1,39.2c-2,47.2-66.1,57.4-101.8,68"/>
<path class="st5" d="M132,440.3c-51.6,8.7-113.5,42.5-94.7,104"/>
<path class="st5" d="M360.9,570.7c2.7-3.8,2.3-1.3-0.9-0.6c-11.3,2.5-22.5,5.5-33.7,8.5c-14.2,3.8-26.2,12.9-39.2,19.6"/>
<path class="st22" d="M430.1,438.4c51.9-55.3-81.8-315-164.6-265c-28.7,13.4-40.4,36-51.8,62.7c-27.8,102-149.6,67.9-153.3,178
	C53.5,574.8,374.6,556.7,430.1,438.4z"/>
<path class="st22" d="M129.9,250c19.1-3.1,37.2-5,32,22.1c-0.7,3.7-5.9,26.6-24.4,29.1C100.1,307.3,92.3,255.2,129.9,250z"/>
<path class="st22" d="M186.3,244.1c-8,5.7-23.3-2.2-18.3-12.8C172,209.2,215.3,234.1,186.3,244.1z"/>
<path class="st38" d="M193.7,369.8c2.7,6.4,5.5,13.4,3.8,20.1c-1.4,5.6-5.7,10-10,13.9c-2.2,1.9-4.5,3.9-7.3,4.7
	c-2.8,0.9-6.2,0.3-8-1.9c-2-2.4-1.5-6.2,0-9c1.1-2.2,3.1-4.1,5.4-4.8c4.1-1.2,8.5,1.8,10.1,5.8c1.7,3.9,1.2,8.4,0.3,12.6
	c-3.6,17.1-13.3,32.2-22.8,46.8"/>
<path class="st22" d="M143.8,350c10.1,1.2,22.9-15.5,8-17.1c-4.6,1.7-14.2,15-9.5,16.8"/>
<path class="st33" d="M244.2,237.4c-10.9,2.3-15.3,12.1-10,22.5c1.5,2.9,10.2,15.5,18.1,14.1c3.8-0.7,15.7,1,13.4-27.6
	C264.2,235.2,258.8,234.5,244.2,237.4z"/>
<path class="st33" d="M409.7,402.9c-13.2,44.2-79.6,145.9-84.3,162.8l-0.7-2.9c-14.9,5.2-100.7,6-128.7-21c-2.8-2.7-5-5.6-6.6-8.9
	l23.2-57.9c-1.4,2-15.1-10.1,0.9-43.7c4.4-9.2,13.5-34,13.5-34c0.7-3.8,2.7-18.4,5.2-36.2c-0.3-0.6-0.4-1-0.4-1
	c-7.7-5.2-36.5-3.1-43.1-25.7c-1-3.4-1.5-7.4-1.3-12.1c0.2-5.2,3.4-7.7,7.1-8.7c3.6-1,7.6-0.9,9.6-0.7c10.8,0.6,21.4,4.6,31.5,8.8
	c0.7,0.3,1.3,0.6,2,0.9c3.4-24.6,6.6-45.9,7.7-47c1.7-1.9,3.4-3.8,5.1-5.7c5.2-5.8,10.6-10.1,19.6-6.8c5.9,2.1,11.5,4.4,17,7
	c11.4,5.5,21.8,12.5,30.1,22.9c8.2,10.2,15.6,21.2,21.2,33c5.1,10.7,8.4,22.3,10.5,33.8c1.5,7.9,2.5,16.1,2,24.1
	c-0.1,2-0.3,3.9-0.7,5.9c-1.6,8.8-3.8,17.5-6.2,26L409.7,402.9z"/>
<path class="st8" d="M195.9,541.9c-2.8-2.7-5-5.6-6.6-8.9l23.2-57.9c-1.4,2-15.1-10.1,0.9-43.7c4.4-9.2,13.5-34,13.5-34
	c0.7-3.8,2.7-18.4,5.2-36.2c-0.3-0.6-0.4-1-0.4-1c-7.7-5.2-36.5-3.1-43.1-25.7c6.4,1.1,13.2,3.2,20.4,5.4c14.5,4.4,23.2,7,27.9,15.1
	c5.4,9.4-1.3,14.7,3.1,37c1.3,6.7,2.6,9.5,4.3,19.4c1.9,11.4,2.8,17.1,1.1,21.4c-4.2,10.6-16.5,11.6-16.3,18.3
	c0.1,3.9,4.5,5.5,8.9,9.7c0,0,11.9,11,12.8,31C252.1,517.2,218.7,546.4,195.9,541.9z"/>
<path class="st8" d="M213,540.1c3.6-3.2,7.1-6.6,10.3-10.2c-27.2-16.4-27.4-29.7-27.4-29.7l-57.7,89.1
	c28.1,10.7,62.1,19.1,99.3,23.9c-6-15.7-15.3-30.7-27.1-43.3C203.4,561.1,206,547.1,213,540.1z"/>
<path class="st33" d="M249.1,542.7c-10.6-4.4-19-8.7-25.8-12.8c-3.1,3.6-6.6,7-10.3,10.2c-7,7-9.6,21-2.6,29.7
	c11.9,12.7,21.1,27.6,27.1,43.3c6,0.8,12.1,1.5,18.4,2.1c21.8,2.1,42.9,2.9,62.9,2.4c0.1,0,0.3,0,0.3,0l24.6-68.8
	C343.6,549,312.1,568.7,249.1,542.7z"/>
<path class="st39" d="M355.2,354.3c2.4-6.6-1-16.9-3-23.4c-10.7-36-41.2-54.1-71.7-71.7c-10.6-6.1-16.5-7.2-26,10.1
	c-5.1,9.2-8.4,31.7-1.5,38c20.5,18.4,46,32.9,60,56.2c2.1,3.5,12.8,35,12.8,35s6.8-8,15.2-15.2c7-6.1,9-6.6,10-8L355.2,354.3z"/>
<g>
	<g>
		<path class="st14" d="M448.7,217.8c-2.5-1.3-3.6-4.4-2.3-7l0.2-0.3c1.3-2.5,4.4-3.6,7-2.3c2.5,1.3,3.6,4.4,2.3,7l-0.2,0.3
			C454.3,218.1,451.2,219.1,448.7,217.8z M452.5,210.3c-1.4-0.7-3.1-0.2-3.8,1.2l-0.2,0.3c-0.7,1.4-0.2,3.1,1.2,3.8
			c1.4,0.7,3.1,0.2,3.8-1.2l0.2-0.3C454.4,212.7,453.9,211,452.5,210.3z"/>
	</g>
	<g>
		<path class="st14" d="M443.2,228.5c-2.5-1.3-3.6-4.4-2.3-7l0.2-0.3c1.3-2.5,4.4-3.6,7-2.3s3.6,4.4,2.3,7l-0.2,0.3
			C448.7,228.9,445.7,229.8,443.2,228.5z M446.9,221.1c-1.4-0.7-3.1-0.2-3.8,1.2l-0.2,0.3c-0.7,1.4-0.2,3.1,1.2,3.8s3.1,0.2,3.8-1.2
			l0.2-0.3C448.9,223.4,448.4,221.8,446.9,221.1z"/>
	</g>
	<g>
		<path class="st14" d="M452.7,204.7c-3.8-1.9-5.2-6.6-3.3-10.2l6.4-12.3c1.9-3.8,6.5-5.2,10.2-3.3c3.8,1.9,5.2,6.6,3.3,10.2l0,0
			l-6.4,12.3C461,205.1,456.4,206.6,452.7,204.7z M464.9,180.9c-2.6-1.3-5.8-0.3-7.1,2.3l-6.4,12.3c-1.3,2.6-0.3,5.8,2.3,7.1
			c2.6,1.3,5.8,0.3,7.1-2.3l6.4-12.3C468.5,185.3,467.5,182.2,464.9,180.9z"/>
	</g>
	<path class="st3" d="M496.6,131.3L366.3,384.5c-3.9,7.7-13.4,10.7-21.1,6.7l-114-58.7c-7.7-3.9-10.7-13.4-6.7-21.1l73.9-143.7
		c2.6-0.2,5.2-0.3,8-0.5L230.8,314c-2.3,4.5-0.5,10,3.9,12.3l113.2,58.2c1.3,0.7,2.7,1,4.2,1c3.4,0,6.6-1.9,8.1-5l129.9-252.2
		c0.4-0.9,0.7-1.7,0.9-2.6c0.1,0,0.2-0.1,0.3-0.1c2.4-1,4.8-2.2,7.2-3.2C498.6,125.3,498.1,128.4,496.6,131.3z"/>
	<path class="st8" d="M490.9,125.7c-0.2,0.9-0.4,1.7-0.9,2.6L360.2,380.6c-1.6,3.1-4.7,5-8.1,5c-1.5,0-2.9-0.3-4.2-1l-113.2-58.2
		c-4.5-2.3-6.2-7.8-3.9-12.3l75.5-146.6c17.6-1.2,36.7-3.4,56.7-6.6C413.2,152.5,458.9,139.6,490.9,125.7z"/>
	<path class="st3" d="M418.4,75c0,0-2.4,4.8-2.6,8.8c0,0.3,0,0.4,0,0.7c0.1,3.7,2.4,6.9,5.6,8.6l8.4,4.3c2.4,1.2,5.1,1.5,7.5,0.7
		c1-0.3,2.1-0.8,3.1-1.4c3.4-2.3,5.7-7,5.7-7L418.4,75z"/>
</g>
<path class="st33" d="M426.1,341.3c0.9,4.7-8.4,46.7-20.3,72.6L275,438.8c0,0,3.4-12.8,10.5-27.1c6.3-12.7,15.4-26.4,27.5-33.2
	c35.8-20.1,63.2-10.6,63.2-10.6s1.7-15.6,12.8-35.3c0,0,0.1-3.3,0.6-8.3c1-10,3.8-26.2,11.3-33.6c15.9-15.9,28.5-12.8,27.6-10.3
	C429.3,283.7,426.9,339,426.1,341.3z"/>
<path class="st33" d="M223.4,260.7c-11.1,2.4-15.6,12.3-10.1,22.9c1.5,2.9,10.4,15.8,18.4,14.3c3.8-0.7,16,1,13.6-28.1
	C243.7,258.4,238.1,257.6,223.4,260.7z"/>
<path class="st5" d="M318.7,617.8c-19.9,0.4-41.1-0.3-62.9-2.4c-44.4-4.3-84.9-13.6-117.6-26"/>
<path class="st5" d="M197.8,506.3c0,0,3.9,12.7,25.4,23.6s43.8,25.7,75.2,25.7"/>
<path class="st6" d="M416.6,283.3c0,0-3.2,19.8,0,22.9c3.2,3.2,8,3.2,8,3.2"/>
<path class="st8" d="M377.2,382.9c-12.9,6.1-19.5-4.1-36.2,0.3c-20.5,5.5-22.3,24.2-39.9,28.7c-4.1,1-9.3,1.4-15.6-0.2
	c6.3-12.7,15.4-26.4,27.5-33.2c35.8-20.1,63.2-10.6,63.2-10.6s1.7-15.6,12.8-35.3c0,0,0.1-3.3,0.6-8.3c3.8,5.5,6.6,11.8,7.3,18.6
	C398.6,358.4,390.5,376.6,377.2,382.9z"/>
<path class="st33" d="M263.6,449.3c-1.1-7,14.2-14.9,27-21.6c28.4-14.7,59.1-19.9,63.3-20.6c17.4-2.8,28.9-2.6,39.6-12.4
	c6.5-5.9,13.9-17,16.2-16.2c3.7,1.3,1.2,25-5.9,40c-16.3,34.7-68.4,40.7-77.9,41.9C298.6,463.9,265.1,459.2,263.6,449.3z"/>
<line class="st5" x1="475.6" y1="248.3" x2="449.2" y2="265.8"/>
<line class="st5" x1="477.1" y1="275.7" x2="449.7" y2="278.8"/>
<line class="st5" x1="447.6" y1="292.3" x2="473" y2="319.7"/>
<line class="st5" x1="448.7" y1="320.3" x2="461.1" y2="335.3"/>
<path class="st5" d="M198.7,549.5c-3.1,7.3-5.2,15.7-2.5,23.2c2,5.7,6.6,10,10.4,14.8s7.2,10.5,6.2,16.5"/>
<path class="st5" d="M212.5,583.6c2.5,5.2,8,8.6,10.3,13.8c1.1,2.5,1.5,5.4,1.5,8.2"/>
<path class="st5" d="M240.2,487.5c0,4,0,8.1-0.7,12.1c-0.7,4-2.2,8-4.9,10.9c-2.9,3.2-6.9,5.2-10.7,7.2"/>
<path class="st5" d="M243.4,507.5c-1.1,3.5-3.5,6.6-6.6,8.7"/>
<path class="st5" d="M220.5,284.5c-0.4-3.8-0.9-7.9,0.6-11.4c1.5-3.5,5.7-6.3,9.3-4.7"/>
<path class="st6" d="M393.1,402.3c-18.4,30.7-35.9,62-52.3,93.9"/>
<line class="st6" x1="368.6" y1="463.9" x2="333.7" y2="531.1"/>
<path class="st6" d="M412.1,358.6c-5.5,23.5-4,39.9-24.7,72.4"/>
<path class="st33" d="M537.1,90.1c-1.3,10-15.6,21.3-38.8,32.2c-2.3,1-4.7,2.2-7.2,3.2c-0.1,0-0.2,0.1-0.3,0.1
	c-32,13.9-77.8,26.8-127.9,35c-20,3.2-39.2,5.4-56.7,6.6c-2.7,0.2-5.3,0.3-8,0.5c-21.2,1.1-40,0.9-55.4-0.9
	c-27.9-3.1-44.2-10.7-42.7-22.4c1.5-11.5,20.4-24.9,50.2-37.3c24.9-10.4,57.3-20.2,93.4-27.6c2.9-0.6,5.7-1.1,8.6-1.7
	c7.2-1.4,14.5-2.7,21.9-3.9c8-1.3,15.9-2.4,23.5-3.4c4.2-0.5,8.3-1,12.3-1.4l0,0c27.9-3,52.9-3.8,73.2-2.4
	C517.9,68.9,538.8,77.1,537.1,90.1z"/>
<path class="st4" d="M305.1,149.9c-2.6,0.2-5.2,0.3-7.7,0.4c-8,0.4-15.8,0.7-23.1,0.7c-10.8,0-20.7-0.5-29.5-1.5"/>
<path class="st4" d="M490.8,106.6c-2.2,1-4.4,2-6.6,3.1l-0.4,0.2"/>
<path class="st4" d="M257.1,123.4c24.3-10.1,56.3-19.6,90.2-26.7c2.8-0.5,5.5-1.1,8.4-1.7c7-1.3,14.2-2.6,21.4-3.8
	c7.7-1.2,15.4-2.4,23-3.3c3.8-0.5,7.6-1,11.2-1.3l0.9-0.1c18.4-1.9,35.5-3,51.1-3c6.7,0,13.2,0.2,19.1,0.5"/>
<path class="st5" d="M517.5,51.7c44.7,2.9,71.9,13.4,69.7,30.2c-1.7,13-20.4,27.7-50.3,41.9c-3,1.4-6.1,2.8-9.3,4.2
	c-0.1,0.1-0.2,0.1-0.3,0.1"/>
<path class="st5" d="M205.6,181.8c-36.2-4-57.4-14-55.5-29s26.6-32.3,65-48.4c32.3-13.5,74.5-26.1,121.2-35.8
	c3.7-0.8,7.4-1.5,11.1-2.3c9.4-1.8,18.9-3.5,28.5-5.1c10.4-1.7,20.6-3.1,30.6-4.4"/>
<path class="st5" d="M466,647.6c-49,13-98.3,30.4-149,27.4"/>
<path class="st6" d="M223.1,284.5c-0.4-3.8-0.9-7.9,0.6-11.4s5.7-6.3,9.3-4.7"/>
</svg>
