<?xml version="1.0" encoding="utf-8"?>
<!-- Generator: Adobe Illustrator 26.3.1, SVG Export Plug-In . SVG Version: 6.00 Build 0)  -->
<svg version="1.1" id="Layer_1" xmlns="http://www.w3.org/2000/svg" xmlns:xlink="http://www.w3.org/1999/xlink" x="0px" y="0px"
	 viewBox="0 0 562 799.9" style="enable-background:new 0 0 562 799.9;" xml:space="preserve">
<style type="text/css">
	.st0{fill:none;}
	
		.st1{fill-rule:evenodd;clip-rule:evenodd;fill:#FAF6EB;stroke:#1C2628;stroke-width:2.13;stroke-linecap:round;stroke-linejoin:round;}
	
		.st2{fill-rule:evenodd;clip-rule:evenodd;fill:#F45B49;stroke:#1C2628;stroke-width:2.13;stroke-linecap:round;stroke-linejoin:round;}
	
		.st3{fill-rule:evenodd;clip-rule:evenodd;fill:#1C2628;stroke:#1C2628;stroke-width:2.13;stroke-linecap:round;stroke-linejoin:round;}
	.st4{fill:none;stroke:#FAF6EB;stroke-width:2.13;stroke-linecap:round;stroke-linejoin:round;}
	.st5{fill:none;stroke:#1C2628;stroke-width:2.13;stroke-linecap:round;stroke-linejoin:round;}
	.st6{fill:none;stroke:#FFFFFF;stroke-width:2.13;stroke-linecap:round;stroke-linejoin:round;}
	
		.st7{fill-rule:evenodd;clip-rule:evenodd;fill:#F3A140;stroke:#1C2628;stroke-width:2.13;stroke-linecap:round;stroke-linejoin:round;}
	.st8{fill-rule:evenodd;clip-rule:evenodd;fill:#FAF6EB;}
	.st9{fill-rule:evenodd;clip-rule:evenodd;fill:#F3A13B;}
	.st10{fill:#F45B49;}
	.st11{clip-path:url(#SVGID_00000090258545053657835090000011958653917212886937_);}
	.st12{fill:#F45B49;stroke:#1C2628;stroke-width:2.13;stroke-linecap:round;stroke-linejoin:round;}
	.st13{clip-path:url(#SVGID_00000180336682580877427610000012658470935796700076_);}
	.st14{fill:#1C2628;stroke:#1C2628;stroke-width:2.13;stroke-linecap:round;stroke-linejoin:round;}
	.st15{fill:none;stroke:#FFFDFD;stroke-width:2.13;stroke-linecap:round;stroke-linejoin:round;}
	.st16{clip-path:url(#SVGID_00000004515285966683888890000010678179478591683724_);}
	.st17{clip-path:url(#SVGID_00000111187444793916062090000000960180536742076327_);}
	.st18{fill-rule:evenodd;clip-rule:evenodd;fill:#FFD8B4;stroke:#1C2628;stroke-width:2;stroke-miterlimit:10;}
	.st19{fill:#FFD8B4;stroke:#1C2628;stroke-width:2;stroke-miterlimit:10;}
	
		.st20{fill-rule:evenodd;clip-rule:evenodd;fill:#1C2628;stroke:#1C2628;stroke-width:2.1299;stroke-linecap:round;stroke-linejoin:round;stroke-miterlimit:3.9998;}
	.st21{fill:#FAF6EB;stroke:#1C2628;stroke-width:2.13;stroke-linecap:round;stroke-linejoin:round;}
	.st22{fill-rule:evenodd;clip-rule:evenodd;fill:#FFD8B4;}
	.st23{fill-rule:evenodd;clip-rule:evenodd;fill:#C6BCA3;}
	.st24{fill-rule:evenodd;clip-rule:evenodd;fill:#FAF6EB;stroke:#1C2628;stroke-width:2;stroke-miterlimit:10;}
	.st25{fill:#FAF6EB;stroke:#1C2628;stroke-width:2;stroke-miterlimit:10;}
	.st26{fill:none;stroke:#000000;stroke-width:2;stroke-miterlimit:10;}
	.st27{fill:#FFFFFF;stroke:#000000;stroke-width:2;stroke-linecap:round;stroke-linejoin:round;stroke-miterlimit:10;}
	.st28{fill-rule:evenodd;clip-rule:evenodd;fill:#FAF6EB;stroke:#000000;stroke-width:2;stroke-miterlimit:10;}
	
		.st29{fill:url(#SVGID_00000145742681422835062070000001957467511732885434_);stroke:#000000;stroke-width:2;stroke-linecap:round;stroke-linejoin:round;stroke-miterlimit:10;}
	.st30{fill-rule:evenodd;clip-rule:evenodd;stroke:#000000;stroke-width:2.13;stroke-linecap:round;stroke-linejoin:round;}
	.st31{fill-rule:evenodd;clip-rule:evenodd;fill:#FFD8B4;stroke:#000000;stroke-width:2;stroke-miterlimit:10;}
	.st32{fill:#FFD8B4;stroke:#000000;stroke-width:2;stroke-miterlimit:10;}
	.st33{fill-rule:evenodd;clip-rule:evenodd;}
	.st34{fill-rule:evenodd;clip-rule:evenodd;stroke:#FFFFFF;stroke-width:0.25;stroke-miterlimit:10;}
	.st35{fill:none;stroke:#000000;stroke-width:2.13;stroke-linecap:round;stroke-linejoin:round;}
	
		.st36{fill:url(#SVGID_00000044900126030087117210000011863209161941512844_);stroke:#000000;stroke-width:2;stroke-linecap:round;stroke-linejoin:round;stroke-miterlimit:10;}
</style>
<pattern  x="-4119.8" y="866.7" width="18" height="12" patternUnits="userSpaceOnUse" id="New_Pattern" viewBox="2.7 -14.7 18 12" style="overflow:visible;">
	<g>
		<rect x="2.7" y="-14.7" class="st0" width="18" height="12"/>
		<circle cx="20.7" cy="-2.7" r="2.7"/>
		<circle cx="2.7" cy="-2.7" r="2.7"/>
		<circle cx="20.7" cy="-14.7" r="2.7"/>
		<circle cx="11.7" cy="-8.7" r="2.7"/>
		<circle cx="2.7" cy="-14.7" r="2.7"/>
	</g>
</pattern>
<path class="st26" d="M366.7,741.8H187.6c-71.9,0-130.2-58.3-130.2-130.2v-340c0-121.3,98.4-219.7,219.7-219.7h0
	c121.3,0,219.7,98.4,219.7,219.7v340C496.9,683.5,438.6,741.8,366.7,741.8z"/>
<rect x="72.4" y="627.3" class="st27" width="439.4" height="114.5"/>
<g>
	<path class="st25" d="M86.7,614c-0.5-0.3-1,0.1-1,0.6v71.6c0,0.2,0.1,0.5,0.3,0.6l190.8,113c0.2,0.1,0.5,0.1,0.7,0l193.6-113.2l0,0
		v-74c0-0.2-0.1-0.5-0.3-0.6L280.9,499.3l0,0L85.7,613.4"/>
	
		<pattern  id="SVGID_00000044863282797184827170000002674548207765193875_" xlink:href="#New_Pattern" patternTransform="matrix(1 0 0 1 -265.0886 117.5398)">
	</pattern>
	
		<path style="fill:url(#SVGID_00000044863282797184827170000002674548207765193875_);stroke:#000000;stroke-width:2;stroke-linecap:round;stroke-linejoin:round;stroke-miterlimit:10;" d="
		M278,726.1l193-111.3V688L278,799.8C278,799.8,277.8,726.3,278,726.1z"/>
	<line class="st27" x1="278" y1="726.1" x2="278" y2="799.8"/>
	<polygon points="399.8,654.7 340.1,689.6 278.4,650.2 336.6,617.6 	"/>
	<polygon points="405.6,573.3 335.6,613.2 275.6,574.9 343.2,535.2 	"/>
	<polygon class="st27" points="214.8,612 280.7,574.5 217.8,537.4 152.1,575.4 	"/>
	<polygon points="280.7,572.4 215.1,610.6 151.1,573.5 217.6,535.2 	"/>
	<polygon class="st27" points="212.4,687.8 278.4,650.2 215.5,613.2 149.7,651.2 	"/>
	<path class="st27" d="M84.9,688.4l193,111.3v-73.2l-193-111.8C84.9,614.8,84.7,688.3,84.9,688.4z"/>
	<polygon points="277.9,650.3 212.3,688.6 148.3,651.5 214.8,613.2 	"/>
</g>
<path d="M493.9,119.5c-0.5,0-1-0.1-1.4-0.1c-2.1-0.2-3.7-1.9-3.8-4c0-1,0-1.9,0.1-2.9c0.1-2.4,1.8-4.1,4.2-4.1c0.5,0,0.9,0,1.6,0
	c0-0.8,0-1.4,0.1-2.1c0.1-3.5,2.2-5.5,5.7-5.4c11.9,0.3,23.8,0.6,35.7,0.8c3.4,0.1,5.4,2.2,5.4,5.6c0,0.7,0,1.4-0.1,2.2
	c0.6,0,1.1,0,1.6,0c2.3,0.1,3.9,1.9,4,4.2c0,0.9,0,1.9-0.1,2.8c-0.1,2.4-1.9,4.1-4.2,4.1c-0.5,0-1,0-1.6,0c-0.2,1.4-0.4,2.8-0.6,4.1
	c-1.5,10.9-3,21.7-4.5,32.6c-0.7,5-1.4,10-2.1,15c-0.2,1.1-0.6,1.5-1.7,1.5c-10.6-0.2-21.2-0.5-31.8-0.7c-1.2,0-1.6-0.4-1.7-1.6
	c-0.4-4.7-0.8-9.5-1.3-14.2c-0.6-6.6-1.2-13.1-1.8-19.7c-0.5-5.8-1-11.6-1.6-17.4C493.9,119.8,493.9,119.7,493.9,119.5z
	 M499.6,152.8c11.4,0.3,22.7,0.5,34,0.8c1-7.3,2-14.6,3-21.9c-13.1-0.3-26-0.6-39-0.9C498.3,138.1,499,145.4,499.6,152.8z
	 M533.2,156.4c-11.2-0.3-22.3-0.5-33.4-0.8c0.4,4.9,0.9,9.7,1.3,14.6c10.1,0.2,20.1,0.5,30.1,0.7C531.9,166,532.6,161.2,533.2,156.4
	z M537,128.9c0.4-2.8,0.8-5.6,1.1-8.3c-13.9-0.3-27.7-0.7-41.5-1c0.3,2.8,0.5,5.6,0.8,8.4C510.7,128.2,523.8,128.5,537,128.9z
	 M517.7,117.3c5,0.1,10,0.2,15,0.4c3.2,0.1,6.4,0.2,9.6,0.2c1.3,0,1.8-0.5,1.8-1.8c0-0.5,0-1,0-1.5c0-2-0.3-2.3-2.2-2.3
	c-16.1-0.4-32.1-0.8-48.2-1.1c-0.3,0-0.5,0-0.8,0c-0.9,0-1.5,0.5-1.5,1.5c0,0.7,0,1.3-0.1,2c0,1.7,0.4,2.1,2,2.1
	C501.5,116.9,509.6,117.1,517.7,117.3z M497.2,108.4c13.8,0.3,27.5,0.6,41.4,1c0-0.6,0-1.2,0-1.8c0-2.2-0.8-3.1-3-3.2
	c-11.8-0.3-23.5-0.6-35.3-0.8c-0.2,0-0.4,0-0.7,0c-1.3,0-2.2,0.8-2.4,2.1C497.2,106.5,497.2,107.4,497.2,108.4z"/>
<path class="st30" d="M346.1,60.3c1-0.8,4.4-1.4,5.1-2.4c2.7-4.1,11.3-13.1,8-20.7c-3.2-7.6-8.2-5-8.2-5s-0.2-15.7-17-5.1
	c-2,1.3-2.6-1.2-3.8,1c-0.9,1.6-1.7,3.5-2.4,5.1"/>
<path class="st30" d="M284.8,62.6c-0.6,1.2-3.5,3.1-3.6,4.2c-0.8,4.9-4.8,16.7,1.4,22.2c6.1,5.5,9.5,1.1,9.5,1.1s6.7,14.2,17.6-2.4
	c1.2-2,2.8,0,3.1-2.5c0.2-1.9,0.1-3.8,0-5.7"/>
<path class="st31" d="M255.9,144.7c11.1-19.5,19.6-34,19.6-34l17.8-6.5l10.5-20.8l36,9.8l-4,9.7l-6.9,23.1c0,0,4.9,20.2-2.3,19.7
	c-0.8,0-2.2,5.9-4.1,15.7C300.8,158.9,275,155.3,255.9,144.7z"/>
<path class="st30" d="M352.9,73.5c3.4-25.4-3.7-21.2-4.9-28.2c-2.4-14-6.4-18.8-32-17.8c-4.5,0.2-9.8,0.3-14,2.2
	c-18.9,9-19,23.8-19,23.8S272.3,87.6,310.5,92c38.2,4.3,0.2-0.6,20.8-5.1C351.8,82.4,352.9,73.5,352.9,73.5z"/>
<path class="st31" d="M310.1,74.3c-1.1-6,9.7-21.7,11.6-26.9c3.4-9.4-13.1-5.9-3-7.8c11.3-2,21.3-2.2,27.6,7.3
	c2.5,3.7,5.7,21.9,6.6,26.7c3.1,16.9-6.9,27.8-22.4,30.8c-10,1.9-17.9,0.3-24.4-7.2C302.3,92.9,311.1,80.4,310.1,74.3z"/>
<path class="st31" d="M342.6,64.9c0.5,2.2-1.7,4.6-5.2,5.3c-3.4,0.7-6.7-0.5-7.2-2.7"/>
<path class="st31" d="M316.8,68.7c-1.9-2.8-6.6-0.6-7.5,1.9c-2.1,5.2,2.6,14.4,11.4,8.5"/>
<path class="st5" d="M315.9,74.3c0,0-1-1.3-0.8-1.1"/>
<path class="st30" d="M336.4,79.6c1.5,2.6,3.4,4.8,6.9,5.9c0,0-4.7,6.3-10.6,3.7C328.8,87.5,336.4,79.6,336.4,79.6z"/>
<path class="st31" d="M348.6,70.7c0,0,11.4,6.3,11.4,8.3c0.5,7.9-9.1,2.4-10.1,3.1"/>
<path class="st30" d="M339.8,34.1l6.5,12.8c-8.6-12.9-14.6,21.5-39.5,19.2c-0.7,0-14.4,2.2-14.1,1.3c0.2-1.1,2.2-0.7,3.1-1.5
	c2-1.8,2.8-3.8,3.5-6.3c0.9-3-1.3-9.7,1.6-11.9c4.6-3.5,11.9-16.3,16.8-15.4L339.8,34.1z"/>
<path class="st30" d="M314.3,34.1c-1.1-0.8-2.6-3.9-3.7-4.2c-4.8-1.4-15.8-7.1-22.2-1.7c-6.3,5.3-2.5,9.2-2.5,9.2s-14.9,4.6,0,17.8
	c1.8,1.5-0.4,2.8,2,3.4c1.8,0.4,3.8,0.6,5.7,0.8"/>
<path class="st30" d="M335.7,42.7c0-1.3,1.7-4.3,1.4-5.4c-1.5-4.7-3-17.1-10.9-19.4s-9.1,3.2-9.1,3.2s-12.3-9.8-14.7,10
	c-0.3,2.3-2.5,1.3-1.7,3.6c0.7,1.8,1.6,3.4,2.5,5.2"/>
<path class="st30" d="M299.8,48.9c-1.3-0.2-3.9-2.4-5-2.2c-4.9,0.7-17.3,0.3-20.9,7.8s1.7,9.4,1.7,9.4S264,74.4,282.9,80
	c2.3,0.7,0.9,2.7,3.2,2.3c1.8-0.4,3.6-1,5.4-1.6"/>
<g>
	<path class="st31" d="M511.6,217l35.6-75.5c0,0-5.7-0.7-8.1,0.2c-2.4,0.9-10.2,17.3-10.2,17.3l-5.3-14.5c0,0-3.3-1.6-3.1,6.5
		c0.2,8.1,0.4,16.2,0.4,16.2l-12.5,18.2c0,0-4.2-3.9-2.6-7.2c1.6-3.3,3.7-12.3,5.3-15.5c1.6-3.3-1.8-4.8-1.8-4.8l-16.6,22.3
		l-4.2,20.8l-105.8,22.5l27,53.4L511.6,217z"/>
	<path class="st32" d="M527.1,176.1c2.1-5.2,2.4-11.9,2-17.5"/>
</g>
<path class="st30" d="M190.7,269.9c31.7,0.6,104.2,22.6,137.4,24.8l2.1-45.1c0,0,34.4,36.1,51.2,33.7c29.5-4.2,63.3-13.9,63.3-13.9
	l-7.1-28.8l-7.1-28.8l-40.7-1.4c0,0-19.8-67.8-29.1-69.8l-26.2-14.5c0,0-26,8.7-59.2-15.5c-20.4-14.9-68,15.5-67.5,43.1
	C208.6,183.4,190.8,238.7,190.7,269.9z"/>
<ellipse transform="matrix(6.934335e-02 -0.9976 0.9976 6.934335e-02 -267.6051 813.5986)" class="st20" cx="302.3" cy="550.2" rx="5.9" ry="39.4"/>
<path class="st3" d="M162.9,519.6c3.1-1,16.1,3,26.4,20.8c10.3,17.7,17.1,38.6,14.3,40.2c-2.8,1.6-14.2-16.6-24.5-34.4
	C168.8,528.5,154.3,522.5,162.9,519.6z"/>
<path class="st21" d="M230.2,365.8c6.8-9.2,7.3-17.8,6.1-24.3c-0.9-4.3-1.4-31-2.5-33l-16.8,5.3"/>
<path class="st22" d="M327.8,566.8c-7.3-33,50.5-125.2,50.5-125.2l-94.1,37.2l-10.4,103.8l39.6,20.2l44.5-8
	C357.8,594.8,329.9,576.7,327.8,566.8z"/>
<path class="st28" d="M183.4,335.2c-14.4-15.5,8-56.1,8-56.1s79.6,15.6,79.2,15.5c-1.1-0.2,117.3,7.6,152.9,29.1
	c16.7,10.1,14.6,46.1,7,64l-90.3,163.9c0,0-17.3-5.1-23.3-5.8c-13-1.6-52.3,0-52.3,0L319.9,405l-94.7-26
	C209,374.1,194.9,347.7,183.4,335.2z"/>
<path class="st23" d="M316.7,581.4l9.2-12.6c0,0,16.5,7.8,33.1,15.7C345.6,590.2,330.3,588,316.7,581.4z"/>
<path class="st33" d="M270.8,572.4c0,0,11.4-8.6,17,3.5c2,4.2,18,13.7,23.8,12.5l5.2-7c13.5,6.6,28.9,8.9,42.3,3.1
	c10.2,4.8,20.4,9.8,26.8,12.8c18.3,8.8,12.4,24.1,12.4,24.1l-77.7-1.3l-56-4.6L270.8,572.4z"/>
<line class="st5" x1="213" y1="325.7" x2="232.5" y2="319.1"/>
<path class="st22" d="M186.2,566.1c13.2-19.4,81.4-46.5,81.4-46.5l-55.8-35.7l-68.3,52.6l4.9,38.2l32,32
	C180.3,606.8,180.4,574.6,186.2,566.1z"/>
<path class="st24" d="M213.2,386.9l66.6,48.7L163.7,519l-0.8,0.6c0,0,11.7,5.9,20.3,17.5c7.5,10,20.3,43.6,20.3,43.6l75.2-47.7
	l95.8-60.7l6.6-4.1c11.3-9.6,18.1-28.8,16-44.6c-0.7-4.9-2.1-9.5-4.5-13.3C371,375.5,299,328,296.7,326.7c0.6,0.2,1.4-2.9,2.2-7.5
	c1.9-10.6,4.1-28.7,4.1-28.7L194.8,266c0,0-48.9,72.2-20.7,100.4C186.2,378.4,205.2,379.2,213.2,386.9z"/>
<path class="st30" d="M163.8,519c6.4,2.2,11.2,1.8,14.8,0.5c10.8-3.6,9.8-14.7,23.4-21c18.6-8.6,34.6,5.6,44.4-3.8
	c7.7-7.3,0.7-18.8,8.7-25.4c7.9-6.5,83-29,23.4-62.6c-31.5-17.7-38.8-37.3-68.4-43.4c-10.4-2.1-18.2-1.6-23.8-0.6
	c-4.4,0.8-8.4,2-12.1,3.5c13.8,9.7,31,12.9,38.9,20.5l66.6,48.7L163.8,519z"/>
<path class="st5" d="M165.9,338.1c17.5-2.5,32-13.4,33.8-18.9c1.2-3.7,12.9-24.6,12.7-26.5l-17.4-2.5"/>
<path class="st23" d="M169.7,572.2l17.2,0.3c0,0-0.1,14.8,2.6,31C178.7,598.2,173.6,584.5,169.7,572.2z"/>
<path class="st34" d="M149.8,529.3c0,0,13.6,4.4,6.8,16c-2.3,4-1,22.6,3.4,26.6l9.7,0.2c3.8,12.3,9,26.1,19.8,31.4
	c0.9,5.4,1.8,11,2.7,16.3c1.1,7,6,1.9,15.7,8c4.3,2.7,2.5,15.4,2.5,15.4l-43.6-5.1l-24.3-37.1l-11.6-20.4l-14.3-25.2L149.8,529.3z"
	/>
<path class="st30" d="M199.2,266l103.9,24.5c0,0-19.4,11.6-29.5,13.9c-10.3,2.4-20.3,0.3-26.7-1.5c-6.5-2-31.5-10.6-43.1-1.9
	c-20.3,5.8-17.5-14.5-17.5-14.5L199.2,266z"/>
<path class="st5" d="M276.2,507.2c-4.9,13-8.7,27-17.5,37.8"/>
<line class="st5" x1="180.5" y1="294.5" x2="200.9" y2="297.5"/>
<line class="st5" x1="275.1" y1="314.9" x2="297.2" y2="325.8"/>
<polyline class="st35" points="259,370.2 323.4,435.7 186.2,519.6 216.3,567.1 "/>
<line class="st35" x1="339.7" y1="199.9" x2="330.1" y2="249.5"/>
<path class="st30" d="M166.1,292.1l37.2,54.3c0,0,11.3-12.5,15.8-15.8c1.3-1,3.2-2.1,5.3-3.5c9.1-5.6,23.8-13.3,23.8-13.3
	c-8.4-10.8-39.6-53.4-39.6-53.4l57.8-74.9l9.7-5.5l4.4-2.5l-69.7-36l-56.5,95.1C151.3,252.3,155.4,280.3,166.1,292.1z"/>
<line class="st6" x1="292.5" y1="607.4" x2="265.9" y2="606.8"/>
<line class="st6" x1="398.1" y1="609.6" x2="305.3" y2="607.4"/>
<line class="st6" x1="137.4" y1="571.4" x2="123.4" y2="550.1"/>
<polyline class="st6" points="210.9,634.3 174.6,627.8 142.5,579.1 "/>
<path class="st8" d="M203.8,300.9c7.5,9.7,14.4,18.4,20.6,26.2c9.1-5.6,23.8-13.3,23.8-13.3c-8.4-10.8-39.6-53.4-39.6-53.4
	l57.8-74.9l9.7-5.5c-5.4-4.6-12.5-8.9-21.3-9.7c-21.7-1.9-43.9,18.2-46.4,36.8c-1.2,9.3,3.3,11.3,1.1,19.6
	c-4.5,17.1-25.9,16.3-30,30C177.2,264.5,181.6,272.1,203.8,300.9z"/>
<path class="st3" d="M222.7,214.6c3.1-0.8,4.2-4.7,4.3-6.9c0.2-4.2-2.9-8.8-5.8-8.7c-3.6,0-7.7,7.1-5.4,11.8
	C217,213.1,219.9,215.3,222.7,214.6z"/>
<path class="st30" d="M278.9,532.9c5.2,1.9,10.5,2.8,15.5,2.5c8.7-0.8,10.1-5.3,28.6-15.4c22.6-12.5,27-9.4,35.7-17.3
	c8.5-7.7,14-19.6,15.9-30.4L278.9,532.9z"/>
<polyline class="st5" points="236.8,298.6 248.2,313.7 234.3,321.3 "/>
<line class="st6" x1="255.9" y1="212.6" x2="219.9" y2="259.9"/>
<line class="st6" x1="271.3" y1="208.1" x2="238" y2="251.7"/>
<path class="st6" d="M333.5,207.8c-2.3,12.9-2,43-2.3,43.4"/>
<path class="st6" d="M174.1,231.5c2.8,2.7,4.7,6.8,3.8,10.6c-0.4,1.7-1.4,3.2-2.2,4.6c-6.3,11.9-5.1,27.3,3,37.9
	c3.6,4.8,8.5,8.6,11.8,13.6"/>
<path class="st6" d="M169.3,280c2.3,13.5,14,23,20.6,34.9"/>
<path class="st35" d="M365.5,145.5c11.5,24.8,24.3,64.9,24.3,64.9l40.7,1.4"/>
<path class="st6" d="M338.7,248.1c5.4,5.2,11.1,10.1,17.5,13.9c9.9,5.9,36.8,15,36.8,15c7.4-7,16.4-2.9,23.1-0.4"/>
<path class="st6" d="M392.2,269.8c-7.3,1.1-13.8-5.2-21.2-6.3"/>
<path class="st6" d="M297.7,126.2c-3.9,0.3-7.5-2.1-11-3.9c-6.2-3-13.8-4.7-17.7-10.5c-8.4,0.4-18.6,1.7-26.2,5.4
	c-2.5,1.2-5,2.8-6.9,4.9c-2.8,3-4.7,7.2-8.4,8.9"/>
<path class="st5" d="M387,427.2c1.2,7.3,2.3,15.6-1.8,21.8c-1.9,2.8-4.6,4.8-7.3,6.7c-16.1,11.9-32.5,23.3-49,34.5"/>
<path class="st5" d="M350.3,462.8c-11.9,7.2-23.2,15.4-33.9,24.3c-5,4.2-10,8.6-16.1,11.1"/>
<path class="st5" d="M318.3,476.3c-6,6.9-14.2,11.4-22.2,15.6c-4.2,2.2-8.3,4.4-12.4,6.6"/>
<path class="st5" d="M351.8,516.4c-3.9,6.9-13.1,20.9-17.8,27.2"/>
<path class="st5" d="M337.9,521.9c-1.2,4.8-3.1,9.3-5.8,13.5"/>
<path class="st1" d="M203.3,346.4c8.2-9.5,30-26.3,44.9-32.7"/>
<path class="st1" d="M209.7,354.4c12.8-15.9,27.3-27.7,43.7-34.9"/>
<g>
	<polyline class="st27" points="91.6,547 109.2,519.1 5.7,519.1 23.4,547 	"/>
	<polyline class="st27" points="23.4,738.8 16.5,752.9 16.5,768.1 98.5,768.1 98.5,752.9 91.6,738.8 	"/>
	<rect x="23.4" y="547" class="st27" width="68.2" height="191.9"/>
	<line class="st27" x1="98.5" y1="752.9" x2="16.5" y2="752.9"/>
	<line class="st27" x1="14.5" y1="532.4" x2="100.8" y2="532.4"/>
	<g>
		<line class="st27" x1="40.3" y1="565.9" x2="40.3" y2="719.8"/>
		<line class="st27" x1="57.5" y1="565.9" x2="57.5" y2="719.8"/>
		<line class="st27" x1="74.6" y1="565.9" x2="74.6" y2="719.8"/>
	</g>
</g>
<g>
	<polyline class="st27" points="531.5,551.8 549.1,523.9 445.6,523.9 463.2,551.8 	"/>
	<polyline class="st27" points="463.2,743.6 456.4,757.8 456.4,772.9 538.3,772.9 538.3,757.8 531.5,743.6 	"/>
	<rect x="463.2" y="551.8" class="st27" width="68.2" height="191.9"/>
	<line class="st27" x1="538.3" y1="757.8" x2="456.4" y2="757.8"/>
	<line class="st27" x1="454.4" y1="537.2" x2="540.7" y2="537.2"/>
	<g>
		<line class="st27" x1="480.2" y1="570.8" x2="480.2" y2="724.6"/>
		<line class="st27" x1="497.4" y1="570.8" x2="497.4" y2="724.6"/>
		<line class="st27" x1="514.5" y1="570.8" x2="514.5" y2="724.6"/>
	</g>
</g>
</svg>
