<?xml version="1.0" encoding="utf-8"?>
<!-- Generator: Adobe Illustrator 26.3.1, SVG Export Plug-In . SVG Version: 6.00 Build 0)  -->
<svg version="1.1" id="Layer_1" xmlns="http://www.w3.org/2000/svg" xmlns:xlink="http://www.w3.org/1999/xlink" x="0px" y="0px"
	 viewBox="0 0 197 289" style="enable-background:new 0 0 197 289;" xml:space="preserve">
<style type="text/css">
	.st0{fill:#FFFFFF;}
	.st1{fill:#FAF6EB;}
	.st2{fill:#1C2628;}
	.st3{fill-rule:evenodd;clip-rule:evenodd;}
	.st4{fill-rule:evenodd;clip-rule:evenodd;fill:#FFD8B4;}
	.st5{fill-rule:evenodd;clip-rule:evenodd;fill:#1C2628;}
	.st6{fill:#FFD8B4;}
	.st7{fill-rule:evenodd;clip-rule:evenodd;fill:#FAF6EB;}
	.st8{fill-rule:evenodd;clip-rule:evenodd;fill:#C6BCA3;}
	.st9{fill:#131313;}
</style>
<rect class="st0" width="197" height="289"/>
<path d="M174.8,215.6c0,25.1-20.3,45.4-45.4,45.4v1c25.6,0,46.4-20.8,46.4-46.4H174.8z M174.8,95.7v120h1v-120H174.8z M97.8,18.7
	c42.5,0,77,34.5,77,77h1c0-43.1-34.9-78-78-78V18.7z M20.7,95.7c0-42.5,34.5-77,77-77v-1c-43.1,0-78,34.9-78,78H20.7z M20.7,215.6
	v-120h-1v120H20.7z M66.2,261.1c-25.1,0-45.4-20.3-45.4-45.4h-1c0,25.6,20.8,46.4,46.4,46.4V261.1z M129.4,261.1H66.2v1h63.2V261.1z
	"/>
<rect x="25.5" y="221.2" class="st0" width="155.1" height="40.4"/>
<path d="M26,261.6v-40.4h-1v40.4H26z M180.6,261.1H25.5v1h155.1V261.1z M180.1,221.2v40.4h1v-40.4H180.1z M25.5,221.7h155.1v-1H25.5
	V221.7z M25.5,261.6H25c0,0.3,0.2,0.5,0.5,0.5V261.6z M180.6,261.6v0.5c0.3,0,0.5-0.2,0.5-0.5H180.6z M180.6,221.2h0.5
	c0-0.3-0.2-0.5-0.5-0.5V221.2z M25.5,221.2v-0.5c-0.3,0-0.5,0.2-0.5,0.5H25.5z"/>
<path class="st1" d="M30.5,216.5c-0.2-0.1-0.4,0-0.4,0.2V242c0,0.1,0,0.2,0.1,0.2L97.6,282c0.1,0,0.2,0,0.2,0l68.3-39.9V216
	c0-0.1,0-0.2-0.1-0.2l-67-39.8l-68.9,40.3"/>
<path class="st2" d="M98.8,175.6l-68.9,40.3l0.5,0.9l68.9-40.3L98.8,175.6z M166.3,215.3l-67-39.8l-0.5,0.9l67,39.8L166.3,215.3z
	 M166.7,216c0-0.1,0-0.2-0.1-0.3c0-0.1-0.1-0.2-0.3-0.3l-0.4,0.9c-0.1,0-0.1-0.1-0.1-0.1c0,0,0,0,0-0.1c0,0,0,0,0-0.1H166.7z
	 M166.7,242.1V216h-1v26.1H166.7z M98.1,282.5l68.3-39.9l-0.5-0.9l-68.3,39.9L98.1,282.5z M97.4,282.5c0.1,0.1,0.2,0.1,0.3,0.1
	c0.1,0,0.2,0,0.3-0.1l-0.4-0.9c0,0,0.1,0,0.1,0c0,0,0.1,0,0.1,0L97.4,282.5z M30,242.6l67.3,39.9l0.5-0.9l-67.3-39.9L30,242.6z
	 M29.7,242c0,0.1,0,0.2,0.1,0.3c0,0.1,0.1,0.2,0.3,0.3l0.4-0.9c0.1,0,0.1,0.1,0.1,0.1c0,0,0,0,0,0.1c0,0,0,0,0,0.1H29.7z
	 M29.7,216.7V242h1v-25.3H29.7z M30.8,216.1c-0.3-0.2-0.6-0.1-0.8,0c-0.2,0.1-0.3,0.4-0.3,0.6h1c0,0.1,0,0.2-0.1,0.2
	c0,0-0.1,0-0.2,0c-0.1,0-0.1,0-0.1,0L30.8,216.1z M99.1,176l0.3-0.4l-0.3-0.2l-0.3,0.1L99.1,176z M166.1,215.8l-0.3,0.4l0,0l0,0
	L166.1,215.8z M166.2,242.1l0.3,0.4l0.2-0.1v-0.3H166.2z M97.9,282l0.2,0.4l0,0l0,0L97.9,282z M97.6,282l-0.3,0.4l0,0l0,0L97.6,282z
	 M30.3,242.2l0.3-0.4l0,0l0,0L30.3,242.2z"/>
<path d="M98.1,282c0.5,0,0.5,0,0.5,0c0,0,0,0,0,0c0,0,0,0,0,0c0,0,0,0,0,0c0,0,0,0,0-0.1c0,0,0-0.1,0-0.2c0-0.2,0-0.5,0-0.8
	c0-0.7,0-1.7,0-2.9c0-2.4,0-5.7,0-8.9c0-3.2,0-6.5,0-8.9c0-1.2,0-2.2,0-2.9c0-0.4,0-0.6,0-0.8c0-0.1,0-0.2,0-0.2c0,0,0,0,0,0
	c0,0,0,0,0,0c0,0,0,0,0,0c0,0,0,0,0,0.1c0,0,0,0.1-0.1,0.1c0,0-0.2,0.1-0.2,0.2l-0.3-0.9c-0.1,0-0.2,0.1-0.2,0.2
	c0,0-0.1,0.1-0.1,0.1c0,0,0,0.1,0,0.1c0,0,0,0.1,0,0.1c0,0,0,0.1,0,0.1c0,0.1,0,0.1,0,0.2c0,0.2,0,0.5,0,0.8c0,0.7,0,1.7,0,3
	c0,2.4,0,5.7,0,8.9c0,3.2,0,6.5,0,8.9c0,1.2,0,2.2,0,2.9c0,0.4,0,0.6,0,0.8c0,0.1,0,0.2,0,0.2c0,0,0,0,0,0.1c0,0,0,0,0,0
	c0,0,0,0,0,0c0,0,0,0,0,0C97.6,282,97.6,282,98.1,282z M165.9,242.2l-68.1,39.4l0.5,0.9l68.1-39.4L165.9,242.2z M165.7,216.8v25.8h1
	v-25.8H165.7z M98.3,256.5l68.1-39.3l-0.5-0.9l-68.1,39.3L98.3,256.5z M98.1,282l-0.5,0c0,0.2,0.1,0.3,0.3,0.4
	c0.2,0.1,0.3,0.1,0.5,0L98.1,282z M166.2,242.6l0.3,0.4c0.2-0.1,0.2-0.3,0.2-0.4H166.2z M166.2,216.8h0.5c0-0.2-0.1-0.3-0.2-0.4
	s-0.3-0.1-0.5,0L166.2,216.8z M98.1,256.1l0.2,0.5c0,0,0.1,0,0.1,0L98.1,256.1z"/>
<path d="M97.6,256.1v26h1v-26H97.6z M97.6,282c0,0.3,0.2,0.5,0.5,0.5c0.3,0,0.5-0.2,0.5-0.5H97.6z M98.6,256.1
	c0-0.3-0.2-0.5-0.5-0.5c-0.3,0-0.5,0.2-0.5,0.5H98.6z"/>
<polygon points="141,230.9 120,243.2 98.2,229.3 118.7,217.8 "/>
<polygon points="143.1,202.2 118.4,216.2 97.2,202.7 121.1,188.7 "/>
<polygon class="st0" points="75.8,215.8 99,202.5 76.8,189.5 53.6,202.9 "/>
<path d="M53.4,203.3l22.1,12.9l0.5-0.9l-22.1-12.9L53.4,203.3z M76.6,189l-23.2,13.4l0.5,0.9l23.2-13.4L76.6,189z M99.3,202.1
	L77.1,189l-0.5,0.9L98.8,203L99.3,202.1z M76,216.2L99.3,203l-0.5-0.9l-23.3,13.2L76,216.2z M53.6,202.9l-0.3-0.4
	c-0.2,0.1-0.2,0.3-0.2,0.4s0.1,0.3,0.2,0.4L53.6,202.9z M76.8,189.5l0.3-0.4c-0.2-0.1-0.3-0.1-0.5,0L76.8,189.5z M99,202.5l0.2,0.4
	c0.2-0.1,0.3-0.3,0.3-0.4c0-0.2-0.1-0.3-0.2-0.4L99,202.5z M75.8,215.8l-0.3,0.4c0.2,0.1,0.3,0.1,0.5,0L75.8,215.8z"/>
<polygon points="99,201.8 75.9,215.3 53.3,202.2 76.7,188.7 "/>
<polygon class="st0" points="74.9,242.5 98.2,229.3 76,216.2 52.8,229.6 "/>
<path d="M52.5,230.1L74.7,243l0.5-0.9L53,229.2L52.5,230.1z M75.7,215.8l-23.2,13.4l0.5,0.9l23.2-13.4L75.7,215.8z M98.4,228.9
	l-22.2-13.1l-0.5,0.9l22.2,13.1L98.4,228.9z M75.2,243l23.3-13.2l-0.5-0.9l-23.3,13.2L75.2,243z M52.8,229.6l-0.3-0.4
	c-0.2,0.1-0.2,0.3-0.2,0.4c0,0.2,0.1,0.3,0.2,0.4L52.8,229.6z M76,216.2l0.3-0.4c-0.2-0.1-0.3-0.1-0.5,0L76,216.2z M98.2,229.3
	l0.2,0.4c0.2-0.1,0.3-0.3,0.3-0.4c0-0.2-0.1-0.3-0.2-0.4L98.2,229.3z M74.9,242.5l-0.3,0.4c0.2,0.1,0.3,0.1,0.5,0L74.9,242.5z"/>
<path class="st0" d="M29.9,242.8L98.1,282v-25.8l-68.1-39.4C29.9,216.8,29.8,242.7,29.9,242.8z"/>
<path d="M29.6,216.4c-0.1,0.1-0.1,0.2-0.1,0.2c0,0,0,0,0,0.1c0,0,0,0,0,0c0,0,0,0,0,0c0,0,0,0,0,0.1c0,0.1,0,0.1,0,0.2
	c0,0.2,0,0.5,0,0.8c0,0.7,0,1.7,0,2.9c0,2.4,0,5.7,0,8.9c0,3.2,0,6.5,0,8.9c0,1.2,0,2.2,0,2.9c0,0.4,0,0.6,0,0.8c0,0.1,0,0.2,0,0.2
	c0,0,0,0.1,0,0.1c0,0,0,0,0,0.1c0,0,0,0,0,0.1c0,0,0,0.1,0,0.1c0,0,0.1,0.2,0.2,0.2l0.4-0.9c0.1,0.1,0.2,0.2,0.2,0.2
	c0,0,0,0.1,0,0.1c0,0,0,0.1,0,0.1c0,0,0,0,0,0c0,0,0,0,0,0c0,0,0,0,0,0c0,0,0,0,0,0c0,0,0,0,0,0c0,0,0,0,0,0c0,0,0,0,0,0
	c0,0,0-0.1,0-0.2c0-0.2,0-0.5,0-0.8c0-0.7,0-1.7,0-2.9c0-2.4,0-5.7,0-8.9c0-3.2,0-6.5,0-8.9c0-1.2,0-2.2,0-2.9c0-0.4,0-0.6,0-0.8
	c0-0.1,0-0.2,0-0.2c0,0,0,0,0,0c0,0,0,0,0,0c0,0,0,0,0,0c0,0,0,0,0,0.1c0,0-0.1,0.2-0.1,0.2L29.6,216.4z M98.3,255.8l-68.1-39.4
	l-0.5,0.9l68.1,39.4L98.3,255.8z M98.6,282v-25.8h-1V282H98.6z M29.7,243.2l68.1,39.3l0.5-0.9l-68.1-39.3L29.7,243.2z M29.9,216.8
	l0.3-0.4c-0.2-0.1-0.4-0.1-0.6,0.1L29.9,216.8z M98.1,256.2h0.5c0-0.2-0.1-0.3-0.2-0.4L98.1,256.2z M98.1,282l-0.2,0.4
	c0.2,0.1,0.3,0.1,0.5,0c0.2-0.1,0.2-0.3,0.2-0.4H98.1z M29.9,242.8l0.2-0.4c0,0,0,0,0,0L29.9,242.8z"/>
<polygon points="98.1,229.3 74.9,242.8 52.3,229.7 75.8,216.2 "/>
<path d="M175.4,39.7c4.9,0.1,9.7,0.2,14.6,0.4c0-0.2,0-0.4,0-0.6c0-0.8-0.3-1.1-1.1-1.1c-4.2-0.1-8.3-0.2-12.5-0.3
	c-0.1,0-0.1,0-0.2,0c-0.5,0-0.8,0.3-0.8,0.7C175.4,39,175.4,39.4,175.4,39.7z M182.6,42.9c1.8,0,3.5,0.1,5.3,0.1
	c1.1,0,2.3,0.1,3.4,0.1c0.5,0,0.6-0.2,0.6-0.6c0-0.2,0-0.4,0-0.5c0-0.7-0.1-0.8-0.8-0.8c-5.7-0.1-11.3-0.3-17-0.4
	c-0.1,0-0.2,0-0.3,0c-0.3,0-0.5,0.2-0.5,0.5c0,0.2,0,0.5,0,0.7c0,0.6,0.1,0.7,0.7,0.7C176.9,42.7,179.8,42.8,182.6,42.9z
	 M189.4,46.9c0.1-1,0.3-2,0.4-2.9c-4.9-0.1-9.8-0.2-14.6-0.4c0.1,1,0.2,2,0.3,3C180.2,46.7,184.8,46.8,189.4,46.9z M188.1,56.7
	c-4-0.1-7.9-0.2-11.8-0.3c0.1,1.7,0.3,3.4,0.5,5.2c3.6,0.1,7.1,0.2,10.6,0.2C187.6,60,187.9,58.4,188.1,56.7z M176.3,55.4
	c4,0.1,8,0.2,12,0.3c0.4-2.6,0.7-5.2,1.1-7.7c-4.6-0.1-9.2-0.2-13.8-0.3C175.8,50.2,176,52.8,176.3,55.4z M174.2,43.6
	c-0.2,0-0.4,0-0.5,0c-0.7-0.1-1.3-0.7-1.3-1.4c0-0.4,0-0.7,0-1c0-0.8,0.6-1.4,1.5-1.4c0.2,0,0.3,0,0.6,0c0-0.3,0-0.5,0-0.7
	c0-1.2,0.8-1.9,2-1.9c4.2,0.1,8.4,0.2,12.6,0.3c1.2,0,1.9,0.8,1.9,2c0,0.2,0,0.5,0,0.8c0.2,0,0.4,0,0.6,0c0.8,0,1.4,0.7,1.4,1.5
	c0,0.3,0,0.7,0,1c0,0.8-0.7,1.4-1.5,1.4c-0.2,0-0.4,0-0.6,0c-0.1,0.5-0.1,1-0.2,1.4c-0.5,3.8-1.1,7.7-1.6,11.5
	c-0.2,1.8-0.5,3.5-0.7,5.3c-0.1,0.4-0.2,0.5-0.6,0.5c-3.7-0.1-7.5-0.2-11.2-0.2c-0.4,0-0.6-0.1-0.6-0.6c-0.1-1.7-0.3-3.4-0.5-5
	c-0.2-2.3-0.4-4.6-0.6-7c-0.2-2-0.4-4.1-0.6-6.1C174.3,43.8,174.2,43.7,174.2,43.6z"/>
<path class="st3" d="M122.1,21.1c0.4-0.3,1.6-0.5,1.8-0.8c1-1.4,4-4.6,2.8-7.3c-1.1-2.7-2.9-1.8-2.9-1.8s-0.1-5.5-6-1.8
	c-0.7,0.5-0.9-0.4-1.3,0.4c-0.3,0.6-0.6,1.2-0.8,1.8"/>
<path d="M115.5,9.2c-0.4,0.6-0.7,1.4-0.9,1.9l2,0.9c0.3-0.6,0.5-1.2,0.8-1.7L115.5,9.2z M117.2,8.5c0,0,0.1,0,0.2,0c0.1,0,0.1,0,0,0
	c-0.1,0-0.5-0.2-1,0c-0.5,0.2-0.7,0.5-0.9,0.8l1.9,1c0.1-0.1,0,0.1-0.3,0.2c-0.3,0.1-0.5,0-0.4,0c0,0,0.3,0.1,0.6,0.1
	c0.4,0,0.7-0.1,1.1-0.3L117.2,8.5z M123.8,11.2c1.1,0,1.1,0,1.1,0c0,0,0,0,0,0c0,0,0,0,0,0c0,0,0,0,0,0c0,0,0,0,0,0c0,0,0,0,0-0.1
	c0-0.1,0-0.1,0-0.2c0-0.2,0-0.4-0.1-0.7c-0.1-0.5-0.4-1.3-0.9-1.9c-0.6-0.7-1.4-1.2-2.6-1.2c-1.1,0-2.4,0.5-4,1.5l1.1,1.8
	c1.4-0.9,2.3-1.1,2.9-1.1c0.5,0,0.8,0.2,1,0.4c0.2,0.3,0.4,0.7,0.5,1c0,0.2,0.1,0.3,0.1,0.5c0,0.1,0,0.1,0,0.1c0,0,0,0,0,0
	c0,0,0,0,0,0c0,0,0,0,0,0c0,0,0,0,0,0c0,0,0,0,0,0C122.7,11.2,122.7,11.2,123.8,11.2z M127.7,12.6C127,11,126,10.2,125,10
	c-0.5-0.1-0.9,0-1.2,0c-0.1,0-0.3,0.1-0.4,0.1c0,0-0.1,0-0.1,0c0,0,0,0,0,0c0,0,0,0,0,0c0,0,0,0,0,0c0,0,0,0,0,0c0,0,0,0,0,0
	c0,0,0,0,0.5,0.9s0.5,0.9,0.5,0.9c0,0,0,0,0,0c0,0,0,0,0,0c0,0,0,0,0,0c0,0,0,0,0,0c0,0,0,0,0,0c0,0,0,0,0,0c0,0,0,0,0.1,0
	c0.1,0,0.2,0,0.3,0c0.1,0,0.6,0.2,1.1,1.3L127.7,12.6z M124.8,20.9c0.2-0.3,0.5-0.7,1-1.3c0.4-0.6,0.9-1.2,1.3-1.9
	c0.8-1.4,1.5-3.2,0.7-5.1l-2,0.8c0.4,0.9,0.1,1.9-0.6,3.2c-0.3,0.6-0.7,1.2-1.1,1.7c-0.4,0.5-0.8,1-1,1.4L124.8,20.9z M122.7,22
	c0,0,0,0,0.1,0c0.1-0.1,0.3-0.1,0.5-0.2c0.2-0.1,0.4-0.2,0.6-0.3c0.2-0.1,0.5-0.3,0.7-0.6l-1.7-1.2c0.1-0.2,0.2-0.2,0.1-0.1
	c-0.1,0-0.2,0.1-0.4,0.2c-0.2,0.1-0.4,0.1-0.6,0.2c-0.2,0.1-0.4,0.2-0.7,0.4L122.7,22z M114.7,11.1c-0.2,0.5,0,1.2,0.5,1.4
	c0.5,0.2,1.2,0,1.4-0.5L114.7,11.1z M116.5,9.8l0.9,0.5l0,0L116.5,9.8z M117.8,9.4l-0.6-0.9c0,0,0,0,0,0L117.8,9.4z M123.8,11.2
	l-1.1,0c0,0.4,0.2,0.7,0.5,0.9c0.3,0.2,0.7,0.2,1,0L123.8,11.2z M126.7,13l-1,0.4l0,0L126.7,13z M123.9,20.3l0.9,0.6c0,0,0,0,0,0
	L123.9,20.3z M121.4,20.3c-0.5,0.4-0.5,1-0.2,1.5c0.4,0.5,1,0.5,1.5,0.2L121.4,20.3z"/>
<path class="st3" d="M100.5,22c-0.2,0.4-1.2,1.1-1.3,1.5c-0.3,1.7-1.7,5.9,0.5,7.8c2.2,1.9,3.4,0.4,3.4,0.4s2.4,5,6.2-0.8
	c0.4-0.7,1,0,1.1-0.9c0.1-0.7,0-1.3,0-2"/>
<path d="M111.4,30.1c0.1-0.8,0-1.5,0-2.2l-2.1,0.1c0,0.7,0.1,1.3,0,1.8L111.4,30.1z M110.2,31.4c0,0-0.1,0.1-0.2,0.1
	c-0.1,0-0.1,0,0,0c0.1,0,0.5,0,0.9-0.4c0.4-0.3,0.5-0.8,0.5-1.1l-2.1-0.3c0,0.1,0-0.1,0.2-0.2c0.2-0.2,0.4-0.2,0.3-0.2
	c0,0-0.3,0-0.6,0.1c-0.3,0.1-0.6,0.4-0.8,0.7L110.2,31.4z M103.1,31.7c-1,0.5-1,0.5-1,0.5c0,0,0,0,0,0c0,0,0,0,0,0c0,0,0,0,0,0
	c0,0,0,0,0,0c0,0,0,0,0,0.1c0,0,0.1,0.1,0.1,0.2c0.1,0.2,0.2,0.4,0.4,0.6c0.3,0.4,0.9,1,1.6,1.4c0.8,0.4,1.8,0.5,2.9,0
	c1-0.5,2-1.4,3-3l-1.8-1.2c-0.9,1.4-1.6,2-2.2,2.2c-0.5,0.2-0.8,0.2-1,0c-0.3-0.2-0.6-0.4-0.8-0.8c-0.1-0.1-0.2-0.3-0.3-0.4
	c0,0,0-0.1-0.1-0.1c0,0,0,0,0,0c0,0,0,0,0,0c0,0,0,0,0,0c0,0,0,0,0,0c0,0,0,0,0,0C104,31.2,104,31.2,103.1,31.7z M99,32.1
	c1.3,1.1,2.5,1.4,3.5,1.2c0.5-0.1,0.8-0.3,1-0.5c0.1-0.1,0.2-0.2,0.3-0.2c0,0,0.1-0.1,0.1-0.1c0,0,0,0,0,0c0,0,0,0,0,0c0,0,0,0,0,0
	c0,0,0,0,0,0c0,0,0,0,0,0c0,0,0,0-0.8-0.7s-0.8-0.7-0.8-0.7c0,0,0,0,0,0c0,0,0,0,0,0c0,0,0,0,0,0c0,0,0,0,0,0c0,0,0,0,0,0
	c0,0,0,0,0,0c0,0,0,0-0.1,0c-0.1,0-0.1,0.1-0.3,0.1c-0.1,0-0.6,0.1-1.5-0.7L99,32.1z M98.2,23.3c-0.1,0.4-0.2,0.9-0.3,1.6
	c-0.1,0.7-0.3,1.5-0.3,2.3c-0.1,1.6,0,3.6,1.5,4.9l1.4-1.6c-0.7-0.6-0.9-1.7-0.8-3.1c0.1-0.7,0.2-1.4,0.3-2c0.1-0.6,0.3-1.3,0.4-1.7
	L98.2,23.3z M99.5,21.5C99.6,21.4,99.6,21.5,99.5,21.5c-0.2,0.2-0.3,0.3-0.5,0.5c-0.1,0.1-0.3,0.3-0.5,0.5c-0.1,0.1-0.4,0.5-0.4,0.9
	l2.1,0.2c0,0.2-0.1,0.3-0.1,0.3c0,0,0,0,0,0c0.1-0.1,0.2-0.2,0.3-0.3c0.1-0.1,0.3-0.3,0.4-0.4c0.1-0.1,0.3-0.4,0.5-0.6L99.5,21.5z
	 M111.4,27.9c0-0.6-0.5-1-1.1-1c-0.6,0-1,0.5-1,1.1L111.4,27.9z M110.4,29.9l1.1,0.1c0,0,0,0,0,0L110.4,29.9z M109.3,30.8l0.9,0.6
	c0,0,0,0,0,0L109.3,30.8z M103.1,31.7l1-0.5c-0.2-0.3-0.5-0.6-0.8-0.6c-0.4,0-0.7,0.1-1,0.4L103.1,31.7z M99.7,31.3l0.7-0.8l0,0
	L99.7,31.3z M99.2,23.5l1.1,0.2c0,0,0-0.1,0-0.1L99.2,23.5z M101.4,22.4c0.3-0.5,0-1.2-0.5-1.4c-0.5-0.3-1.2,0-1.4,0.5L101.4,22.4z"
	/>
<path class="st4" d="M90.3,50.9c3.9-6.9,6.9-12,6.9-12l6.3-2.3l3.7-7.3l12.7,3.5l-1.4,3.4l-2.4,8.2c0,0,1.7,7.1-0.8,7
	c-0.3,0-0.8,2.1-1.4,5.5C106.1,55.9,97,54.7,90.3,50.9z"/>
<path d="M113.9,55.8c-7.7-0.8-16.6-2.1-23.1-5.8l-1,1.7c6.9,3.9,16.2,5.2,23.9,6L113.9,55.8z M115.2,50.3c-0.3,0-0.6,0.2-0.7,0.3
	c-0.1,0.1-0.2,0.2-0.3,0.3c-0.1,0.2-0.2,0.3-0.2,0.5c-0.1,0.3-0.2,0.7-0.4,1.2c-0.3,1-0.5,2.4-0.9,4.1l2,0.4c0.3-1.7,0.6-3.1,0.9-4
	c0.1-0.5,0.2-0.8,0.3-1c0-0.1,0.1-0.1,0-0.1c0,0,0,0.1-0.1,0.1c-0.1,0.1-0.3,0.2-0.6,0.2V50.3z M116,44.3c-1,0.2-1,0.2-1,0.2
	c0,0,0,0,0,0c0,0,0,0,0,0c0,0,0,0,0,0c0,0,0,0,0,0c0,0,0,0,0,0.1c0,0,0,0.1,0,0.2c0,0.2,0.1,0.5,0.2,0.8c0.1,0.6,0.2,1.5,0.3,2.3
	c0.1,0.9,0,1.6-0.1,2c-0.1,0.2-0.1,0.3-0.1,0.3c0,0,0,0,0,0c0,0,0,0,0,0l-0.1,2c0.6,0,1.1-0.1,1.5-0.5c0.4-0.3,0.6-0.8,0.7-1.2
	c0.2-0.8,0.3-1.8,0.2-2.8c-0.1-0.9-0.2-1.9-0.3-2.5c-0.1-0.3-0.1-0.6-0.2-0.8c0-0.1,0-0.2-0.1-0.2c0,0,0,0,0-0.1c0,0,0,0,0,0
	c0,0,0,0,0,0c0,0,0,0,0,0c0,0,0,0,0,0C117,44.1,117,44.1,116,44.3z M117.5,35.9l-2.4,8.2l1.9,0.6l2.4-8.2L117.5,35.9z M118.9,32.3
	l-1.4,3.4l1.8,0.8l1.4-3.4L118.9,32.3z M106.9,30.2l12.7,3.5l0.5-1.9l-12.7-3.5L106.9,30.2z M104.3,37.1l3.7-7.3l-1.8-0.9l-3.7,7.3
	L104.3,37.1z M97.5,39.8l6.3-2.3l-0.7-1.9L96.8,38L97.5,39.8z M91.1,51.4c2-3.4,3.7-6.4,4.9-8.6c0.6-1.1,1.1-1.9,1.5-2.5
	c0.2-0.3,0.3-0.5,0.4-0.7c0-0.1,0.1-0.1,0.1-0.2c0,0,0,0,0,0c0,0,0,0,0,0c0,0,0,0,0,0c0,0,0,0,0,0c0,0,0,0,0,0c0,0,0,0-0.9-0.5
	c-0.9-0.5-0.9-0.5-0.9-0.5c0,0,0,0,0,0c0,0,0,0,0,0c0,0,0,0,0,0c0,0,0,0,0,0c0,0,0,0,0,0c0,0-0.1,0.1-0.1,0.2
	c-0.1,0.2-0.2,0.4-0.4,0.7c-0.3,0.6-0.8,1.4-1.5,2.5c-1.2,2.1-3,5.1-4.9,8.6L91.1,51.4z M113.8,56.8l-0.1,1l0.9,0.1l0.2-0.9
	L113.8,56.8z M115.2,51.3l0.1-1l0,0h0V51.3z M116,44.3l-1-0.3l-0.1,0.3l0.1,0.3L116,44.3z M118.4,36.2l-0.9-0.4l0,0l0,0L118.4,36.2z
	 M119.9,32.7l0.9,0.4l0.4-1l-1.1-0.3L119.9,32.7z M107.2,29.3l0.3-1l-0.8-0.2l-0.4,0.7L107.2,29.3z M103.5,36.6l0.3,0.9l0.4-0.1
	l0.2-0.4L103.5,36.6z M97.2,38.9L96.8,38l-0.3,0.1l-0.2,0.3L97.2,38.9z M90.3,50.9l-0.9-0.5l-0.5,0.9l0.9,0.5L90.3,50.9z"/>
<path class="st3" d="M124.5,25.8c1.2-9-1.3-7.5-1.7-9.9c-0.8-4.9-2.3-6.6-11.3-6.3c-1.6,0.1-3.5,0.1-4.9,0.8
	c-6.7,3.2-6.7,8.4-6.7,8.4s-3.8,12.1,9.7,13.6c13.5,1.5,0.1-0.2,7.3-1.8C124.1,29,124.5,25.8,124.5,25.8z"/>
<path d="M117.1,31.6c3.8-0.8,5.9-2.1,7.1-3.3c0.6-0.6,0.9-1.1,1.1-1.6c0.1-0.2,0.2-0.4,0.2-0.5c0-0.1,0-0.1,0-0.2c0,0,0,0,0-0.1
	c0,0,0,0,0,0c0,0,0,0,0,0c0,0,0,0,0,0c0,0,0,0,0,0c0,0,0,0-1.1-0.1c-1.1-0.1-1.1-0.1-1.1-0.1c0,0,0,0,0,0c0,0,0,0,0,0c0,0,0,0,0,0
	c0,0,0,0,0,0c0,0,0,0,0,0c0,0,0,0,0,0c0,0,0,0.1-0.1,0.2c-0.1,0.2-0.3,0.5-0.7,0.9c-0.8,0.8-2.5,1.9-6,2.7L117.1,31.6z M109.4,33.4
	c3.3,0.4,5.1,0.6,5.9,0.6c0.2,0,0.4,0,0.6,0c0.1,0,0.2,0,0.4-0.1c0.2-0.1,0.6-0.4,0.6-1c0-0.4-0.3-0.7-0.3-0.8
	c-0.1-0.1-0.2-0.2-0.2-0.2c-0.1-0.1-0.2-0.2-0.3-0.2c-0.2-0.1-0.4-0.2-0.5-0.3c-0.1,0-0.1-0.1-0.1,0c0,0,0.1,0.1,0.1,0.3
	c0,0.5-0.3,0.6-0.1,0.4c0.2-0.1,0.7-0.3,1.6-0.5l-0.5-2.1c-0.9,0.2-1.6,0.4-2.1,0.7c-0.4,0.2-1.1,0.7-1,1.6c0,0.4,0.2,0.6,0.3,0.8
	c0.1,0.2,0.3,0.3,0.4,0.4c0.3,0.2,0.6,0.4,0.7,0.5c0,0,0.1,0,0.1,0.1c0,0,0,0,0,0c0,0,0,0,0,0c0,0,0,0-0.1-0.1c0,0-0.3-0.3-0.3-0.7
	c0-0.6,0.4-0.8,0.6-0.9c0.1,0,0.1-0.1,0.2-0.1c0,0,0.1,0,0.1,0c0,0,0,0-0.2,0c-0.7,0-2.3-0.2-5.7-0.6L109.4,33.4z M99.8,18.8
	c-1-0.3-1-0.3-1-0.3c0,0,0,0,0,0c0,0,0,0,0,0c0,0,0,0,0,0c0,0,0,0,0,0c0,0,0,0.1,0,0.1c0,0.1-0.1,0.2-0.1,0.4
	c-0.1,0.4-0.2,0.9-0.3,1.5c-0.2,1.2-0.2,2.9,0.2,4.7c0.4,1.8,1.3,3.6,3,5.2c1.7,1.5,4.2,2.6,7.8,3l0.2-2.1c-3.2-0.4-5.3-1.3-6.6-2.5
	c-1.3-1.2-2-2.6-2.4-4c-0.3-1.4-0.3-2.9-0.2-3.9c0.1-0.5,0.2-1,0.2-1.3c0-0.2,0.1-0.3,0.1-0.3c0,0,0-0.1,0-0.1c0,0,0,0,0,0
	c0,0,0,0,0,0c0,0,0,0,0,0c0,0,0,0,0,0C100.8,19.1,100.8,19.1,99.8,18.8z M106.1,9.4c-3.6,1.7-5.4,4-6.4,5.9
	c-0.5,0.9-0.7,1.8-0.8,2.4c-0.1,0.3-0.1,0.6-0.1,0.7c0,0.1,0,0.2,0,0.2c0,0,0,0,0,0.1c0,0,0,0,0,0c0,0,0,0,0,0c0,0,0,0,0,0
	c0,0,0,0,0,0c0,0,0,0,1.1,0c1.1,0,1.1,0,1.1,0c0,0,0,0,0,0c0,0,0,0,0,0c0,0,0,0,0,0c0,0,0,0,0,0c0,0,0,0,0,0c0,0,0-0.1,0-0.1
	c0-0.1,0-0.3,0.1-0.5c0.1-0.5,0.3-1.1,0.7-1.9c0.7-1.5,2.2-3.4,5.4-4.9L106.1,9.4z M111.4,8.5c-1.5,0.1-3.6,0.1-5.3,0.9l0.9,1.9
	c1.3-0.6,2.9-0.6,4.5-0.7L111.4,8.5z M123.8,15.7c-0.4-2.5-1-4.6-3.1-5.8c-1.9-1.2-4.8-1.5-9.3-1.3l0.1,2.1c4.5-0.2,6.8,0.2,8.1,1
	c1.2,0.7,1.7,2,2.1,4.4L123.8,15.7z M125.5,26c0.6-4.5,0.3-6.7-0.4-8c-0.3-0.7-0.8-1.1-1-1.4c-0.2-0.3-0.3-0.5-0.4-0.9l-2.1,0.4
	c0.1,0.9,0.5,1.4,0.8,1.8c0.3,0.4,0.5,0.6,0.7,1c0.4,0.8,0.7,2.3,0.2,6.8L125.5,26z M116.8,30.6l0.2,1l0,0L116.8,30.6z M109.5,32.4
	l-0.1,1.1l0,0L109.5,32.4z M99.8,18.8l1,0.3c0-0.1,0-0.2,0-0.3L99.8,18.8z M106.5,10.4l-0.4-1c0,0,0,0,0,0L106.5,10.4z M111.5,9.6
	l0-1.1l0,0L111.5,9.6z M124.5,25.8l-1.1-0.1l0,0L124.5,25.8z"/>
<path class="st4" d="M109.4,26.1c-0.4-2.1,3.4-7.7,4.1-9.5c1.2-3.3-4.6-2.1-1.1-2.8c4-0.7,7.5-0.8,9.7,2.6c0.9,1.3,2,7.7,2.3,9.4
	c1.1,6-2.4,9.8-7.9,10.9c-3.5,0.7-6.3,0.1-8.6-2.5C106.6,32.6,109.7,28.2,109.4,26.1z"/>
<path d="M108.3,33.9c-0.2-0.2-0.3-0.6-0.2-1.2c0.1-0.6,0.3-1.3,0.6-2.1c0.3-0.8,0.6-1.6,0.8-2.3c0.2-0.7,0.4-1.5,0.3-2.2l-1,0.2
	c0.1,0.4,0,1-0.2,1.7c-0.2,0.7-0.5,1.5-0.8,2.3c-0.3,0.8-0.6,1.6-0.7,2.3c-0.1,0.7-0.1,1.5,0.4,2L108.3,33.9z M116.5,36.2
	c-1.7,0.3-3.2,0.3-4.5,0c-1.3-0.4-2.5-1.1-3.6-2.4l-0.8,0.7c1.2,1.4,2.6,2.3,4.1,2.7c1.5,0.4,3.2,0.4,5,0L116.5,36.2z M124,25.9
	c0.5,2.9-0.1,5.2-1.4,6.9c-1.3,1.7-3.5,2.9-6.1,3.4l0.2,1c2.8-0.5,5.2-1.8,6.7-3.8c1.5-2,2.2-4.6,1.6-7.7L124,25.9z M121.7,16.7
	c0.2,0.3,0.4,0.8,0.6,1.6c0.2,0.8,0.5,1.8,0.7,2.7c0.4,2,0.8,4,0.9,4.8l1-0.2c-0.2-0.8-0.5-2.9-1-4.9c-0.2-1-0.5-2-0.7-2.8
	c-0.2-0.8-0.5-1.5-0.8-1.9L121.7,16.7z M112.5,14.3c2-0.4,3.8-0.5,5.4-0.2c1.5,0.3,2.9,1,3.9,2.6l0.8-0.6c-1.2-1.8-2.8-2.7-4.5-3
	c-1.8-0.3-3.7-0.1-5.7,0.2L112.5,14.3z M113.9,16.8c0.3-1,0.2-1.7-0.3-2.2c-0.4-0.5-1.1-0.7-1.5-0.8c-0.2-0.1-0.5-0.1-0.6-0.1
	c-0.1,0-0.1,0-0.2,0c0,0,0,0,0,0c0,0,0,0,0.1,0c0,0,0.1,0,0.2,0.1c0,0.1,0.1,0.1,0.1,0.2c0,0.1,0,0.2,0,0.3
	c-0.1,0.1-0.2,0.2-0.2,0.2c-0.1,0-0.1,0-0.1,0c0,0,0.1,0,0.2,0c0.2,0,0.5-0.1,0.9-0.2l-0.2-1c-0.4,0.1-0.7,0.1-0.9,0.2
	c-0.1,0-0.2,0-0.2,0.1c0,0-0.1,0-0.2,0.1c0,0-0.1,0.1-0.2,0.2c0,0.1-0.1,0.2,0,0.3c0,0.1,0.1,0.2,0.1,0.2c0.1,0.1,0.2,0.1,0.2,0.1
	c0,0,0.1,0,0.1,0c0,0,0.1,0,0.1,0c0.1,0,0.1,0,0.2,0c0.1,0,0.3,0,0.5,0.1c0.4,0.1,0.8,0.2,1,0.5c0.2,0.2,0.3,0.5,0.1,1.2L113.9,16.8
	z M109.9,26c-0.1-0.4,0-1,0.4-1.9c0.3-0.8,0.8-1.7,1.2-2.7c0.5-0.9,1-1.9,1.5-2.7c0.4-0.8,0.8-1.5,1-2l-0.9-0.3
	c-0.2,0.4-0.5,1.1-0.9,1.9c-0.4,0.8-1,1.7-1.5,2.7c-0.5,0.9-1,1.9-1.3,2.8c-0.3,0.9-0.5,1.7-0.4,2.4L109.9,26z M108,34.2l-0.4,0.3
	l0,0L108,34.2z M116.6,36.7l0.1,0.5l0,0L116.6,36.7z M124.5,25.9l0.5-0.1l0,0L124.5,25.9z M122.2,16.4l-0.4,0.3l0,0L122.2,16.4z
	 M112.4,13.9l-0.1-0.5l0,0L112.4,13.9z M113.5,16.6l0.5,0.2l0,0L113.5,16.6z M109.4,26.1l0.5-0.1l0,0L109.4,26.1z"/>
<path class="st4" d="M120.8,22.7c0.2,0.8-0.6,1.6-1.8,1.9c-1.2,0.2-2.4-0.2-2.5-1"/>
<path d="M118.9,24.1c-0.5,0.1-1,0.1-1.4-0.1c-0.4-0.1-0.5-0.3-0.6-0.5l-1,0.2c0.1,0.6,0.6,1,1.2,1.2c0.6,0.2,1.2,0.3,1.9,0.1
	L118.9,24.1z M120.4,22.9c0,0.2,0,0.4-0.3,0.7c-0.2,0.3-0.7,0.5-1.2,0.6l0.2,1c0.7-0.1,1.3-0.5,1.7-0.9c0.4-0.4,0.7-1,0.5-1.6
	L120.4,22.9z M119,24.6l-0.1-0.5l0,0L119,24.6z"/>
<path class="st4" d="M111.7,24.1c-0.7-1-2.3-0.2-2.6,0.7c-0.7,1.8,0.9,5.1,4,3"/>
<path class="st2" d="M111.4,26.1c0.8-0.6,0.8-0.6,0.8-0.6l0,0c0,0,0,0,0,0c0,0,0,0,0,0c0,0,0,0,0,0c0,0,0,0,0,0c0,0,0,0,0,0
	c0,0,0,0,0,0c0,0-0.1-0.1-0.1-0.1c0-0.1-0.1-0.1-0.1-0.1c0,0,0,0,0,0c0,0,0,0,0,0c0,0,0,0,0,0.1c0,0,0,0.1,0,0.1
	c0,0,0.1,0.1,0.1,0.3c0,0.1,0,0.2,0,0.4c-0.1,0.2-0.2,0.4-0.4,0.6c-0.3,0.2-0.5,0.2-0.7,0.2c-0.1,0-0.3-0.1-0.3-0.1
	c-0.1,0-0.2-0.1-0.2-0.1c0,0-0.1,0-0.1-0.1c0,0,0,0-0.1-0.1l1.5-1.5c0,0,0,0-0.1-0.1c0,0,0,0-0.1-0.1c0,0-0.1-0.1-0.2-0.1
	c-0.1,0-0.2-0.1-0.3-0.1c-0.2,0-0.4,0-0.7,0.2c-0.5,0.4-0.5,0.9-0.5,1c0,0.1,0.1,0.2,0.1,0.3c0,0,0,0.1,0,0.1c0,0.1,0.1,0.1,0.1,0.1
	c0,0,0,0,0,0c0,0,0.1,0.1,0.1,0.2c0,0.1,0.1,0.1,0.1,0.2c0,0,0,0,0,0.1c0,0,0,0,0,0c0,0,0,0,0,0c0,0,0,0,0,0c0,0,0,0,0,0
	c0,0,0,0,0,0c0,0,0,0,0,0C110.6,26.7,110.6,26.7,111.4,26.1z M110.4,26.4c0.4,0.4,1.1,0.4,1.5,0c0.4-0.4,0.4-1.1,0-1.5L110.4,26.4z
	 M110.6,26.7c0.4,0.5,1,0.6,1.5,0.2c0.5-0.4,0.6-1,0.2-1.5L110.6,26.7z"/>
<path class="st5" d="M118.7,28c0.5,0.9,1.2,1.7,2.4,2.1c0,0-1.7,2.2-3.7,1.3C116,30.7,118.7,28,118.7,28z"/>
<path d="M117.8,30.4c0,0,0.1,0.1,0.2,0.2c0,0.1,0,0.2,0,0.1c0-0.1,0.1-0.4,0.4-0.7c0.2-0.3,0.5-0.7,0.7-0.9c0.1-0.1,0.2-0.2,0.3-0.3
	c0,0,0.1-0.1,0.1-0.1c0,0,0,0,0,0c0,0,0,0,0,0c0,0,0,0,0,0c0,0,0,0,0,0c0,0,0,0,0,0c0,0,0,0-0.8-0.7c-0.8-0.7-0.8-0.7-0.8-0.7
	c0,0,0,0,0,0c0,0,0,0,0,0c0,0,0,0,0,0c0,0,0,0,0,0c0,0,0,0,0,0c0,0-0.1,0.1-0.1,0.1c-0.1,0.1-0.2,0.2-0.3,0.3
	c-0.2,0.3-0.6,0.7-0.9,1.1c-0.3,0.4-0.6,1-0.7,1.5c0,0.3-0.1,0.7,0.1,1.1c0.2,0.4,0.5,0.7,0.9,0.9L117.8,30.4z M121.1,30
	c-0.9-0.6-0.9-0.6-0.9-0.6c0,0,0,0,0,0c0,0,0,0,0,0c0,0,0,0,0,0c0,0,0,0,0,0c0,0,0,0,0,0c0,0,0,0,0,0c0,0-0.1,0.1-0.2,0.2
	c-0.2,0.2-0.4,0.3-0.6,0.5c-0.5,0.3-1.1,0.5-1.6,0.2l-0.9,1.9c1.5,0.7,2.8,0.2,3.7-0.4c0.4-0.3,0.8-0.6,1-0.8
	c0.1-0.1,0.2-0.2,0.3-0.3c0,0,0.1-0.1,0.1-0.1c0,0,0,0,0,0c0,0,0,0,0,0c0,0,0,0,0,0c0,0,0,0,0,0c0,0,0,0,0,0
	C121.9,30.7,121.9,30.7,121.1,30z M117.7,28.5c0.6,1.1,1.5,2.1,3,2.6l0.6-2c-0.9-0.3-1.4-0.8-1.8-1.6L117.7,28.5z M117.4,31.4
	l-0.4,1c0,0,0,0,0,0L117.4,31.4z M121.1,30l0.9,0.6c0.2-0.3,0.3-0.6,0.2-1c-0.1-0.3-0.4-0.6-0.7-0.7L121.1,30z M118.7,28l0.9-0.5
	c-0.2-0.3-0.5-0.5-0.8-0.5c-0.3,0-0.7,0.1-0.9,0.3L118.7,28z"/>
<path class="st4" d="M123,24.8c0,0,4,2.2,4,2.9c0.2,2.8-3.2,0.8-3.6,1.1"/>
<path d="M126.5,27.8c0,0.6-0.1,0.8-0.2,0.9c-0.1,0.1-0.4,0.1-0.8,0.1c-0.4,0-0.8-0.2-1.2-0.3c-0.2-0.1-0.4-0.1-0.5-0.1
	c-0.1,0-0.2,0-0.3,0c-0.1,0-0.2,0-0.4,0.1l0.6,0.8c-0.1,0-0.1,0.1-0.1,0.1c0,0,0,0,0,0c0,0,0,0,0.1,0c0.1,0,0.2,0.1,0.4,0.1
	c0.4,0.1,0.8,0.2,1.3,0.3c0.5,0.1,1,0.1,1.5-0.3c0.5-0.4,0.7-1,0.6-1.7L126.5,27.8z M123,24.8c-0.2,0.4-0.2,0.4-0.2,0.4c0,0,0,0,0,0
	c0,0,0,0,0,0c0,0,0,0,0,0c0,0,0,0,0,0c0,0,0,0,0,0c0,0,0.1,0,0.1,0.1c0.1,0.1,0.3,0.1,0.5,0.3c0.4,0.2,0.9,0.5,1.4,0.8
	c0.5,0.3,1,0.7,1.3,0.9c0.2,0.1,0.3,0.3,0.4,0.4c0,0,0.1,0.1,0.1,0.1c0,0,0,0,0-0.1h1c0-0.2-0.1-0.3-0.1-0.4
	c-0.1-0.1-0.1-0.2-0.2-0.3c-0.1-0.2-0.3-0.3-0.5-0.5c-0.4-0.3-0.9-0.7-1.4-1c-0.5-0.3-1-0.6-1.4-0.9c-0.2-0.1-0.3-0.2-0.5-0.3
	c-0.1,0-0.1-0.1-0.1-0.1c0,0,0,0,0,0c0,0,0,0,0,0c0,0,0,0,0,0c0,0,0,0,0,0c0,0,0,0,0,0C123.2,24.4,123.2,24.4,123,24.8z M127,27.8
	h-0.5v0l0,0L127,27.8z"/>
<path class="st3" d="M119.9,11.9l2.3,4.5c-3-4.6-5.2,7.6-13.9,6.8c-0.2,0-5.1,0.8-5,0.5c0.1-0.4,0.8-0.2,1.1-0.5
	c0.7-0.6,1-1.3,1.2-2.2c0.3-1.1-0.5-3.4,0.6-4.2c1.6-1.2,4.2-5.8,5.9-5.4L119.9,11.9z"/>
<path d="M112,12.3l7.8,0.6l0.2-2.1l-7.8-0.6L112,12.3z M106.8,17.6c0.5-0.4,1-1,1.5-1.6c0.5-0.6,1-1.2,1.6-1.9
	c0.5-0.6,1-1.1,1.4-1.4c0.5-0.4,0.6-0.3,0.6-0.3l0.4-2.1c-0.9-0.2-1.7,0.3-2.3,0.7c-0.6,0.5-1.2,1.1-1.7,1.7
	c-0.5,0.6-1.1,1.4-1.6,1.9c-0.5,0.6-0.9,1-1.2,1.3L106.8,17.6z M106.6,21.2c0.1-0.4,0.1-0.9,0.1-1.3c0-0.2,0-0.4,0-0.6
	c0-0.2,0-0.4,0-0.6c0-0.4,0-0.7,0-0.9c0-0.2,0.1-0.2,0.1-0.2l-1.3-1.7c-0.5,0.4-0.8,1-0.9,1.5c-0.1,0.5-0.1,1-0.1,1.4
	c0,0.2,0,0.4,0,0.6c0,0.2,0,0.4,0,0.6c0,0.4,0,0.6,0,0.7L106.6,21.2z M105,23.9c0.9-0.8,1.3-1.8,1.5-2.7l-2.1-0.6
	c-0.2,0.8-0.4,1.3-0.9,1.7L105,23.9z M104.3,23.9c0,0.1-0.1,0.2-0.2,0.3c-0.1,0.1-0.2,0.2-0.2,0.2c0,0-0.1,0-0.1,0c0,0,0,0,0.1,0
	c0,0,0,0,0.1,0c0,0,0.1,0,0.1,0c0.1,0,0.2,0,0.2-0.1c0.2-0.1,0.5-0.1,0.7-0.4l-1.4-1.6c0.1-0.1,0.2-0.1,0.1-0.1
	c-0.1,0-0.1,0-0.3,0.1c-0.1,0-0.4,0.1-0.6,0.2c-0.3,0.2-0.6,0.5-0.7,0.9L104.3,23.9z M108.2,22.1c-0.1,0-0.3,0-0.4,0
	c-0.2,0-0.4,0.1-0.6,0.1c-0.5,0.1-1.1,0.2-1.7,0.2c-0.6,0.1-1.2,0.1-1.6,0.2c-0.2,0-0.3,0-0.4,0c0,0,0,0,0.2,0
	c0.1,0,0.3,0.1,0.4,0.3c0.2,0.3,0.3,0.6,0.2,1l-2-0.7c-0.1,0.3-0.1,0.7,0.2,1c0.2,0.2,0.4,0.3,0.5,0.4c0.2,0.1,0.4,0.1,0.5,0.1
	c0.2,0,0.4,0,0.7,0c0.5,0,1.1-0.1,1.7-0.2c0.6-0.1,1.3-0.2,1.7-0.2c0.2,0,0.4-0.1,0.6-0.1c0.2,0,0.2,0,0.1,0V22.1z M123,15.8
	c-0.4-0.7-1-1.2-1.7-1.4c-0.8-0.2-1.5,0-2,0.4c-0.5,0.3-1,0.8-1.4,1.3c-0.4,0.5-0.9,1.1-1.4,1.7c-2,2.4-4.4,4.8-8.2,4.4l-0.2,2.1
	c5,0.5,8-2.8,10-5.2c0.5-0.6,1-1.1,1.4-1.6c0.4-0.5,0.7-0.8,1-0.9c0.1-0.1,0.2-0.1,0.2-0.1c0,0,0,0,0,0c0,0,0,0,0,0c0,0,0,0,0,0
	s0,0,0,0c0,0,0.2,0.1,0.5,0.5L123,15.8z M118.9,12.4l2.3,4.5l1.9-1l-2.3-4.5L118.9,12.4z M112.1,11.3l-0.2,1c0,0,0.1,0,0.1,0
	L112.1,11.3z M106.1,16.7l0.6,0.8l0,0L106.1,16.7z M105.6,20.9l-1-0.3c0,0,0,0,0,0L105.6,20.9z M104.3,23.1l0.7,0.8l0,0L104.3,23.1z
	 M103.2,23.7l1,0.3c0,0,0-0.1,0-0.1L103.2,23.7z M108.2,23.2l0.1-1.1c0,0-0.1,0-0.1,0V23.2z M122.2,16.4l-0.9,0.6
	c0.3,0.5,0.9,0.6,1.4,0.3s0.7-0.9,0.4-1.4L122.2,16.4z M119.9,11.9l0.9-0.5c-0.2-0.3-0.5-0.5-0.9-0.6L119.9,11.9z"/>
<path class="st3" d="M110.9,11.9c-0.4-0.3-0.9-1.4-1.3-1.5c-1.7-0.5-5.6-2.5-7.8-0.6c-2.2,1.9-0.9,3.2-0.9,3.2s-5.3,1.6,0,6.3
	c0.6,0.5-0.1,1,0.7,1.2c0.6,0.1,1.3,0.2,2,0.3"/>
<path d="M101.3,21.6c0.7,0.2,1.5,0.2,2.1,0.3l0.2-2.1c-0.7-0.1-1.3-0.1-1.9-0.3L101.3,21.6z M100.2,20.2c0,0-0.1-0.1-0.1-0.2
	c0-0.1,0-0.1,0,0c0,0.1,0,0.5,0.2,0.9c0.3,0.4,0.7,0.6,1,0.6l0.5-2.1c-0.1,0,0.1,0,0.2,0.2c0.2,0.2,0.1,0.5,0.1,0.4c0,0,0-0.3,0-0.6
	c-0.1-0.4-0.3-0.7-0.6-0.9L100.2,20.2z M100.8,13.1c-0.3-1-0.3-1-0.3-1c0,0,0,0,0,0c0,0,0,0,0,0c0,0,0,0,0,0c0,0,0,0,0,0
	c0,0,0,0-0.1,0c-0.1,0-0.1,0-0.2,0.1c-0.2,0.1-0.4,0.2-0.6,0.3c-0.5,0.3-1.1,0.7-1.6,1.4c-0.5,0.7-0.7,1.7-0.4,2.8
	c0.3,1.1,1.1,2.2,2.5,3.4l1.4-1.6c-1.2-1.1-1.7-1.9-1.9-2.5c-0.1-0.5,0-0.8,0.1-1c0.2-0.3,0.5-0.5,0.9-0.7c0.2-0.1,0.3-0.2,0.4-0.2
	c0.1,0,0.1,0,0.1,0c0,0,0,0,0,0c0,0,0,0,0,0c0,0,0,0,0,0c0,0,0,0,0,0c0,0,0,0,0,0C101.2,14.1,101.2,14.1,100.8,13.1z M101,9
	c-1.3,1.1-1.7,2.2-1.6,3.2c0,0.5,0.2,0.8,0.4,1.1c0.1,0.1,0.1,0.2,0.2,0.3c0,0,0.1,0.1,0.1,0.1c0,0,0,0,0,0c0,0,0,0,0,0c0,0,0,0,0,0
	c0,0,0,0,0,0c0,0,0,0,0,0c0,0,0,0,0.8-0.7c0.8-0.7,0.8-0.7,0.8-0.7c0,0,0,0,0,0c0,0,0,0,0,0c0,0,0,0,0,0c0,0,0,0,0,0c0,0,0,0,0,0
	c0,0,0,0,0,0c0,0,0,0,0-0.1c0-0.1-0.1-0.1-0.1-0.3c0-0.1,0-0.6,0.9-1.4L101,9z M109.9,9.4c-0.4-0.1-0.9-0.3-1.6-0.6
	c-0.6-0.2-1.4-0.5-2.2-0.7c-1.5-0.3-3.5-0.5-5,0.8l1.4,1.6c0.7-0.6,1.8-0.7,3.2-0.4c0.7,0.1,1.3,0.4,2,0.6c0.6,0.2,1.2,0.5,1.7,0.6
	L109.9,9.4z M111.5,11.1c0,0,0,0-0.1-0.1c-0.1-0.1-0.2-0.3-0.3-0.4c-0.1-0.2-0.3-0.4-0.4-0.5c-0.1-0.1-0.4-0.4-0.8-0.5l-0.6,2.1
	c-0.1,0-0.2-0.1-0.2-0.1c0,0,0,0,0,0c0.1,0.1,0.1,0.2,0.3,0.3c0.1,0.1,0.2,0.3,0.4,0.5c0.1,0.1,0.3,0.4,0.5,0.5L111.5,11.1z
	 M103.4,21.9c0.6,0.1,1.1-0.4,1.2-0.9c0.1-0.6-0.4-1.1-0.9-1.2L103.4,21.9z M101.5,20.6l-0.3,1c0,0,0,0,0,0L101.5,20.6z M100.8,19.4
	l-0.7,0.8c0,0,0,0,0,0L100.8,19.4z M100.8,13.1l0.3,1c0.4-0.1,0.6-0.4,0.7-0.8c0.1-0.4,0-0.7-0.3-1L100.8,13.1z M101.7,9.8l0.7,0.8
	l0,0L101.7,9.8z M109.6,10.4l-0.3,1c0,0,0,0,0,0L109.6,10.4z M110.2,12.8c0.5,0.3,1.1,0.2,1.5-0.2c0.3-0.5,0.2-1.1-0.2-1.5
	L110.2,12.8z"/>
<path class="st3" d="M118.4,14.9c0-0.5,0.6-1.5,0.5-1.9c-0.5-1.7-1.1-6-3.8-6.8s-3.2,1.1-3.2,1.1s-4.3-3.5-5.2,3.5
	c-0.1,0.8-0.9,0.5-0.6,1.3c0.2,0.6,0.6,1.2,0.9,1.8"/>
<path d="M105.1,12.5c0.3,0.7,0.6,1.3,0.9,1.9l1.9-1c-0.3-0.7-0.6-1.2-0.8-1.7L105.1,12.5z M105.6,10.7c0,0,0-0.1,0.1-0.1
	c0,0,0.1-0.1-0.1,0c-0.1,0.1-0.4,0.3-0.6,0.7c-0.2,0.4-0.1,0.9,0,1.1l2-0.7c0-0.1,0,0,0,0.3c-0.1,0.3-0.3,0.4-0.2,0.3
	c0,0,0.3-0.2,0.5-0.4c0.2-0.3,0.4-0.6,0.4-1L105.6,10.7z M111.9,7.3c0.7-0.8,0.7-0.8,0.7-0.8c0,0,0,0,0,0c0,0,0,0,0,0c0,0,0,0,0,0
	c0,0,0,0,0,0c0,0,0,0-0.1,0c0,0-0.1-0.1-0.2-0.1c-0.1-0.1-0.4-0.2-0.6-0.4c-0.5-0.3-1.2-0.5-2.1-0.5c-0.9,0-1.8,0.4-2.6,1.3
	c-0.7,0.9-1.2,2.2-1.4,4l2.1,0.3c0.2-1.7,0.6-2.5,0.9-3c0.3-0.4,0.6-0.5,0.9-0.5c0.4,0,0.7,0.1,1.1,0.3c0.2,0.1,0.3,0.2,0.4,0.2
	c0,0,0.1,0.1,0.1,0.1c0,0,0,0,0,0c0,0,0,0,0,0c0,0,0,0,0,0c0,0,0,0,0,0c0,0,0,0,0,0C111.2,8.2,111.2,8.2,111.9,7.3z M115.4,5.2
	c-1.7-0.5-2.8-0.2-3.6,0.5c-0.4,0.3-0.6,0.7-0.7,0.9c-0.1,0.1-0.1,0.3-0.1,0.3c0,0,0,0.1,0,0.1c0,0,0,0,0,0c0,0,0,0,0,0c0,0,0,0,0,0
	c0,0,0,0,0,0c0,0,0,0,0,0c0,0,0,0,1,0.2c1,0.2,1,0.2,1,0.2c0,0,0,0,0,0c0,0,0,0,0,0c0,0,0,0,0,0c0,0,0,0,0,0c0,0,0,0,0,0
	c0,0,0,0,0,0c0,0,0,0,0-0.1c0-0.1,0.1-0.2,0.2-0.2c0.1-0.1,0.5-0.4,1.7-0.1L115.4,5.2z M119.9,12.7c-0.1-0.4-0.2-0.9-0.4-1.6
	c-0.2-0.7-0.4-1.4-0.7-2.2c-0.6-1.5-1.6-3.2-3.5-3.7l-0.6,2c0.9,0.3,1.6,1.1,2.1,2.5c0.2,0.6,0.4,1.3,0.6,2c0.2,0.6,0.3,1.3,0.4,1.7
	L119.9,12.7z M119.5,14.9c0,0.1,0,0.1,0-0.1c0-0.1,0.1-0.3,0.2-0.5c0.1-0.2,0.2-0.4,0.2-0.6c0-0.2,0.1-0.6,0-0.9l-2.1,0.6
	c0-0.1,0-0.2,0-0.2c0,0,0,0,0,0.1c0,0.1-0.1,0.2-0.1,0.4c-0.1,0.2-0.1,0.4-0.2,0.6c-0.1,0.2-0.1,0.5-0.1,0.8H119.5z M106,14.4
	c0.3,0.5,0.9,0.7,1.4,0.5c0.5-0.3,0.7-0.9,0.5-1.4L106,14.4z M106.1,12.1l-1,0.3c0,0,0,0,0,0L106.1,12.1z M106.7,10.9l1.1,0.1l0,0
	L106.7,10.9z M111.9,7.3l-0.7,0.8c0.3,0.2,0.7,0.3,1,0.2s0.6-0.4,0.7-0.8L111.9,7.3z M118.9,13l1-0.3c0,0,0,0,0,0L118.9,13z
	 M117.3,14.9c0,0.6,0.5,1.1,1.1,1.1s1.1-0.5,1.1-1.1H117.3z"/>
<path class="st3" d="M105.7,17.1c-0.5-0.1-1.4-0.8-1.8-0.8c-1.7,0.2-6.1,0.1-7.4,2.8c-1.3,2.6,0.6,3.3,0.6,3.3s-4.1,3.7,2.6,5.7
	c0.8,0.2,0.3,1,1.1,0.8c0.6-0.1,1.3-0.4,1.9-0.6"/>
<path d="M101.2,29.9c0.7-0.2,1.4-0.4,2-0.6l-0.7-2c-0.6,0.2-1.2,0.4-1.8,0.5L101.2,29.9z M99.5,29.1c0,0,0,0-0.1-0.1
	c0,0-0.1-0.1,0,0c0,0.1,0.2,0.5,0.6,0.7c0.4,0.3,0.9,0.2,1.2,0.2l-0.4-2.1c-0.1,0,0.1,0,0.3,0.1c0.2,0.1,0.3,0.4,0.3,0.3
	c0,0-0.1-0.3-0.3-0.6c-0.2-0.3-0.5-0.5-0.9-0.6L99.5,29.1z M97.2,22.4c-0.7-0.8-0.7-0.8-0.7-0.8c0,0,0,0,0,0c0,0,0,0,0,0
	c0,0,0,0,0,0c0,0,0,0,0,0c0,0,0,0,0,0c0,0-0.1,0.1-0.2,0.2c-0.1,0.1-0.3,0.3-0.5,0.5c-0.3,0.4-0.7,1.1-0.9,2
	c-0.1,0.9,0.1,1.9,0.8,2.7c0.7,0.8,2,1.5,3.7,2l0.6-2c-1.6-0.5-2.4-1-2.7-1.4c-0.3-0.4-0.4-0.7-0.3-1c0.1-0.3,0.2-0.7,0.5-1
	c0.1-0.1,0.2-0.3,0.3-0.3c0,0,0.1-0.1,0.1-0.1c0,0,0,0,0,0c0,0,0,0,0,0c0,0,0,0,0,0c0,0,0,0,0,0c0,0,0,0,0,0
	C97.9,23.2,97.9,23.2,97.2,22.4z M95.6,18.6c-0.7,1.6-0.7,2.8-0.1,3.7c0.3,0.4,0.6,0.7,0.8,0.8c0.1,0.1,0.2,0.1,0.3,0.2
	c0,0,0.1,0,0.1,0.1c0,0,0,0,0,0c0,0,0,0,0,0c0,0,0,0,0,0c0,0,0,0,0,0c0,0,0,0,0,0c0,0,0,0,0.4-1c0.4-1,0.4-1,0.4-1c0,0,0,0,0,0
	c0,0,0,0,0,0c0,0,0,0,0,0c0,0,0,0,0,0c0,0,0,0,0,0c0,0,0,0,0,0c0,0,0,0-0.1,0c-0.1,0-0.1-0.1-0.2-0.2c-0.1-0.1-0.3-0.5,0.2-1.6
	L95.6,18.6z M103.8,15.3c-0.4,0.1-0.9,0.1-1.7,0.2c-0.7,0.1-1.5,0.2-2.3,0.3c-1.5,0.3-3.4,1.1-4.2,2.9l1.9,0.9
	c0.4-0.9,1.4-1.4,2.8-1.7c0.7-0.1,1.4-0.2,2-0.3c0.6-0.1,1.3-0.1,1.8-0.2L103.8,15.3z M105.9,16C106,16.1,106,16.1,105.9,16
	c-0.2-0.1-0.3-0.2-0.5-0.3c-0.2-0.1-0.4-0.2-0.6-0.3c-0.2-0.1-0.6-0.2-1-0.2l0.4,2.1c-0.1,0-0.2,0-0.3,0c0,0,0,0,0,0
	c0.1,0,0.2,0.1,0.4,0.2c0.1,0.1,0.4,0.2,0.5,0.3c0.2,0.1,0.4,0.2,0.7,0.3L105.9,16z M103.2,29.3c0.6-0.2,0.9-0.8,0.7-1.3
	s-0.8-0.9-1.3-0.7L103.2,29.3z M100.9,28.9l0.2,1c0,0,0,0,0,0L100.9,28.9z M99.8,28.1l0.3-1l0,0L99.8,28.1z M97.2,22.4l0.7,0.8
	c0.3-0.3,0.4-0.6,0.3-1c-0.1-0.4-0.3-0.7-0.7-0.8L97.2,22.4z M104,16.3l0.2,1.1c0,0,0,0,0,0L104,16.3z M105.6,18.2
	c0.6,0.1,1.1-0.3,1.2-0.9c0.1-0.6-0.3-1.1-0.9-1.2L105.6,18.2z"/>
<path class="st4" d="M180.5,78.1l12.6-26.6c0,0-2-0.2-2.9,0.1c-0.8,0.3-3.6,6.1-3.6,6.1l-1.9-5.1c0,0-1.2-0.6-1.1,2.3
	s0.1,5.7,0.1,5.7l-4.4,6.4c0,0-1.5-1.4-0.9-2.5c0.6-1.2,1.3-4.3,1.9-5.5s-0.6-1.7-0.6-1.7l-5.8,7.9l-1.5,7.3l-37.3,7.9l9.5,18.8
	L180.5,78.1z"/>
<path class="st2" d="M144.9,99.6l35.9-21.1l-0.5-0.9l-35.9,21.1L144.9,99.6z M134.7,80.6l9.5,18.8l0.9-0.5l-9.5-18.8L134.7,80.6z
	 M172.3,71.9L135,79.9l0.2,1l37.3-7.9L172.3,71.9z M173.4,65l-1.5,7.3l1,0.2l1.5-7.3L173.4,65z M179.3,56.9l-5.8,7.9l0.8,0.6
	l5.8-7.9L179.3,56.9z M180.8,59.1c0.2-0.4,0.2-0.7,0.2-1c0-0.3-0.2-0.6-0.4-0.8c-0.2-0.2-0.3-0.3-0.5-0.4c-0.1,0-0.1-0.1-0.2-0.1
	c0,0,0,0-0.1,0c0,0,0,0,0,0c0,0,0,0,0,0c0,0,0,0,0,0c0,0,0,0,0,0c0,0,0,0,0,0c0,0,0,0-0.2,0.5c-0.2,0.5-0.2,0.5-0.2,0.5c0,0,0,0,0,0
	c0,0,0,0,0,0c0,0,0,0,0,0c0,0,0,0,0,0c0,0,0,0,0,0c0,0,0,0,0,0c0,0,0.1,0,0.1,0.1c0.1,0.1,0.2,0.1,0.2,0.2c0.1,0.1,0.1,0.2,0.1,0.3
	c0,0.1,0,0.2-0.1,0.4L180.8,59.1z M178.9,64.6c0.3-0.6,0.6-1.8,1-2.8c0.3-1.1,0.6-2.1,0.9-2.6l-0.9-0.4c-0.3,0.6-0.6,1.7-1,2.8
	c-0.3,1.1-0.6,2.1-0.9,2.7L178.9,64.6z M179.4,66.9c0.3-0.4,0.3-0.4,0.3-0.4c0,0,0,0,0,0c0,0,0,0,0,0c0,0,0,0,0,0c0,0,0,0,0,0
	c0,0,0,0,0,0c0,0,0,0,0,0c0,0-0.1-0.1-0.1-0.2c-0.1-0.1-0.3-0.3-0.4-0.5c-0.3-0.5-0.4-0.9-0.2-1.2l-0.9-0.4
	c-0.4,0.8-0.1,1.7,0.3,2.2c0.2,0.3,0.4,0.5,0.5,0.7c0.1,0.1,0.1,0.1,0.2,0.2c0,0,0,0,0.1,0.1c0,0,0,0,0,0c0,0,0,0,0,0c0,0,0,0,0,0
	c0,0,0,0,0,0c0,0,0,0,0,0C179.1,67.3,179.1,67.3,179.4,66.9z M183.4,60.2l-4.4,6.4l0.8,0.6l4.4-6.4L183.4,60.2z M183.2,54.8
	c0,1.4,0.1,2.9,0.1,3.9c0,0.5,0,1,0,1.3c0,0.2,0,0.3,0,0.4c0,0,0,0.1,0,0.1c0,0,0,0,0,0c0,0,0,0,0,0c0,0,0,0,0,0c0,0,0,0,0,0
	c0,0,0,0,0,0c0,0,0,0,0.5,0s0.5,0,0.5,0c0,0,0,0,0,0c0,0,0,0,0,0c0,0,0,0,0,0c0,0,0,0,0,0c0,0,0,0,0,0c0,0,0-0.1,0-0.1
	c0-0.1,0-0.2,0-0.4c0-0.3,0-0.8,0-1.3c0-1.1-0.1-2.5-0.1-3.9L183.2,54.8z M184.8,52.5C185,52,185,52,185,52c0,0,0,0,0,0c0,0,0,0,0,0
	c0,0,0,0,0,0c0,0,0,0,0,0c0,0,0,0,0,0c0,0,0,0-0.1,0c-0.1,0-0.1,0-0.2,0c-0.2,0-0.5,0-0.7,0.2c-0.3,0.2-0.4,0.5-0.6,0.9
	c-0.1,0.4-0.2,1-0.2,1.7l1,0c0-0.7,0-1.1,0.1-1.4c0.1-0.3,0.2-0.4,0.2-0.4c0,0,0,0,0.1,0c0,0,0,0,0,0c0,0,0,0,0,0c0,0,0,0,0,0
	c0,0,0,0,0,0c0,0,0,0,0,0c0,0,0,0,0,0c0,0,0,0,0,0C184.5,52.9,184.5,52.9,184.8,52.5z M187.1,57.4l-1.9-5.1l-0.9,0.3l1.9,5.1
	L187.1,57.4z M190,51c-0.1,0.1-0.3,0.1-0.3,0.2c-0.1,0.1-0.2,0.2-0.3,0.3c-0.2,0.2-0.4,0.5-0.6,0.8c-0.4,0.6-0.8,1.4-1.2,2.1
	c-0.4,0.7-0.8,1.5-1,2c-0.1,0.3-0.2,0.5-0.3,0.7c0,0.1-0.1,0.1-0.1,0.2c0,0,0,0,0,0c0,0,0,0,0,0c0,0,0,0,0,0c0,0,0,0,0,0
	c0,0,0,0,0,0c0,0,0,0,0.5,0.2s0.5,0.2,0.5,0.2c0,0,0,0,0,0c0,0,0,0,0,0c0,0,0,0,0,0c0,0,0,0,0,0c0,0,0,0,0,0c0,0,0-0.1,0.1-0.2
	c0.1-0.2,0.2-0.4,0.3-0.7c0.3-0.5,0.6-1.3,1-2c0.4-0.7,0.8-1.5,1.2-2c0.2-0.3,0.3-0.5,0.5-0.7c0.1-0.1,0.1-0.1,0.2-0.2
	c0,0,0.1,0,0,0L190,51z M193.1,51.4c0.1-0.5,0.1-0.5,0.1-0.5c0,0,0,0,0,0c0,0,0,0,0,0c0,0,0,0,0,0c0,0,0,0,0,0c0,0,0,0,0,0
	c0,0,0,0-0.1,0c-0.1,0-0.1,0-0.2,0c-0.2,0-0.5,0-0.8-0.1c-0.3,0-0.7,0-1,0c-0.3,0-0.7,0.1-0.9,0.2l0.4,0.9c0.1-0.1,0.4-0.1,0.7-0.1
	c0.3,0,0.6,0,0.9,0c0.3,0,0.6,0,0.8,0c0.1,0,0.2,0,0.2,0c0,0,0,0,0.1,0c0,0,0,0,0,0c0,0,0,0,0,0c0,0,0,0,0,0c0,0,0,0,0,0h0
	C193,51.9,193,51.9,193.1,51.4z M181,78.3l12.6-26.6l-0.9-0.4l-12.6,26.6L181,78.3z M144.6,99.2l-0.4,0.2l0.2,0.5l0.5-0.3
	L144.6,99.2z M135.1,80.4l-0.1-0.5l-0.6,0.1l0.3,0.6L135.1,80.4z M172.4,72.4l0.1,0.5l0.3-0.1l0.1-0.3L172.4,72.4z M173.9,65.1
	l-0.4-0.3l-0.1,0.1l0,0.1L173.9,65.1z M179.7,57.2l0.2-0.5l-0.4-0.2l-0.2,0.3L179.7,57.2z M179.4,66.9l-0.3,0.4l0.4,0.4l0.3-0.5
	L179.4,66.9z M183.8,60.5l0.4,0.3l0.1-0.1l0-0.2L183.8,60.5z M184.8,52.5l0.5-0.2l-0.1-0.2L185,52L184.8,52.5z M186.6,57.6l-0.5,0.2
	l0.4,1.1l0.5-1.1L186.6,57.6z M193.1,51.4l0.5,0.2l0.3-0.6l-0.7-0.1L193.1,51.4z M180.5,78.1l0.3,0.4l0.1-0.1l0.1-0.1L180.5,78.1z"
	/>
<path class="st6" d="M186,63.6c0.7-1.8,0.8-4.2,0.7-6.2L186,63.6z"/>
<path class="st2" d="M186.9,64c0.8-2,0.9-4.6,0.8-6.6l-2,0.1c0.1,1.9,0,4.1-0.6,5.7L186.9,64z"/>
<path class="st3" d="M67.2,95.1c11.2,0.2,36.8,8,48.5,8.8l0.7-15.9c0,0,12.1,12.7,18.1,11.9c10.4-1.5,22.3-4.9,22.3-4.9l-2.5-10.2
	l-2.5-10.2l-14.4-0.5c0,0-7-23.9-10.3-24.6l-9.2-5.1c0,0-9.2,3.1-20.9-5.5c-7.2-5.3-24,5.5-23.8,15.2C73.6,64.6,67.3,84.1,67.2,95.1
	z"/>
<path d="M72.8,54.1c0.1,5.2-1.3,12.6-2.9,20.2c-1.5,7.5-3.1,15.2-3.1,20.8l1,0c0-5.4,1.6-13,3.1-20.6c1.5-7.5,3.1-15.1,2.9-20.4
	L72.8,54.1z M97.4,38.5c-1.9-1.4-4.5-1.7-7.2-1.3c-2.7,0.4-5.5,1.6-8.1,3.3c-2.6,1.6-4.9,3.8-6.6,6.1c-1.7,2.3-2.8,4.9-2.7,7.5l1,0
	c0-2.3,0.9-4.7,2.5-6.9c1.6-2.2,3.9-4.3,6.4-5.9c2.5-1.6,5.2-2.7,7.7-3.1c2.5-0.4,4.8-0.1,6.4,1.1L97.4,38.5z M118,44.3
	c-0.2-0.5-0.2-0.5-0.2-0.5c0,0,0,0,0,0c0,0,0,0,0,0c0,0,0,0,0,0c0,0,0,0,0,0c0,0,0,0-0.1,0c-0.1,0-0.2,0-0.3,0.1
	c-0.3,0.1-0.6,0.1-1.2,0.2c-1,0.1-2.5,0.3-4.3,0.1c-3.7-0.3-8.8-1.6-14.6-5.8l-0.6,0.8c5.9,4.3,11.2,5.7,15.1,6
	c1.9,0.2,3.5,0,4.5-0.1c0.5-0.1,1-0.2,1.2-0.2c0.1,0,0.3-0.1,0.3-0.1c0,0,0.1,0,0.1,0c0,0,0,0,0,0c0,0,0,0,0,0c0,0,0,0,0,0
	c0,0,0,0,0,0C118.1,44.8,118.1,44.8,118,44.3z M127.5,49l-9.2-5.1l-0.5,0.9l9.2,5.1L127.5,49z M137.5,74.1c0.5-0.1,0.5-0.1,0.5-0.1
	c0,0,0,0,0,0c0,0,0,0,0,0c0,0,0,0,0,0c0,0,0,0,0-0.1c0,0,0-0.1-0.1-0.2c-0.1-0.2-0.1-0.4-0.2-0.8c-0.2-0.7-0.5-1.6-0.8-2.7
	c-0.7-2.3-1.7-5.3-2.8-8.3c-1.1-3-2.3-6.1-3.4-8.5c-0.6-1.2-1.1-2.2-1.6-3c-0.3-0.4-0.5-0.7-0.8-0.9c-0.3-0.2-0.6-0.4-0.9-0.5
	l-0.2,1c0.1,0,0.2,0.1,0.4,0.3c0.2,0.2,0.4,0.4,0.7,0.8c0.5,0.7,1,1.7,1.6,2.8c1.1,2.3,2.3,5.4,3.4,8.4c1.1,3,2,6,2.8,8.3
	c0.4,1.1,0.6,2.1,0.8,2.7c0.1,0.3,0.2,0.6,0.2,0.8c0,0.1,0,0.2,0.1,0.2c0,0,0,0,0,0.1c0,0,0,0,0,0c0,0,0,0,0,0c0,0,0,0,0,0
	C137,74.2,137,74.2,137.5,74.1z M151.9,74.1l-14.4-0.5l0,1l14.4,0.5L151.9,74.1z M154.9,84.6l-2.5-10.2l-1,0.2l2.5,10.2L154.9,84.6z
	 M157.4,94.8l-2.5-10.2l-1,0.2l2.5,10.2L157.4,94.8z M134.6,100.3c5.2-0.7,10.8-2,15.1-3c2.1-0.5,4-1,5.3-1.3
	c0.6-0.2,1.2-0.3,1.5-0.4c0.2,0,0.3-0.1,0.4-0.1c0,0,0.1,0,0.1,0c0,0,0,0,0,0c0,0,0,0,0,0c0,0,0,0,0,0c0,0,0,0,0,0s0,0-0.1-0.5
	c-0.1-0.5-0.1-0.5-0.1-0.5c0,0,0,0,0,0c0,0,0,0,0,0c0,0,0,0,0,0c0,0,0,0,0,0c0,0-0.1,0-0.1,0c-0.1,0-0.2,0.1-0.4,0.1
	c-0.3,0.1-0.9,0.2-1.5,0.4c-1.3,0.3-3.1,0.8-5.2,1.3c-4.3,1-9.8,2.3-15,3L134.6,100.3z M116.5,87.9c-0.4,0.3-0.4,0.3-0.4,0.3
	c0,0,0,0,0,0c0,0,0,0,0,0c0,0,0,0,0,0c0,0,0,0,0,0c0,0,0.1,0.1,0.1,0.1c0.1,0.1,0.2,0.2,0.4,0.4c0.3,0.3,0.8,0.8,1.5,1.4
	c1.2,1.2,2.9,2.8,4.9,4.3c1.9,1.5,4,3.1,6,4.2c2,1.1,4,1.8,5.6,1.6l-0.1-1c-1.3,0.2-3.1-0.4-5-1.4c-1.9-1.1-4-2.5-5.9-4.1
	c-1.9-1.5-3.6-3.1-4.8-4.3c-0.6-0.6-1.1-1.1-1.4-1.4c-0.2-0.2-0.3-0.3-0.4-0.4c0,0-0.1-0.1-0.1-0.1c0,0,0,0,0,0c0,0,0,0,0,0
	c0,0,0,0,0,0c0,0,0,0,0,0C116.8,87.6,116.8,87.6,116.5,87.9z M116.2,103.8l0.7-15.9l-1,0l-0.7,15.9L116.2,103.8z M67.2,95.6
	c5.5,0.1,14.7,2.1,23.9,4.2c9.2,2.1,18.6,4.2,24.5,4.6l0.1-1c-5.8-0.4-15.1-2.5-24.4-4.6c-9.2-2.1-18.5-4.1-24.1-4.2L67.2,95.6z
	 M73.3,54.1l-0.5,0l0,0L73.3,54.1z M97.1,38.9l-0.3,0.4l0,0L97.1,38.9z M118,44.3l0.2-0.4c-0.1-0.1-0.3-0.1-0.4,0L118,44.3z
	 M127.2,49.5l-0.2,0.4c0,0,0.1,0,0.1,0.1L127.2,49.5z M137.5,74.1l-0.5,0.1c0.1,0.2,0.2,0.4,0.5,0.4L137.5,74.1z M151.9,74.6
	l0.5-0.1c-0.1-0.2-0.2-0.4-0.5-0.4L151.9,74.6z M154.4,84.7l-0.5,0.1L154.4,84.7z M156.9,94.9l0.1,0.5c0.3-0.1,0.4-0.3,0.3-0.6
	L156.9,94.9z M134.5,99.8l-0.1-0.5l0,0L134.5,99.8z M116.5,87.9l0.4-0.3c-0.1-0.1-0.3-0.2-0.5-0.1c-0.2,0.1-0.3,0.2-0.3,0.4
	L116.5,87.9z M115.7,103.8l0,0.5c0.1,0,0.3,0,0.4-0.1c0.1-0.1,0.2-0.2,0.2-0.3L115.7,103.8z M67.2,95.1l-0.5,0
	c0,0.3,0.2,0.5,0.5,0.5L67.2,95.1z"/>
<ellipse transform="matrix(6.933116e-02 -0.9976 0.9976 6.933116e-02 -94.2831 286.9088)" class="st2" cx="106.6" cy="194" rx="2.1" ry="13.9"/>
<path class="st2" d="M93.8,193.1c0,0.4-0.3,0.5-0.2,0.4c0.1,0,0.2-0.1,0.6-0.2c0.6-0.2,1.6-0.3,2.8-0.4c2.5-0.2,5.9-0.2,9.7,0.1
	l0.1-2.1c-3.9-0.3-7.4-0.3-10-0.1c-1.3,0.1-2.4,0.3-3.2,0.5c-0.4,0.1-0.8,0.3-1.1,0.5c-0.3,0.2-0.8,0.6-0.8,1.2L93.8,193.1z
	 M106.6,195c-3.8-0.3-7.2-0.7-9.6-1.3c-1.2-0.3-2.1-0.5-2.7-0.8c-0.3-0.1-0.5-0.2-0.5-0.3c-0.1-0.1,0.1,0.1,0.1,0.4l-2.1-0.1
	c0,0.7,0.4,1.1,0.6,1.3c0.3,0.2,0.7,0.4,1,0.6c0.8,0.3,1.9,0.6,3.1,0.9c2.5,0.6,6.1,1,9.9,1.3L106.6,195z M119.4,194.9
	c0-0.4,0.3-0.5,0.2-0.4c-0.1,0-0.2,0.1-0.6,0.2c-0.6,0.2-1.6,0.3-2.8,0.4c-2.5,0.2-5.9,0.2-9.7-0.1l-0.1,2.1c3.9,0.3,7.4,0.3,10,0.1
	c1.3-0.1,2.4-0.3,3.2-0.5c0.4-0.1,0.8-0.3,1.1-0.5c0.3-0.2,0.8-0.6,0.8-1.2L119.4,194.9z M106.7,193c3.8,0.3,7.2,0.7,9.6,1.3
	c1.2,0.3,2.1,0.5,2.7,0.8c0.3,0.1,0.5,0.2,0.5,0.3c0.1,0.1-0.1-0.1-0.1-0.4l2.1,0.1c0-0.7-0.4-1.1-0.6-1.3c-0.3-0.2-0.7-0.4-1-0.6
	c-0.8-0.3-1.9-0.6-3.1-0.9c-2.5-0.6-6.1-1-9.9-1.3L106.7,193z"/>
<path class="st5" d="M57.5,183.2c1.1-0.4,5.7,1.1,9.3,7.3c3.6,6.2,6,13.6,5,14.2c-1,0.6-5-5.9-8.6-12.1S54.4,184.2,57.5,183.2z"/>
<path class="st2" d="M64.1,192c-1.9-3.3-4.2-5.5-5.5-6.9c-0.3-0.4-0.6-0.6-0.8-0.9c-0.1-0.1-0.1-0.2-0.2-0.3c0-0.1,0-0.1,0-0.1
	c0,0.1,0,0.3-0.1,0.4c0,0,0,0,0.3-0.1l-0.7-2c-0.4,0.1-0.9,0.4-1.3,0.7c-0.4,0.5-0.5,1-0.4,1.5c0.1,0.4,0.4,0.8,0.6,1.1
	c0.3,0.3,0.6,0.7,0.9,1c1.4,1.5,3.5,3.5,5.2,6.5L64.1,192z M71.3,203.8c0.4-0.3,0.8,0,0.6-0.1c-0.1-0.1-0.3-0.2-0.5-0.5
	c-0.5-0.6-1.2-1.5-2-2.6c-1.6-2.3-3.5-5.4-5.3-8.6l-1.8,1.1c1.8,3.1,3.8,6.3,5.4,8.7c0.8,1.2,1.5,2.2,2.2,2.8c0.3,0.3,0.6,0.6,1,0.9
	c0.3,0.2,0.9,0.5,1.6,0.1L71.3,203.8z M65.9,191c1.8,3.1,3.3,6.4,4.2,9c0.5,1.3,0.8,2.4,0.9,3.2c0.1,0.4,0.1,0.7,0.1,0.8
	c0,0.1,0,0.1,0,0c0-0.1,0.1-0.2,0.3-0.3l1.1,1.8c0.3-0.2,0.5-0.5,0.6-0.7c0.1-0.2,0.1-0.5,0.1-0.7c0-0.4,0-0.9-0.1-1.3
	c-0.2-1-0.5-2.2-1-3.6c-1-2.8-2.5-6.2-4.3-9.4L65.9,191z M57.8,184.2c0,0,0.2,0,0.8,0.1c0.5,0.1,1.2,0.4,2,0.9
	c1.6,1,3.5,2.8,5.3,5.8l1.8-1.1c-1.9-3.3-4.1-5.3-6-6.5c-0.9-0.6-1.8-1-2.6-1.2c-0.7-0.2-1.4-0.3-2-0.1L57.8,184.2z M66.8,190.5
	l-0.9,0.5l0,0L66.8,190.5z M57.5,183.2l-0.3-1l0,0L57.5,183.2z"/>
<path class="st1" d="M81.2,128.9c2.4-3.2,2.6-6.3,2.2-8.6c-0.3-1.5-0.5-10.9-0.9-11.6l-5.9,1.9"/>
<path class="st2" d="M82.1,107.7l-5.9,1.9l0.6,2l5.9-1.9L82.1,107.7z M84.4,120.2c-0.1-0.3-0.1-1.1-0.2-2.2
	c-0.1-1.1-0.1-2.4-0.2-3.8c-0.1-1.3-0.1-2.6-0.2-3.6c0-0.5-0.1-1-0.1-1.3c0-0.2,0-0.3-0.1-0.5c0-0.1-0.1-0.3-0.2-0.5l-1.9,1
	c-0.1-0.1-0.1-0.2,0-0.1c0,0.1,0,0.2,0.1,0.3c0,0.3,0.1,0.7,0.1,1.2c0.1,1,0.1,2.3,0.2,3.6c0.1,1.3,0.1,2.7,0.2,3.8
	c0.1,1.1,0.1,2,0.2,2.5L84.4,120.2z M82,129.6c2.6-3.5,2.8-6.9,2.3-9.4l-2.1,0.4c0.4,2,0.2,4.8-2,7.7L82,129.6z M76.2,109.6
	c-0.6,0.2-0.9,0.8-0.7,1.3c0.2,0.6,0.8,0.9,1.3,0.7L76.2,109.6z M82.5,108.7l0.9-0.5c-0.2-0.4-0.8-0.7-1.3-0.5L82.5,108.7z
	 M83.3,120.4l1-0.2c0,0,0,0,0,0L83.3,120.4z M80.3,128.3c-0.3,0.5-0.2,1.1,0.2,1.5c0.5,0.3,1.1,0.2,1.5-0.2L80.3,128.3z"/>
<path class="st4" d="M115.6,199.8c-2.6-11.6,17.8-44.2,17.8-44.2l-33.2,13.1l-3.7,36.6l14,7.1l15.7-2.8
	C126.2,209.7,116.4,203.4,115.6,199.8z"/>
<path class="st7" d="M64.7,118.1c-5.1-5.5,2.8-19.8,2.8-19.8s28.1,5.5,27.9,5.5c-0.4-0.1,41.4,2.7,54,10.3
	c5.9,3.6,5.2,16.3,2.5,22.6L120,194.5c0,0-6.1-1.8-8.2-2c-4.6-0.6-18.5,0-18.5,0l19.5-49.6l-33.4-9.2
	C73.7,131.9,68.7,122.5,64.7,118.1z"/>
<path d="M79.7,132.7c-1.2-0.4-2.5-1.2-3.8-2.3c-1.3-1.1-2.5-2.6-3.7-4.1c-1.2-1.5-2.4-3.1-3.5-4.7c-1.1-1.5-2.2-3-3.3-4.1l-1.5,1.4
	c1,1,2,2.4,3.1,3.9c1.1,1.5,2.3,3.2,3.6,4.7c1.2,1.6,2.6,3.1,4,4.3c1.4,1.2,2.9,2.3,4.5,2.8L79.7,132.7z M113.1,141.8l-33.4-9.2
	l-0.5,1.9l33.4,9.2L113.1,141.8z M94.3,192.8l19.5-49.6l-1.9-0.7l-19.5,49.6L94.3,192.8z M111.9,191.5c-2.4-0.3-7.1-0.3-11.1-0.2
	c-2,0-3.9,0.1-5.3,0.1c-0.7,0-1.2,0-1.6,0.1c-0.2,0-0.3,0-0.4,0c-0.1,0-0.1,0-0.1,0c0,0,0,0,0,0c0,0,0,0,0,0c0,0,0,0,0,0
	c0,0,0,0,0,0c0,0,0,0,0,1s0,1,0,1c0,0,0,0,0,0c0,0,0,0,0,0c0,0,0,0,0,0c0,0,0,0,0,0c0,0,0.1,0,0.1,0c0.1,0,0.3,0,0.4,0
	c0.4,0,0.9,0,1.6-0.1c1.4,0,3.2-0.1,5.3-0.1c4.1-0.1,8.6-0.1,10.8,0.2L111.9,191.5z M120,194.5c0.3-1,0.3-1,0.3-1c0,0,0,0,0,0
	c0,0,0,0,0,0c0,0,0,0,0,0c0,0,0,0,0,0c0,0,0,0-0.1,0c0,0-0.1,0-0.2-0.1c-0.2-0.1-0.4-0.1-0.7-0.2c-0.6-0.2-1.4-0.4-2.3-0.6
	c-1.8-0.5-3.9-1-5-1.1l-0.2,2c1,0.1,3,0.6,4.8,1.1c0.9,0.2,1.7,0.5,2.3,0.6c0.3,0.1,0.5,0.2,0.7,0.2c0.1,0,0.2,0,0.2,0.1
	c0,0,0,0,0.1,0c0,0,0,0,0,0c0,0,0,0,0,0c0,0,0,0,0,0c0,0,0,0,0,0C119.7,195.5,119.7,195.5,120,194.5z M151,136.2L119.1,194l1.8,1
	l31.9-57.8L151,136.2z M148.9,114.9c2.5,1.5,3.8,5.1,4,9.5c0.2,4.3-0.6,8.9-1.9,11.9l1.8,0.8c1.4-3.3,2.3-8.2,2.1-12.8
	c-0.2-4.5-1.5-9-4.9-11.1L148.9,114.9z M95.6,102.8C95.6,102.8,95.7,102.9,95.6,102.8c0.1,0,0.3,0.1,0.4,0.2c0.3,0.6,0,1.5-0.3,1.7
	c-0.1,0-0.2,0.1-0.2,0.1c0,0-0.1,0-0.1,0c0,0,0,0,0,0c0,0,0,0,0,0c0.1,0,0.2,0,0.3,0c0.3,0,0.7,0,1.3,0.1c1.1,0.1,2.8,0.2,4.8,0.4
	c4,0.4,9.6,0.9,15.6,1.7c6,0.8,12.3,1.9,18,3.2c5.7,1.3,10.5,2.9,13.5,4.7l1-1.7c-3.3-2-8.4-3.6-14.1-4.9
	c-5.7-1.3-12.1-2.4-18.1-3.2c-6-0.8-11.6-1.4-15.7-1.8c-2-0.2-3.7-0.3-4.8-0.4c-0.6,0-1-0.1-1.3-0.1
	C95.8,102.8,95.7,102.8,95.6,102.8c-0.1,0-0.1,0-0.1,0c0,0,0,0,0,0c0,0,0,0-0.1,0c0,0-0.2,0-0.2,0.1c-0.3,0.2-0.6,1.1-0.3,1.7
	c0.1,0.1,0.3,0.2,0.4,0.2c0,0,0.1,0,0.1,0L95.6,102.8z M67.5,98.4c-0.2,1-0.2,1-0.2,1c0,0,0,0,0,0c0,0,0,0,0,0c0,0,0,0,0,0
	c0,0,0,0,0.1,0c0.1,0,0.1,0,0.2,0c0.2,0,0.5,0.1,0.9,0.2c0.8,0.2,1.9,0.4,3.2,0.6c2.6,0.5,6.1,1.2,9.6,1.9c3.5,0.7,7,1.4,9.6,1.9
	c1.3,0.3,2.4,0.5,3.1,0.6c0.4,0.1,0.7,0.1,0.9,0.2c0.1,0,0.2,0,0.2,0c0,0,0,0,0.1,0c0,0,0,0,0,0c0,0,0,0,0,0c0,0,0,0,0.1,0
	c0.1,0,1.1-0.8,0.5-1.9c-0.1,0-0.1-0.1-0.2-0.1l-0.5,1.9c0,0-0.1,0-0.2-0.1c-0.6-1.1,0.4-1.9,0.5-1.9c0,0,0,0,0.1,0c0,0,0,0,0,0
	c0,0,0,0,0,0c0,0,0,0,0,0c0,0-0.1,0-0.2,0c-0.2,0-0.5-0.1-0.9-0.2c-0.8-0.1-1.8-0.4-3.1-0.6c-2.6-0.5-6.1-1.2-9.6-1.9
	c-3.5-0.7-7-1.4-9.6-1.9c-1.3-0.3-2.4-0.5-3.2-0.6c-0.4-0.1-0.7-0.1-0.9-0.2c-0.1,0-0.2,0-0.2,0c0,0,0,0-0.1,0c0,0,0,0,0,0
	c0,0,0,0,0,0c0,0,0,0,0,0C67.7,97.4,67.7,97.4,67.5,98.4z M65.4,117.5c-1-1.1-1.5-2.7-1.4-4.7c0-2,0.5-4.2,1.2-6.3
	c0.7-2.1,1.5-4,2.1-5.4c0.3-0.7,0.6-1.3,0.8-1.7c0.1-0.2,0.2-0.3,0.2-0.4c0-0.1,0-0.1,0.1-0.1c0,0,0,0,0,0c0,0,0,0,0,0c0,0,0,0,0,0
	c0,0,0,0,0,0c0,0,0,0-0.9-0.5c-0.9-0.5-0.9-0.5-0.9-0.5c0,0,0,0,0,0c0,0,0,0,0,0c0,0,0,0,0,0c0,0,0,0,0,0c0,0,0,0.1-0.1,0.1
	c-0.1,0.1-0.1,0.3-0.2,0.5c-0.2,0.4-0.5,1-0.8,1.7c-0.7,1.5-1.5,3.5-2.2,5.6c-0.7,2.2-1.2,4.6-1.3,6.8c0,2.2,0.5,4.5,2,6.1
	L65.4,117.5z M79.4,133.6l-0.3,1l0,0l0,0L79.4,133.6z M112.8,142.8l0.9,0.4l0.4-1l-1.1-0.3L112.8,142.8z M93.3,192.5l-0.9-0.4
	l-0.6,1.4l1.5-0.1L93.3,192.5z M111.8,192.5l-0.1,1l0,0L111.8,192.5z M120,194.5l-0.3,1l0.8,0.2l0.4-0.7L120,194.5z M151.9,136.7
	l0.9,0.5l0,0l0,0L151.9,136.7z M149.4,114.1l0.5-0.9l0,0L149.4,114.1z M95.4,103.8l0.2-1l0,0l0,0L95.4,103.8z M67.5,98.4l0.2-1
	L67,97.2l-0.4,0.6L67.5,98.4z M64.7,118.1l0.7-0.7l0,0L64.7,118.1z"/>
<path class="st8" d="M111.7,205l3.2-4.4c0,0,5.8,2.8,11.7,5.5C121.9,208.1,116.5,207.3,111.7,205z"/>
<path class="st3" d="M95.5,201.8c0,0,4-3,6,1.2c0.7,1.5,6.4,4.8,8.4,4.4l1.8-2.5c4.8,2.3,10.2,3.1,14.9,1.1c3.6,1.7,7.2,3.5,9.5,4.5
	c6.5,3.1,4.4,8.5,4.4,8.5l-27.4-0.5L93.3,217L95.5,201.8z"/>
<path class="st2" d="M75.5,115.8l6.9-2.4l-0.7-2l-6.9,2.4L75.5,115.8z M82.3,113.4c0.6-0.2,0.9-0.8,0.7-1.4
	c-0.2-0.6-0.8-0.9-1.4-0.7L82.3,113.4z M74.8,113.8c-0.6,0.2-0.9,0.8-0.7,1.4s0.8,0.9,1.4,0.7L74.8,113.8z"/>
<path class="st4" d="M65.7,199.6c4.7-6.8,28.7-16.4,28.7-16.4l-19.7-12.6l-24.1,18.6l1.7,13.5l11.3,11.3
	C63.6,214,63.6,202.6,65.7,199.6z"/>
<path class="st7" d="M75.2,136.4l23.5,17.2l-41,29.4l-0.3,0.2c0,0,4.1,2.1,7.2,6.2c2.6,3.5,7.2,15.4,7.2,15.4l26.5-16.8l33.8-21.4
	l2.3-1.4c4-3.4,6.4-10.2,5.6-15.7c-0.2-1.7-0.7-3.4-1.6-4.7c-7.6-12.2-33-29-33.8-29.5c0.2,0.1,0.5-1,0.8-2.6
	c0.7-3.7,1.4-10.1,1.4-10.1l-38.2-8.7c0,0-17.3,25.5-7.3,35.4C65.7,133.4,72.4,133.7,75.2,136.4z"/>
<path d="M61.1,129.5c2.2,2.2,5,3.3,7.6,4.3c1.3,0.5,2.5,0.9,3.6,1.4c1.1,0.5,2,1,2.6,1.6l0.7-0.7c-0.8-0.7-1.8-1.3-2.9-1.8
	c-1.1-0.5-2.4-0.9-3.6-1.4c-2.6-0.9-5.2-2-7.2-4.1L61.1,129.5z M68.7,93.7c-0.4-0.3-0.4-0.3-0.4-0.3c0,0,0,0,0,0c0,0,0,0,0,0
	c0,0,0,0,0,0c0,0,0,0,0,0.1c0,0-0.1,0.1-0.1,0.2c-0.1,0.2-0.3,0.5-0.5,0.8c-0.5,0.7-1.1,1.8-1.8,3c-1.5,2.6-3.3,6.1-4.9,9.9
	c-1.5,3.8-2.8,8-3,11.9c-0.2,3.9,0.6,7.5,3.2,10.1l0.7-0.7c-2.3-2.3-3.1-5.6-2.9-9.4c0.2-3.7,1.4-7.8,2.9-11.6
	c1.5-3.8,3.4-7.3,4.8-9.8c0.7-1.3,1.4-2.3,1.8-3c0.2-0.4,0.4-0.6,0.5-0.8c0.1-0.1,0.1-0.2,0.1-0.2c0,0,0,0,0-0.1c0,0,0,0,0,0
	c0,0,0,0,0,0c0,0,0,0,0,0C69.1,94,69.1,94,68.7,93.7z M107,101.9l-38.2-8.7l-0.2,1l38.2,8.7L107,101.9z M106,112.6
	c0.3-1.9,0.7-4.4,1-6.5c0.1-1,0.3-2,0.3-2.6c0-0.3,0.1-0.6,0.1-0.8c0-0.1,0-0.2,0-0.2c0,0,0,0,0-0.1c0,0,0,0,0,0c0,0,0,0,0,0
	c0,0,0,0,0,0c0,0,0,0,0,0c0,0,0,0-0.5-0.1c-0.5-0.1-0.5-0.1-0.5-0.1c0,0,0,0,0,0c0,0,0,0,0,0c0,0,0,0,0,0c0,0,0,0,0,0c0,0,0,0,0,0.1
	c0,0,0,0.1,0,0.2c0,0.2-0.1,0.4-0.1,0.8c-0.1,0.7-0.2,1.6-0.3,2.6c-0.3,2.1-0.6,4.6-1,6.4L106,112.6z M104.5,115.7
	c0.3,0.1,0.5,0,0.6-0.1c0.1-0.1,0.2-0.2,0.2-0.3c0.1-0.2,0.2-0.4,0.2-0.6c0.1-0.5,0.3-1.2,0.4-2l-1-0.2c-0.1,0.8-0.3,1.5-0.4,1.9
	c-0.1,0.2-0.1,0.4-0.2,0.4c0,0,0,0,0,0c0,0,0.2-0.2,0.4-0.1L104.5,115.7z M138.9,144.4c-3.8-6.2-12.2-13.5-19.6-19.3
	c-7.4-5.8-14-10.1-14.4-10.4l-0.5,0.9c0.4,0.2,6.9,4.5,14.3,10.3c7.4,5.8,15.6,13,19.3,19L138.9,144.4z M140.6,149.3
	c-0.3-1.8-0.8-3.5-1.7-4.9l-0.8,0.5c0.8,1.3,1.3,2.8,1.5,4.5L140.6,149.3z M134.8,165.5c2.1-1.8,3.7-4.4,4.7-7.3
	c1-2.9,1.5-6,1.1-8.9l-1,0.1c0.4,2.7,0,5.7-1,8.5c-1,2.8-2.5,5.2-4.4,6.8L134.8,165.5z M132.4,166.9l2.3-1.4l-0.5-0.8l-2.3,1.4
	L132.4,166.9z M98.6,188.4l33.8-21.4l-0.5-0.8L98,187.5L98.6,188.4z M72,205.2l26.5-16.8l-0.5-0.8l-26.5,16.8L72,205.2z M64.2,189.7
	c1.3,1.7,3,5.5,4.5,8.9c0.7,1.7,1.4,3.3,1.8,4.4c0.2,0.6,0.4,1.1,0.5,1.4c0.1,0.2,0.1,0.3,0.1,0.4c0,0,0,0.1,0,0.1c0,0,0,0,0,0
	c0,0,0,0,0,0c0,0,0,0,0,0c0,0,0,0,0,0c0,0,0,0,0.5-0.2c0.5-0.2,0.5-0.2,0.5-0.2c0,0,0,0,0,0c0,0,0,0,0,0c0,0,0,0,0,0c0,0,0,0,0,0
	c0,0,0-0.1,0-0.1c0-0.1-0.1-0.2-0.1-0.4c-0.1-0.3-0.3-0.8-0.5-1.4c-0.5-1.2-1.1-2.8-1.8-4.5c-1.5-3.4-3.3-7.3-4.6-9.1L64.2,189.7z
	 M57.4,183.2c-0.2,0.4-0.2,0.4-0.2,0.4c0,0,0,0,0,0c0,0,0,0,0,0c0,0,0,0,0,0c0,0,0,0,0,0c0,0,0,0,0,0c0,0,0.1,0,0.1,0.1
	c0.1,0.1,0.3,0.2,0.5,0.3c0.4,0.3,1,0.6,1.7,1.1c1.4,1,3.1,2.5,4.6,4.5l0.8-0.6c-1.6-2.1-3.4-3.7-4.8-4.7c-0.7-0.5-1.3-0.9-1.8-1.2
	c-0.2-0.1-0.4-0.2-0.5-0.3c-0.1,0-0.1-0.1-0.1-0.1c0,0,0,0,0,0c0,0,0,0,0,0c0,0,0,0,0,0c0,0,0,0,0,0c0,0,0,0,0,0
	C57.7,182.8,57.7,182.8,57.4,183.2z M57.4,182.6l-0.3,0.2l0.6,0.8l0.3-0.2L57.4,182.6z M98.4,153.2l-41,29.4l0.6,0.8L99,154
	L98.4,153.2z M74.9,136.8L98.4,154l0.6-0.8L75.5,136L74.9,136.8z M61.4,129.2l-0.4,0.4l0,0L61.4,129.2z M68.7,93.7l0.1-0.5l-0.3-0.1
	l-0.2,0.3L68.7,93.7z M106.9,102.4l0.5,0.1l0.1-0.4l-0.4-0.1L106.9,102.4z M105.5,112.5l-0.5-0.1l0,0L105.5,112.5z M104.7,115.2
	l0.2-0.5l-4.2-1.4l3.8,2.3L104.7,115.2z M138.5,144.6l-0.4,0.3l0,0L138.5,144.6z M140.1,149.3l0.5-0.1l0,0L140.1,149.3z
	 M134.4,165.1l0.3,0.4l0,0l0,0L134.4,165.1z M132.1,166.5l-0.3-0.4l0,0L132.1,166.5z M98.3,187.9l-0.3-0.4l0,0L98.3,187.9z
	 M71.8,204.8l-0.5,0.2l0.2,0.6l0.5-0.3L71.8,204.8z M64.6,189.4l-0.4,0.3l0,0L64.6,189.4z M57.4,183.2l-0.3-0.4l-0.6,0.5l0.7,0.4
	L57.4,183.2z M57.7,183l-0.3-0.4l0,0L57.7,183z M98.7,153.6L99,154l0.6-0.4l-0.6-0.4L98.7,153.6z M75.2,136.4l-0.3,0.4l0,0l0,0
	L75.2,136.4z"/>
<path class="st3" d="M57.8,183c2.3,0.8,4,0.6,5.2,0.2c3.8-1.3,3.5-5.2,8.3-7.4c6.6-3,12.2,2,15.7-1.3c2.7-2.6,0.2-6.6,3.1-9
	c2.8-2.3,29.3-10.2,8.3-22.1c-11.1-6.2-13.7-13.2-24.1-15.3c-3.7-0.7-6.4-0.6-8.4-0.2c-1.6,0.3-3,0.7-4.3,1.2
	c4.9,3.4,10.9,4.6,13.7,7.2l23.5,17.2L57.8,183z"/>
<path d="M98.4,153.1l-40.9,29.5l0.6,0.8l40.9-29.5L98.4,153.1z M74.9,136.7l23.5,17.2l0.6-0.8l-23.5-17.2L74.9,136.7z M61.1,129.5
	c2.5,1.7,5.3,2.9,7.7,3.9c2.5,1.1,4.6,2,5.9,3.2l0.7-0.7c-1.5-1.4-3.8-2.4-6.2-3.4c-2.5-1-5.2-2.2-7.6-3.8L61.1,129.5z M65.6,127.4
	c-1.6,0.3-3,0.7-4.4,1.3l0.4,0.9c1.3-0.5,2.7-0.9,4.2-1.2L65.6,127.4z M74.2,127.6c-3.7-0.8-6.6-0.6-8.6-0.2l0.2,1
	c1.9-0.3,4.6-0.5,8.2,0.2L74.2,127.6z M98.5,142.9c-5.5-3.1-8.9-6.3-12.2-9.1c-3.4-2.8-6.7-5.1-12-6.2l-0.2,1
	c5.1,1.1,8.3,3.3,11.6,6c3.3,2.8,6.8,6.1,12.4,9.2L98.5,142.9z M90.3,165.8c0.3-0.2,0.9-0.6,1.9-1.1c0.9-0.5,2.1-1,3.4-1.6
	c2.6-1.3,5.5-2.9,7.7-4.8c2.2-1.9,3.8-4.2,3.3-7c-0.5-2.7-2.9-5.5-8.2-8.5l-0.5,0.9c5.2,2.9,7.3,5.6,7.7,7.8c0.4,2.2-0.9,4.2-3,6
	c-2.1,1.8-5,3.4-7.5,4.6c-1.3,0.6-2.4,1.2-3.4,1.6c-0.9,0.5-1.7,0.9-2.1,1.2L90.3,165.8z M87.2,174.8c1.5-1.4,1.6-3.3,1.7-4.9
	c0.1-1.7,0.2-3,1.4-4l-0.6-0.8c-1.6,1.3-1.7,3.2-1.8,4.8c-0.1,1.7-0.1,3.1-1.3,4.2L87.2,174.8z M71.4,176.2c3.1-1.4,6-1,8.7-0.5
	c1.3,0.2,2.6,0.5,3.8,0.4c1.2,0,2.3-0.4,3.3-1.3l-0.7-0.7c-0.8,0.7-1.6,1-2.7,1c-1.1,0-2.2-0.2-3.6-0.4c-2.7-0.5-5.9-1-9.3,0.6
	L71.4,176.2z M63.1,183.6c2.1-0.7,3-2.1,4-3.5c1-1.4,2-2.8,4.3-3.9l-0.4-0.9c-2.5,1.2-3.7,2.8-4.7,4.2c-1,1.4-1.8,2.6-3.5,3.2
	L63.1,183.6z M57.6,183.5c2.4,0.8,4.2,0.7,5.6,0.2l-0.3-0.9c-1.2,0.4-2.7,0.6-4.9-0.2L57.6,183.5z M98.7,153.5l0.3,0.4
	c0.1-0.1,0.2-0.2,0.2-0.4s-0.1-0.3-0.2-0.4L98.7,153.5z M75.2,136.3l-0.3,0.4c0,0,0,0,0.1,0L75.2,136.3z M61.4,129.1l-0.2-0.5
	c-0.2,0.1-0.3,0.2-0.3,0.4c0,0.2,0.1,0.4,0.2,0.5L61.4,129.1z M65.7,127.9l-0.1-0.5l0,0L65.7,127.9z M74.1,128.1l0.1-0.5l0,0
	L74.1,128.1z M98.2,143.4l0.2-0.4l0,0L98.2,143.4z M90,165.5l-0.3-0.4l0,0L90,165.5z M86.9,174.4l-0.3-0.4l0,0L86.9,174.4z
	 M71.2,175.8l-0.2-0.5l0,0L71.2,175.8z M63,183.2l-0.2-0.5l0,0L63,183.2z M57.8,183l-0.3-0.4c-0.2,0.1-0.2,0.3-0.2,0.5
	s0.2,0.3,0.3,0.4L57.8,183z"/>
<path d="M75,102.7l-6.1-0.9l-0.1,1l6.1,0.9L75,102.7z M70.9,112.7c0.1-0.3,0.4-0.9,0.9-1.8c0.4-0.9,1-1.9,1.5-3
	c0.5-1,1.1-2.1,1.5-2.9c0.2-0.4,0.4-0.8,0.5-1c0.1-0.1,0.1-0.3,0.1-0.4c0-0.1,0.1-0.2,0.1-0.4l-1,0.1c0-0.1,0-0.1,0,0
	c0,0.1-0.1,0.2-0.1,0.3c-0.1,0.3-0.3,0.6-0.4,1c-0.4,0.8-0.9,1.8-1.4,2.9c-0.5,1-1.1,2.1-1.5,3c-0.4,0.9-0.8,1.6-0.9,2L70.9,112.7z
	 M58.6,119.7c3.2-0.5,6.1-1.7,8.2-3c1.1-0.7,2-1.4,2.7-2.1c0.7-0.7,1.2-1.3,1.4-1.9l-1-0.3c-0.1,0.4-0.5,0.9-1.1,1.5
	c-0.6,0.6-1.5,1.3-2.5,1.9c-2.1,1.3-4.8,2.4-7.8,2.9L58.6,119.7z M68.8,101.8c-0.3,0-0.5,0.2-0.6,0.4c0,0.3,0.2,0.5,0.4,0.6
	L68.8,101.8z M74.9,103.2l0.5-0.1c0-0.2-0.2-0.4-0.4-0.4L74.9,103.2z M70.4,112.5l0.5,0.2l0,0L70.4,112.5z M58.4,118.7
	c-0.3,0-0.5,0.3-0.4,0.6c0,0.3,0.3,0.5,0.6,0.4L58.4,118.7z"/>
<path class="st8" d="M59.8,201.7l6.1,0.1c0,0,0,5.2,0.9,10.9C63,210.9,61.2,206.1,59.8,201.7z"/>
<path class="st3" d="M52.8,186.6c0,0,4.8,1.6,2.4,5.6c-0.8,1.4-0.4,8,1.2,9.4l3.4,0.1c1.3,4.3,3.2,9.2,7,11.1c0.3,1.9,0.6,3.9,1,5.8
	c0.4,2.5,2.1,0.7,5.5,2.8c1.5,1,0.9,5.4,0.9,5.4L58.8,225l-8.6-13.1l-4.1-7.2l-5-8.9L52.8,186.6z"/>
<path class="st0" d="M41.2,195.9l11.7-9.2l-0.2-0.2L41,195.7L41.2,195.9z M46.3,204.6l-5-8.9l-0.2,0.1l5,8.9L46.3,204.6z
	 M50.3,211.8l-4.1-7.2l-0.2,0.1l4.1,7.2L50.3,211.8z M58.9,224.9l-8.6-13.1l-0.2,0.1l8.6,13.1L58.9,224.9z M74.2,226.7l-15.4-1.8
	l0,0.2l15.4,1.8L74.2,226.7z M73.3,221.5c0.3,0.2,0.6,0.6,0.7,1.2c0.1,0.5,0.2,1.2,0.2,1.8c0,0.6,0,1.2-0.1,1.6c0,0.2,0,0.4-0.1,0.5
	c0,0.1,0,0.1,0,0.1c0,0,0,0,0,0c0,0,0,0,0,0c0,0,0,0,0,0c0,0,0,0,0,0c0,0,0,0,0,0c0,0,0,0,0.1,0c0.1,0,0.1,0,0.1,0c0,0,0,0,0,0
	c0,0,0,0,0,0c0,0,0,0,0,0c0,0,0,0,0,0c0,0,0,0,0,0c0,0,0-0.1,0-0.1c0-0.1,0-0.3,0.1-0.5c0-0.4,0.1-1,0.1-1.7c0-0.6-0.1-1.3-0.2-1.9
	c-0.2-0.6-0.4-1.1-0.8-1.3L73.3,221.5z M67.7,218.5c0.1,0.6,0.3,1,0.6,1.3c0.3,0.2,0.7,0.3,1.1,0.4c0.9,0.1,2.2,0.2,3.9,1.3l0.1-0.2
	c-1.7-1.1-3-1.2-4-1.3c-0.5-0.1-0.8-0.1-1-0.3c-0.2-0.2-0.4-0.5-0.5-1.1L67.7,218.5z M66.7,212.8c0.3,1.9,0.6,3.9,1,5.8l0.2,0
	c-0.3-1.9-0.6-3.8-1-5.8L66.7,212.8z M59.7,201.7c0.7,2.2,1.5,4.5,2.6,6.5c1.1,2,2.5,3.7,4.5,4.7l0.1-0.2c-1.9-0.9-3.3-2.6-4.4-4.6
	c-1.1-2-1.9-4.3-2.6-6.4L59.7,201.7z M56.4,201.8l3.4,0.1l0-0.2l-3.4-0.1L56.4,201.8z M55.1,192.2c-0.1,0.2-0.2,0.5-0.3,0.8
	c-0.1,0.3-0.1,0.7-0.1,1.1c0,0.8,0,1.8,0.1,2.8c0.1,1,0.3,2,0.5,2.9c0.2,0.8,0.6,1.5,1,1.9l0.2-0.2c-0.4-0.3-0.7-1-0.9-1.8
	c-0.2-0.8-0.4-1.8-0.5-2.8c-0.1-1-0.1-2-0.1-2.8c0-0.4,0.1-0.8,0.1-1.1c0.1-0.3,0.1-0.6,0.2-0.7L55.1,192.2z M52.8,186.6
	c0,0.1,0,0.1,0,0.1c0,0,0,0,0,0c0,0,0,0,0,0c0,0,0,0,0,0c0,0,0,0,0,0c0,0,0,0,0,0c0,0,0.1,0,0.1,0.1c0.1,0,0.3,0.1,0.5,0.2
	c0.4,0.2,0.9,0.5,1.4,1c0.4,0.4,0.8,1,0.9,1.7c0.1,0.7,0,1.5-0.6,2.5l0.2,0.1c0.6-1,0.8-1.9,0.7-2.7c-0.1-0.8-0.5-1.4-1-1.8
	c-0.5-0.5-1-0.8-1.4-1c-0.2-0.1-0.4-0.2-0.5-0.2C53,186.5,52.9,186.5,52.8,186.6c0.1-0.1,0.1-0.1,0.1-0.1c0,0,0,0,0,0c0,0,0,0,0,0
	c0,0,0,0,0,0c0,0,0,0,0,0C52.9,186.5,52.9,186.5,52.8,186.6z M41.1,195.8L41.1,195.8l-0.2,0l0.1,0.1L41.1,195.8z M46.1,204.7
	l-0.1,0.1l0,0L46.1,204.7z M50.2,211.9l-0.1,0.1l0,0L50.2,211.9z M58.8,225l-0.1,0.1l0,0l0.1,0L58.8,225z M74.2,226.8l0,0.1l0.1,0
	l0-0.1L74.2,226.8z M73.3,221.3l-0.1,0.1l0,0L73.3,221.3z M67.8,218.5l0.1,0l0,0L67.8,218.5z M66.8,212.8l0.1,0l0-0.1l-0.1,0
	L66.8,212.8z M59.8,201.7l0.1,0l0-0.1l-0.1,0L59.8,201.7z M56.4,201.6L56.4,201.6l0,0.1l0,0L56.4,201.6z M55.2,192.2l-0.1-0.1l0,0
	L55.2,192.2z M52.8,186.6l0-0.1l-0.1,0L52.8,186.6L52.8,186.6z"/>
<path class="st3" d="M70.2,93.7l36.7,8.6c0,0-6.8,4.1-10.4,4.9c-3.6,0.8-7.2,0.1-9.4-0.5C84.8,106,76,103,71.9,106
	c-7.2,2-6.2-5.1-6.2-5.1L70.2,93.7z"/>
<path d="M66.6,101.5l4.6-7.2l-1.8-1.1l-4.6,7.2L66.6,101.5z M71.6,105c-1.7,0.5-2.7,0.4-3.3,0.1c-0.6-0.2-1-0.7-1.2-1.3
	c-0.3-0.6-0.3-1.3-0.4-1.9c0-0.3,0-0.5,0-0.7c0-0.1,0-0.1,0-0.2c0,0,0,0,0,0c0,0,0,0,0,0c0,0,0,0,0,0c0,0,0,0,0,0c0,0,0,0,0,0
	c0,0,0,0-1.1-0.1c-1.1-0.1-1.1-0.1-1.1-0.1c0,0,0,0,0,0c0,0,0,0,0,0c0,0,0,0,0,0c0,0,0,0,0,0c0,0,0,0,0,0.1c0,0.1,0,0.2,0,0.3
	c0,0.2,0,0.5,0,0.9c0,0.7,0.1,1.7,0.5,2.6c0.4,1,1.1,1.9,2.4,2.4c1.2,0.5,2.8,0.5,4.7,0L71.6,105z M87.4,105.7
	c-1.1-0.3-4-1.3-7.1-1.8c-1.6-0.2-3.2-0.4-4.8-0.2c-1.6,0.1-3.1,0.6-4.3,1.5l1.3,1.7c0.8-0.6,1.9-1,3.2-1.1c1.3-0.1,2.8,0,4.2,0.2
	c2.9,0.4,5.6,1.4,6.8,1.7L87.4,105.7z M96.3,106.2c-3.4,0.8-6.7,0.1-8.9-0.5l-0.6,2.1c2.3,0.6,6.1,1.5,10,0.5L96.3,106.2z
	 M106.9,102.3c-0.5-0.9-0.5-0.9-0.5-0.9c0,0,0,0,0,0c0,0,0,0,0,0c0,0,0,0,0,0c0,0,0,0,0,0c0,0,0,0-0.1,0c0,0-0.1,0.1-0.2,0.1
	c-0.2,0.1-0.5,0.3-0.8,0.5c-0.7,0.4-1.6,0.9-2.7,1.5c-2.2,1.1-4.7,2.3-6.3,2.7l0.5,2.1c1.9-0.4,4.7-1.7,6.8-2.9
	c1.1-0.6,2.1-1.1,2.8-1.5c0.4-0.2,0.6-0.4,0.8-0.5c0.1-0.1,0.2-0.1,0.2-0.1c0,0,0,0,0.1,0c0,0,0,0,0,0c0,0,0,0,0,0c0,0,0,0,0,0
	c0,0,0,0,0,0C107.5,103.3,107.5,103.3,106.9,102.3z M70,94.7l36.7,8.6l0.5-2.1l-36.7-8.6L70,94.7z M65.7,100.9l-0.9-0.6
	c-0.1,0.1-0.1,0.3-0.2,0.4L65.7,100.9z M71.9,106l0.3,1c0.1,0,0.2-0.1,0.3-0.2L71.9,106z M87.1,106.7l-0.3,1c0,0,0,0,0,0L87.1,106.7
	z M96.5,107.2l-0.2-1l0,0L96.5,107.2z M106.9,102.3l0.5,0.9c0.4-0.2,0.6-0.6,0.5-1.1s-0.4-0.8-0.8-0.9L106.9,102.3z M70.2,93.7
	l0.2-1c-0.4-0.1-0.9,0.1-1.1,0.5L70.2,93.7z"/>
<path d="M97,178.6c-1.8,4.7-3.1,9.5-6.1,13.2l0.8,0.6c3.2-3.9,4.6-9,6.3-13.5L97,178.6z M90.9,191.8c-0.2,0.2-0.1,0.5,0.1,0.7
	c0.2,0.2,0.5,0.1,0.7-0.1L90.9,191.8z M97.9,179c0.1-0.3,0-0.5-0.3-0.6c-0.3-0.1-0.5,0-0.6,0.3L97.9,179z"/>
<path class="st2" d="M63.5,104.8l7.2,1.1l0.3-2.1l-7.2-1.1L63.5,104.8z M70.7,105.9c0.6,0.1,1.1-0.3,1.2-0.9
	c0.1-0.6-0.3-1.1-0.9-1.2L70.7,105.9z M63.8,102.7c-0.6-0.1-1.1,0.3-1.2,0.9s0.3,1.1,0.9,1.2L63.8,102.7z"/>
<path d="M96.8,111.4l7.8,3.8l0.4-0.9l-7.8-3.8L96.8,111.4z M104.6,115.2c0.2,0.1,0.5,0,0.7-0.2c0.1-0.2,0-0.5-0.2-0.7L104.6,115.2z
	 M97.2,110.5c-0.2-0.1-0.5,0-0.7,0.2c-0.1,0.2,0,0.5,0.2,0.7L97.2,110.5z"/>
<path d="M106,154l-7.2-0.8l-0.1,1l7.2,0.8L106,154z M98.7,153.1c-0.3,0-0.5,0.2-0.6,0.4c0,0.3,0.2,0.5,0.4,0.6L98.7,153.1z
	 M105.9,155c0.3,0,0.5-0.2,0.6-0.4c0-0.3-0.2-0.5-0.4-0.6L105.9,155z"/>
<path d="M65.3,183.5l10.6,16.7l0.8-0.5l-10.6-16.7L65.3,183.5z M113.8,153.2l-48.4,29.6l0.5,0.9l48.4-29.6L113.8,153.2z M91,130.8
	l22.7,23.1l0.7-0.7l-22.7-23.1L91,130.8z M75.9,200.2c0.1,0.2,0.5,0.3,0.7,0.2c0.2-0.1,0.3-0.5,0.2-0.7L75.9,200.2z M65.7,183.2
	l-0.3-0.4c-0.1,0.1-0.2,0.2-0.2,0.3c0,0.1,0,0.3,0.1,0.4L65.7,183.2z M114.1,153.6l0.3,0.4c0.1-0.1,0.2-0.2,0.2-0.4
	c0-0.2,0-0.3-0.1-0.4L114.1,153.6z M91.7,130.1c-0.2-0.2-0.5-0.2-0.7,0s-0.2,0.5,0,0.7L91.7,130.1z"/>
<path class="st9" d="M118.8,70.2l-3.4,17.5l2.1,0.4l3.4-17.5L118.8,70.2z M115.4,87.7c-0.1,0.6,0.3,1.1,0.8,1.2
	c0.6,0.1,1.1-0.3,1.2-0.8L115.4,87.7z M120.9,70.6c0.1-0.6-0.3-1.1-0.8-1.2c-0.6-0.1-1.1,0.3-1.2,0.8L120.9,70.6z"/>
<path class="st3" d="M58.6,102.9l13.1,19.2c0,0,4-4.4,5.6-5.6c0.5-0.4,1.1-0.7,1.9-1.2c3.2-2,8.4-4.7,8.4-4.7
	c-3-3.8-14-18.8-14-18.8L94,65.3l3.4-1.9l1.6-0.9L74.3,49.8L54.4,83.3C53.3,88.9,54.8,98.8,58.6,102.9z"/>
<path d="M53.4,83.1c-0.6,3-0.4,7,0.3,10.7c0.7,3.7,2.1,7.5,4.2,9.8l1.6-1.4c-1.7-1.8-2.9-5.1-3.6-8.7c-0.7-3.6-0.8-7.3-0.3-9.9
	L53.4,83.1z M73.4,49.2L53.5,82.8l1.8,1.1l19.9-33.6L73.4,49.2z M99.4,61.5L74.8,48.8l-1,1.9l24.6,12.7L99.4,61.5z M97.9,64.3
	l1.6-0.9l-1.1-1.9l-1.6,0.9L97.9,64.3z M94.5,66.2l3.4-1.9l-1.1-1.9l-3.4,1.9L94.5,66.2z M74.4,92.4l20.4-26.4l-1.7-1.3L72.7,91.1
	L74.4,92.4z M88.4,109.9c-1.5-1.9-5-6.6-8.1-10.8c-1.6-2.1-3-4.1-4.1-5.6c-0.5-0.7-1-1.3-1.3-1.8c-0.2-0.2-0.3-0.4-0.4-0.5
	c0-0.1-0.1-0.1-0.1-0.1c0,0,0,0,0,0c0,0,0,0,0,0c0,0,0,0,0,0c0,0,0,0,0,0c0,0,0,0-0.9,0.6c-0.9,0.6-0.9,0.6-0.9,0.6c0,0,0,0,0,0
	c0,0,0,0,0,0c0,0,0,0,0,0c0,0,0,0,0,0c0,0,0.1,0.1,0.1,0.1c0.1,0.1,0.2,0.3,0.4,0.5c0.3,0.4,0.7,1,1.3,1.8c1.1,1.5,2.5,3.5,4.1,5.6
	c3.1,4.2,6.6,9,8.1,10.9L88.4,109.9z M79.7,116.2c1.6-1,3.7-2.1,5.4-3.1c0.8-0.5,1.6-0.9,2.1-1.1c0.3-0.1,0.5-0.3,0.6-0.3
	c0.1,0,0.1-0.1,0.2-0.1c0,0,0,0,0,0c0,0,0,0,0,0c0,0,0,0,0,0c0,0,0,0,0,0c0,0,0,0,0,0c0,0,0,0-0.5-0.9c-0.5-0.9-0.5-0.9-0.5-0.9
	c0,0,0,0,0,0c0,0,0,0,0,0c0,0,0,0,0,0c0,0,0,0,0,0c0,0,0,0,0,0c0,0-0.1,0.1-0.2,0.1c-0.1,0.1-0.4,0.2-0.6,0.3
	c-0.5,0.3-1.3,0.7-2.1,1.2c-1.7,0.9-3.8,2.1-5.5,3.1L79.7,116.2z M77.9,117.3c0.4-0.3,1-0.6,1.8-1.2l-1.2-1.8
	c-0.6,0.4-1.4,0.9-1.9,1.3L77.9,117.3z M71.7,122.1c0.8,0.7,0.8,0.7,0.8,0.7c0,0,0,0,0,0c0,0,0,0,0,0c0,0,0,0,0,0c0,0,0,0,0,0
	c0,0,0,0,0,0c0,0,0.1-0.1,0.1-0.1c0.1-0.1,0.3-0.3,0.5-0.5c0.4-0.4,0.9-1,1.5-1.6c1.2-1.3,2.5-2.6,3.2-3.1l-1.3-1.7
	c-0.9,0.6-2.3,2.1-3.5,3.3c-0.6,0.6-1.2,1.2-1.6,1.7c-0.2,0.2-0.4,0.4-0.5,0.5c-0.1,0.1-0.1,0.1-0.1,0.1c0,0,0,0,0,0c0,0,0,0,0,0
	c0,0,0,0,0,0c0,0,0,0,0,0c0,0,0,0,0,0C70.9,121.4,70.9,121.4,71.7,122.1z M57.7,103.5l13.1,19.2l1.8-1.2l-13.1-19.2L57.7,103.5z
	 M54.4,83.3l-0.9-0.5c-0.1,0.1-0.1,0.2-0.1,0.3L54.4,83.3z M74.3,49.8l0.5-0.9c-0.5-0.3-1.1-0.1-1.4,0.4L74.3,49.8z M98.9,62.5
	l0.5,0.9c0.3-0.2,0.5-0.6,0.5-0.9c0-0.4-0.2-0.7-0.6-0.9L98.9,62.5z M97.4,63.4l0.5,0.9l0,0L97.4,63.4z M94,65.3l-0.5-0.9
	c-0.1,0.1-0.2,0.2-0.3,0.3L94,65.3z M73.6,91.7l-0.8-0.7c-0.3,0.4-0.3,0.9,0,1.3L73.6,91.7z M87.5,110.6l0.5,0.9
	c0.3-0.1,0.5-0.4,0.5-0.7s0-0.6-0.2-0.9L87.5,110.6z M79.1,115.3l-0.6-0.9c0,0,0,0,0,0L79.1,115.3z M77.3,116.5l0.6,0.9c0,0,0,0,0,0
	L77.3,116.5z M71.7,122.1l-0.9,0.6c0.2,0.3,0.5,0.4,0.8,0.5c0.3,0,0.6-0.1,0.9-0.3L71.7,122.1z M58.6,102.9l0.9-0.6
	c0,0-0.1-0.1-0.1-0.1L58.6,102.9z"/>
<path d="M88.4,137.9c-0.8,0.3-1.6,0.4-2.4,0.5l0.1,1c0.9-0.1,1.7-0.3,2.6-0.6L88.4,137.9z M90.3,136.6c-0.4,0.6-1.1,0.9-1.9,1.3
	l0.4,0.9c0.8-0.3,1.7-0.8,2.3-1.6L90.3,136.6z M86,138.4c-0.3,0-0.5,0.3-0.4,0.6c0,0.3,0.3,0.5,0.6,0.4L86,138.4z M88.6,138.4
	l0.2,0.5c0,0,0,0,0,0L88.6,138.4z M91.1,137.3c0.2-0.2,0.1-0.5-0.1-0.7c-0.2-0.2-0.5-0.1-0.7,0.1L91.1,137.3z"/>
<path d="M88.5,134.7c-1.3,1-2.9,1.6-4.6,1.4l-0.1,1c1.9,0.2,3.9-0.5,5.3-1.7L88.5,134.7z M83.8,136.2c-0.3,0-0.5,0.2-0.5,0.5
	s0.2,0.5,0.5,0.5L83.8,136.2z M89.1,135.5c0.2-0.2,0.2-0.5,0.1-0.7c-0.2-0.2-0.5-0.2-0.7-0.1L89.1,135.5z"/>
<path d="M83.8,133.5c-0.3,0-0.6-0.1-0.8-0.3l-0.7,0.7c0.4,0.4,1,0.6,1.6,0.6L83.8,133.5z M84.9,133.3c-0.3,0.2-0.7,0.2-1,0.2v1
	c0.5,0,1-0.1,1.4-0.3L84.9,133.3z M87.2,132c-0.7,0.5-1.5,1-2.3,1.3l0.4,0.9c0.9-0.3,1.8-0.8,2.6-1.4L87.2,132z M83,133.2
	c-0.2-0.2-0.5-0.2-0.7,0c-0.2,0.2-0.2,0.5,0,0.7L83,133.2z M83.9,134v-0.5c0,0,0,0,0,0L83.9,134z M85.1,133.7l-0.2-0.5c0,0,0,0,0,0
	L85.1,133.7z M87.8,132.8c0.2-0.2,0.3-0.5,0.1-0.7s-0.5-0.3-0.7-0.1L87.8,132.8z"/>
<path class="st0" d="M103.2,213.1l-9.4-0.2l0,2.1l9.4,0.2L103.2,213.1z M93.8,212.9c-0.6,0-1.1,0.5-1.1,1c0,0.6,0.5,1.1,1,1.1
	L93.8,212.9z M103.1,215.2c0.6,0,1.1-0.5,1.1-1c0-0.6-0.5-1.1-1-1.1L103.1,215.2z"/>
<path class="st0" d="M140.5,213.9l-32.7-0.8l-0.1,2.1l32.7,0.8L140.5,213.9z M107.7,213.1c-0.6,0-1.1,0.5-1.1,1s0.5,1.1,1,1.1
	L107.7,213.1z M140.4,216c0.6,0,1.1-0.5,1.1-1c0-0.6-0.5-1.1-1-1.1L140.4,216z"/>
<path class="st0" d="M49.3,200.9l-4.9-7.5l-1.8,1.2l4.9,7.5L49.3,200.9z M44.4,193.4c-0.3-0.5-1-0.6-1.5-0.3c-0.5,0.3-0.6,1-0.3,1.5
	L44.4,193.4z M47.5,202c0.3,0.5,1,0.6,1.5,0.3s0.6-1,0.3-1.5L47.5,202z"/>
<path class="st0" d="M62.5,220.8l-11.3-17.1l-1.8,1.2l11.3,17.1L62.5,220.8z M74.6,222.6l-12.8-2.3l-0.4,2.1l12.8,2.3L74.6,222.6z
	 M51.1,203.6c-0.3-0.5-1-0.6-1.5-0.3s-0.6,1-0.3,1.5L51.1,203.6z M61.6,221.3l-0.9,0.6c0.2,0.2,0.4,0.4,0.7,0.5L61.6,221.3z
	 M74.2,224.7c0.6,0.1,1.1-0.3,1.2-0.9c0.1-0.6-0.3-1.1-0.9-1.2L74.2,224.7z"/>
<path class="st7" d="M71.9,106c2.6,3.4,5.1,6.5,7.3,9.2c3.2-2,8.4-4.7,8.4-4.7c-3-3.8-14-18.8-14-18.8L94,65.3l3.4-1.9
	c-1.9-1.6-4.4-3.1-7.5-3.4c-7.7-0.7-15.5,6.4-16.4,13c-0.4,3.3,1.2,4,0.4,6.9c-1.6,6-9.1,5.8-10.6,10.6C62.5,93.2,64,95.9,71.9,106z
	"/>
<path class="st9" d="M126.7,57c-1.1-2-3.9-2.9-6.1-1.5l1.1,1.8c1.2-0.7,2.6-0.2,3.1,0.7L126.7,57z M125.1,62.3
	c0.6-0.1,1-0.5,1.3-0.8c0.3-0.4,0.5-0.8,0.6-1.3c0.3-0.9,0.3-2.1-0.3-3.1l-1.9,1c0.2,0.4,0.3,1,0.1,1.6c-0.1,0.3-0.2,0.4-0.3,0.6
	c-0.1,0.1-0.1,0.1,0,0L125.1,62.3z M120.2,56.9c1,2.1,1.8,3.4,2.5,4.2c0.7,0.8,1.5,1.3,2.4,1.2l-0.3-2.1c0.2,0,0.1,0.2-0.4-0.5
	c-0.5-0.6-1.2-1.7-2.2-3.8L120.2,56.9z M124.9,61.2l0.2,1.1c0,0,0,0,0,0L124.9,61.2z M121.1,56.4l-0.6-0.9c-0.5,0.3-0.6,0.9-0.4,1.4
	L121.1,56.4z"/>
<path class="st9" d="M126,62.1c-0.2,0.9,0.3,1.6,0.7,2c0.2,0.2,0.5,0.4,0.7,0.5c0.2,0.1,0.6,0.2,1.1,0.1l-0.6-2.1c0.1,0,0.1,0,0.2,0
	c0,0,0.1,0,0.1,0c0,0,0.1,0,0.1,0c0,0,0,0,0,0c0,0,0,0-0.1-0.1c0,0-0.1-0.1-0.1-0.1c0,0,0,0,0,0.1L126,62.1z M128.8,60.6
	c-0.3-0.2-0.7-0.2-1-0.1c-0.3,0-0.5,0.1-0.7,0.3c-0.4,0.2-0.9,0.7-1.1,1.3l2,0.6c0,0,0,0,0,0c0,0,0,0,0.1-0.1c0,0,0,0,0,0
	c0,0,0,0-0.1,0c0,0-0.1,0-0.2-0.1L128.8,60.6z M128.6,64.7c0.6-0.2,0.8-0.7,0.9-1c0.1-0.3,0.2-0.7,0.2-1c0-0.3,0-0.7-0.1-1
	c-0.1-0.3-0.3-0.9-0.9-1.1l-0.9,2c-0.2-0.1-0.2-0.2-0.3-0.2c0-0.1,0-0.1,0-0.1c0,0,0,0.1,0,0.1c0,0.1,0,0.1,0,0.2c0,0.1,0,0.1,0,0.2
	c0,0.1,0,0.1,0,0.1c0,0,0,0,0,0c0,0,0,0,0,0c0,0,0-0.1,0.1-0.1c0,0,0.1-0.1,0.2-0.1L128.6,64.7z M127.1,62.3l-1-0.3c0,0,0,0,0,0.1
	L127.1,62.3z M128.3,61.6l-0.5,1c0,0,0,0,0,0L128.3,61.6z M128.2,63.7l0.3,1c0,0,0.1,0,0.1,0L128.2,63.7z"/>
<path class="st5" d="M78.6,75.6c1.1-0.3,1.5-1.7,1.5-2.4c0.1-1.5-1-3.1-2-3.1c-1.3,0-2.7,2.5-1.9,4.2C76.5,75,77.6,75.8,78.6,75.6z"
	/>
<path class="st2" d="M75.2,74.7c0.3,0.6,0.8,1.1,1.4,1.5c0.6,0.4,1.4,0.6,2.3,0.4l-0.5-2.1c-0.2,0-0.4,0-0.6-0.2
	c-0.3-0.2-0.5-0.4-0.6-0.6L75.2,74.7z M78,69c-0.7,0-1.2,0.3-1.6,0.7c-0.4,0.4-0.8,0.9-1,1.4c-0.5,1-0.8,2.4-0.2,3.7l1.9-0.9
	c-0.2-0.4-0.2-1.1,0.2-1.8c0.2-0.3,0.4-0.6,0.5-0.7c0.2-0.2,0.3-0.2,0.3-0.2V69z M81.2,73.2c0-1-0.3-2-0.8-2.7
	C79.9,69.8,79.1,69,78,69l0.1,2.1c0,0,0.2,0,0.5,0.5c0.3,0.4,0.5,1,0.4,1.5L81.2,73.2z M78.8,76.6c1-0.2,1.5-1,1.8-1.6
	c0.3-0.6,0.4-1.3,0.5-1.8L79,73.1c0,0.3-0.1,0.7-0.3,1c-0.2,0.3-0.3,0.4-0.5,0.5L78.8,76.6z M76.1,74.3l-1,0.5l0,0L76.1,74.3z
	 M78,70.1v1.1c0,0,0,0,0,0L78,70.1z M80.1,73.2L79,73.1l0,0L80.1,73.2z M78.6,75.6l0.2,1c0,0,0,0,0,0L78.6,75.6z"/>
<path class="st3" d="M98.4,187.9c1.8,0.7,3.7,1,5.5,0.9c3.1-0.3,3.6-1.9,10.1-5.4c8-4.4,9.5-3.3,12.6-6.1c3-2.7,4.9-6.9,5.6-10.7
	L98.4,187.9z"/>
<path d="M131.9,166.1l-33.8,21.4l0.5,0.8l33.8-21.4L131.9,166.1z M126.9,177.6c3.1-2.8,5.1-7.1,5.8-11l-1-0.2
	c-0.7,3.7-2.6,7.8-5.5,10.4L126.9,177.6z M114.2,183.8c4-2.2,6.3-3,8.1-3.6c1.8-0.6,3-1.1,4.6-2.5l-0.7-0.7
	c-1.5,1.3-2.5,1.7-4.3,2.3c-1.8,0.6-4.2,1.5-8.2,3.7L114.2,183.8z M103.9,189.3c1.7-0.2,2.6-0.7,4-1.6c1.3-0.9,3.1-2.2,6.3-3.9
	l-0.5-0.9c-3.3,1.8-5.1,3.1-6.4,4c-1.3,0.9-2.1,1.3-3.5,1.4L103.9,189.3z M98.2,188.4c1.9,0.7,3.8,1,5.7,0.9l-0.1-1
	c-1.7,0.1-3.5-0.2-5.3-0.9L98.2,188.4z M132.1,166.5l0.5,0.1c0-0.2,0-0.4-0.2-0.5s-0.4-0.1-0.5,0L132.1,166.5z M126.5,177.2
	l-0.3-0.4l0,0L126.5,177.2z M113.9,183.4l0.2,0.4l0,0L113.9,183.4z M103.8,188.8l0,0.5c0,0,0,0,0,0L103.8,188.8z M98.4,187.9
	l-0.3-0.4c-0.2,0.1-0.3,0.3-0.2,0.5c0,0.2,0.1,0.4,0.3,0.4L98.4,187.9z"/>
<path d="M87.3,110.1l-4.9,2.7l0.5,0.9l4.9-2.7L87.3,110.1z M83.1,105.5l4,5.4l0.8-0.6l-4-5.4L83.1,105.5z M82.4,112.8
	c-0.2,0.1-0.3,0.4-0.2,0.7c0.1,0.2,0.4,0.3,0.7,0.2L82.4,112.8z M87.5,110.6l0.2,0.4c0.1-0.1,0.2-0.2,0.2-0.3c0-0.1,0-0.3-0.1-0.4
	L87.5,110.6z M83.9,104.9c-0.2-0.2-0.5-0.3-0.7-0.1c-0.2,0.2-0.3,0.5-0.1,0.7L83.9,104.9z"/>
<path class="st0" d="M89.4,74.2L76.7,90.9l1.7,1.3l12.7-16.7L89.4,74.2z M76.7,90.9c-0.4,0.5-0.3,1.1,0.2,1.5
	c0.5,0.4,1.1,0.3,1.5-0.2L76.7,90.9z M91.1,75.5c0.4-0.5,0.3-1.1-0.2-1.5c-0.5-0.4-1.1-0.3-1.5,0.2L91.1,75.5z"/>
<path class="st0" d="M94.8,72.6L83.1,88l1.7,1.3l11.8-15.4L94.8,72.6z M83.1,88c-0.4,0.5-0.3,1.1,0.2,1.5s1.1,0.3,1.5-0.2L83.1,88z
	 M96.5,73.9c0.4-0.5,0.3-1.1-0.2-1.5c-0.5-0.4-1.1-0.3-1.5,0.2L96.5,73.9z"/>
<path class="st0" d="M116.6,73c-0.4,2.4-0.6,6.2-0.7,9.5c0,1.6-0.1,3.1-0.1,4.2c0,0.5,0,1,0,1.3c0,0.2,0,0.3,0,0.3c0,0,0,0,0,0
	c0,0,0,0,0-0.1c0,0,0-0.1,0-0.1c0,0,0.1-0.2,0.2-0.3l1.7,1.3c0.1-0.1,0.1-0.3,0.2-0.3c0-0.1,0-0.1,0-0.1c0-0.1,0-0.1,0-0.1
	c0-0.1,0-0.1,0-0.2c0-0.1,0-0.2,0-0.4c0-0.3,0-0.8,0-1.3c0-1.1,0-2.6,0.1-4.2c0.1-3.3,0.3-7,0.7-9.2L116.6,73z M116,87.9
	c-0.4,0.5-0.3,1.1,0.2,1.5s1.1,0.3,1.5-0.2L116,87.9z M118.7,73.4c0.1-0.6-0.3-1.1-0.9-1.2c-0.6-0.1-1.1,0.3-1.2,0.9L118.7,73.4z"/>
<path class="st0" d="M62.2,100.9c0.7,0.9,1.5,1.7,2.2,2.5c0.7,0.8,1.4,1.5,1.9,2.3l1.8-1.2c-0.6-1-1.4-1.8-2.2-2.6
	c-0.8-0.8-1.5-1.5-2-2.3L62.2,100.9z M61,86.4c-2.4,4.6-2,10.4,1.2,14.5l1.7-1.3c-2.6-3.4-3-8.4-1-12.2L61,86.4z M61.7,85
	c-0.1,0.4-0.3,0.7-0.7,1.3l1.8,1.1c0.2-0.4,0.7-1.1,0.9-1.9L61.7,85z M60.6,82.3c0.8,0.8,1.2,1.9,1,2.7l2.1,0.5
	c0.4-1.8-0.5-3.6-1.6-4.8L60.6,82.3z M66.3,105.6c0.3,0.5,1,0.6,1.5,0.3c0.5-0.3,0.6-1,0.3-1.5L66.3,105.6z M63,100.3l0.9-0.6l0,0
	L63,100.3z M62,86.9L61,86.4c0,0,0,0,0,0L62,86.9z M62.7,85.3l-1-0.2l0,0L62.7,85.3z M62.1,80.8c-0.4-0.4-1.1-0.4-1.5,0
	s-0.4,1.1,0,1.5L62.1,80.8z"/>
<path class="st0" d="M58.6,98.8c0.4,2.6,1.8,4.8,3.3,6.8c1.5,2.1,3,3.8,4.1,5.8l1.9-1c-1.2-2.2-2.9-4.2-4.3-6.1
	c-1.4-1.9-2.5-3.8-2.9-5.9L58.6,98.8z M66,111.5c0.3,0.5,0.9,0.7,1.4,0.4c0.5-0.3,0.7-0.9,0.4-1.4L66,111.5z M60.7,98.5
	c-0.1-0.6-0.6-1-1.2-0.9s-1,0.6-0.9,1.2L60.7,98.5z"/>
<path class="st9" d="M137.5,75.1l14.4,0.5l0.1-2.1L137.5,73L137.5,75.1z M128,51.6c2,4.3,4.1,10,5.8,14.6c0.8,2.3,1.5,4.3,2,5.8
	c0.2,0.7,0.4,1.3,0.6,1.7c0.1,0.2,0.1,0.4,0.1,0.5c0,0.1,0,0.1,0,0.1c0,0,0,0,0,0c0,0,0,0,0,0c0,0,0,0,0,0c0,0,0,0,0,0
	c0,0,0,0,1-0.3c1-0.3,1-0.3,1-0.3c0,0,0,0,0,0c0,0,0,0,0,0c0,0,0,0,0,0c0,0,0,0,0,0c0,0,0-0.1,0-0.1c0-0.1-0.1-0.3-0.2-0.5
	c-0.1-0.4-0.3-1-0.6-1.7c-0.5-1.5-1.2-3.5-2-5.8c-1.6-4.6-3.8-10.4-5.8-14.8L128,51.6z M151.8,75.6c0.6,0,1.1-0.4,1.1-1
	c0-0.6-0.4-1.1-1-1.1L151.8,75.6z M137.5,74.1l-1,0.3c0.1,0.4,0.5,0.7,1,0.7L137.5,74.1z M129.9,50.7c-0.2-0.5-0.9-0.8-1.4-0.5
	c-0.5,0.2-0.8,0.9-0.5,1.4L129.9,50.7z"/>
<path class="st0" d="M139.4,98.4c1-1,2.1-1.2,3.3-1c1.3,0.1,2.5,0.7,3.7,1.1l0.7-2c-1.1-0.4-2.7-1.1-4.2-1.2c-1.7-0.2-3.4,0.1-5,1.6
	L139.4,98.4z M125.1,93.2c1.8,1.1,5.2,2.5,8,3.5c1.4,0.5,2.7,1,3.7,1.3c0.5,0.2,0.9,0.3,1.1,0.4c0.1,0,0.2,0.1,0.3,0.1
	c0,0,0.1,0,0.1,0c0,0,0,0,0,0c0,0,0,0,0,0c0,0,0,0,0,0c0,0,0,0,0,0c0,0,0,0,0.3-1c0.3-1,0.3-1,0.3-1c0,0,0,0,0,0c0,0,0,0,0,0
	c0,0,0,0,0,0c0,0,0,0,0,0c0,0,0,0-0.1,0c-0.1,0-0.2-0.1-0.3-0.1c-0.3-0.1-0.6-0.2-1.1-0.4c-0.9-0.3-2.2-0.8-3.6-1.3
	c-2.8-1.1-6-2.4-7.6-3.3L125.1,93.2z M118.7,88.2c1.9,1.9,4,3.7,6.4,5.1l1.1-1.8c-2.2-1.3-4.1-2.9-6-4.8L118.7,88.2z M146.4,98.4
	c0.6,0.2,1.2-0.1,1.4-0.6c0.2-0.6-0.1-1.2-0.6-1.4L146.4,98.4z M138.6,97.6l-0.3,1c0.4,0.1,0.8,0,1.1-0.2L138.6,97.6z M125.6,92.3
	l0.5-0.9l0,0L125.6,92.3z M120.2,86.6c-0.4-0.4-1.1-0.4-1.5,0c-0.4,0.4-0.4,1.1,0,1.5L120.2,86.6z"/>
<path class="st0" d="M138.2,94c-0.9,0.1-1.9-0.2-3.1-0.7c-1.1-0.5-2.5-1.3-4-1.5l-0.3,2.1c1.1,0.2,2.2,0.7,3.5,1.3
	c1.2,0.6,2.7,1.1,4.3,0.9L138.2,94z M131,91.8c-0.6-0.1-1.1,0.3-1.2,0.9c-0.1,0.6,0.3,1.1,0.9,1.2L131,91.8z M138.5,96.1
	c0.6-0.1,1-0.6,0.9-1.2c-0.1-0.6-0.6-1-1.2-0.9L138.5,96.1z"/>
<path class="st0" d="M82.5,42.2c-0.5,0.6-1.1,1.3-1.4,1.8c-0.4,0.5-0.8,0.9-1.2,1.1l0.9,1.9c0.9-0.4,1.5-1.1,2-1.7
	c0.5-0.7,0.8-1.2,1.3-1.7L82.5,42.2z M85.2,40.2c-1,0.5-2,1.1-2.8,2l1.6,1.4c0.5-0.6,1.3-1.1,2.1-1.5L85.2,40.2z M94.9,38.2
	c-3,0.1-6.8,0.6-9.7,2l0.9,1.9c2.5-1.2,5.9-1.7,8.8-1.8L94.9,38.2z M101.6,42c-0.6-0.3-1.2-0.5-1.8-0.8c-0.6-0.2-1.1-0.5-1.7-0.7
	c-1-0.5-1.9-1.1-2.4-1.9L94,39.9c0.8,1.3,2.1,2,3.2,2.6c0.6,0.3,1.2,0.5,1.8,0.8c0.6,0.2,1.1,0.5,1.6,0.7L101.6,42z M105,43.3
	c-0.4,0-0.9-0.1-1.5-0.3c-0.6-0.3-1.1-0.6-1.8-0.9l-1,1.9c0.5,0.3,1.3,0.7,2,1c0.7,0.3,1.6,0.6,2.5,0.5L105,43.3z M79.8,45.1
	c-0.5,0.2-0.8,0.9-0.5,1.4c0.2,0.5,0.9,0.8,1.4,0.5L79.8,45.1z M83.2,42.9l0.8,0.7c0,0,0,0,0,0L83.2,42.9z M85.7,41.2l0.5,1l0,0
	L85.7,41.2z M94.9,39.3l0.9-0.6c-0.2-0.3-0.6-0.5-0.9-0.5L94.9,39.3z M101.2,43l0.5-0.9c0,0,0,0,0,0L101.2,43z M105.1,45.4
	c0.6,0,1-0.6,1-1.1c0-0.6-0.6-1-1.1-1L105.1,45.4z"/>
<path d="M133,160.3c-5.7,4.2-11.5,8.2-17.3,12.2l0.6,0.8c5.8-4,11.6-8,17.3-12.2L133,160.3z M135.5,158c-0.6,0.9-1.5,1.6-2.5,2.2
	l0.6,0.8c0.9-0.7,2-1.4,2.7-2.5L135.5,158z M136,150.7c0.2,1.3,0.4,2.6,0.4,3.9c0,1.3-0.3,2.4-0.9,3.4l0.8,0.6
	c0.8-1.2,1.1-2.6,1.1-4c0-1.4-0.2-2.8-0.4-4.1L136,150.7z M115.7,172.4c-0.2,0.2-0.3,0.5-0.1,0.7c0.2,0.2,0.5,0.3,0.7,0.1
	L115.7,172.4z M133.3,160.7l-0.3-0.4l0,0L133.3,160.7z M135.9,158.3l0.4,0.3l0,0L135.9,158.3z M137,150.5c0-0.3-0.3-0.5-0.6-0.4
	c-0.3,0-0.5,0.3-0.4,0.6L137,150.5z"/>
<path d="M111.3,171.3c-1.8,1.5-3.5,3-5.5,3.8l0.4,0.9c2.2-0.9,4.1-2.5,5.8-4L111.3,171.3z M123.3,162.7c-4.2,2.6-8.2,5.5-12,8.6
	l0.6,0.8c3.8-3.1,7.7-6,11.9-8.5L123.3,162.7z M105.7,175.2c-0.3,0.1-0.4,0.4-0.3,0.7s0.4,0.4,0.7,0.3L105.7,175.2z M111.6,171.7
	l-0.3-0.4l0,0L111.6,171.7z M123.8,163.6c0.2-0.1,0.3-0.5,0.2-0.7c-0.1-0.2-0.5-0.3-0.7-0.2L123.8,163.6z"/>
<path d="M104.2,173c-1.5,0.8-2.9,1.6-4.4,2.3l0.5,0.9c1.4-0.8,2.9-1.6,4.4-2.3L104.2,173z M111.9,167.6c-2,2.4-4.9,3.9-7.7,5.4
	l0.5,0.9c2.8-1.5,5.8-3.1,8-5.6L111.9,167.6z M99.8,175.3c-0.2,0.1-0.3,0.4-0.2,0.7c0.1,0.2,0.4,0.3,0.7,0.2L99.8,175.3z
	 M104.4,173.4l0.2,0.4l0,0L104.4,173.4z M112.7,168.3c0.2-0.2,0.2-0.5,0-0.7s-0.5-0.2-0.7,0L112.7,168.3z"/>
<path d="M123.7,181.8c-1.4,2.4-4.6,7.3-6.2,9.5l0.8,0.6c1.7-2.2,4.9-7.2,6.3-9.6L123.7,181.8z M117.4,191.4
	c-0.2,0.2-0.1,0.5,0.1,0.7c0.2,0.2,0.5,0.1,0.7-0.1L117.4,191.4z M124.5,182.3c0.1-0.2,0.1-0.5-0.2-0.7c-0.2-0.1-0.5-0.1-0.7,0.2
	L124.5,182.3z"/>
<path d="M118.7,183.9c-0.4,1.6-1.1,3.2-2,4.6l0.8,0.5c1-1.5,1.7-3.2,2.1-4.9L118.7,183.9z M116.7,188.5c-0.1,0.2-0.1,0.5,0.2,0.7
	c0.2,0.1,0.5,0.1,0.7-0.2L116.7,188.5z M119.7,184.1c0.1-0.3-0.1-0.5-0.4-0.6c-0.3-0.1-0.5,0.1-0.6,0.4L119.7,184.1z"/>
<path class="st7" d="M71.7,122.1c2.9-3.4,10.6-9.3,15.8-11.5L71.7,122.1z"/>
<path d="M72.1,122.4c1.4-1.6,4-3.9,7-6.1c2.9-2.2,6.1-4.2,8.7-5.3l-0.4-0.9c-2.7,1.2-6,3.2-8.9,5.4c-3,2.2-5.6,4.5-7.1,6.3
	L72.1,122.4z M87.7,111c0.3-0.1,0.4-0.4,0.3-0.7c-0.1-0.3-0.4-0.4-0.7-0.3L87.7,111z M71.3,121.7c-0.2,0.2-0.2,0.5,0.1,0.7
	c0.2,0.2,0.5,0.2,0.7-0.1L71.3,121.7z"/>
<path class="st7" d="M74,124.9c4.5-5.6,9.6-9.8,15.4-12.3L74,124.9z"/>
<path d="M74.3,125.2c4.5-5.6,9.5-9.7,15.2-12.2l-0.4-0.9c-5.9,2.6-11.1,6.8-15.6,12.5L74.3,125.2z M89.6,113.1
	c0.3-0.1,0.4-0.4,0.3-0.7s-0.4-0.4-0.7-0.3L89.6,113.1z M73.6,124.6c-0.2,0.2-0.1,0.5,0.1,0.7c0.2,0.2,0.5,0.1,0.7-0.1L73.6,124.6z"
	/>
<path class="st2" d="M177.2,31.5c-3.8-0.1-7.1,3-7.2,6.8c0.1-3.8-3-7.1-6.8-7.2c3.8,0.1,7.1-3,7.2-6.8
	C170.3,28.2,173.4,31.4,177.2,31.5z"/>
<path class="st2" d="M169.4,24.3c-0.1,4.4,3.4,8.1,7.8,8.3l0.1-2.1c-3.3-0.1-5.9-2.8-5.8-6.1L169.4,24.3z M163.2,32.2
	c4.4,0.1,8.1-3.4,8.3-7.8l-2.1-0.1c-0.1,3.3-2.8,5.9-6.1,5.8L163.2,32.2z M171.1,38.3c0.1-4.4-3.4-8.1-7.8-8.3l-0.1,2.1
	c3.3,0.1,5.9,2.8,5.8,6.1L171.1,38.3z M177.3,30.4c-4.4-0.1-8.1,3.4-8.3,7.8l2.1,0.1c0.1-3.3,2.8-5.9,6.1-5.8L177.3,30.4z
	 M171.5,24.4c0-0.6-0.4-1.1-1-1.1c-0.6,0-1.1,0.4-1.1,1L171.5,24.4z M163.3,30.1c-0.6,0-1.1,0.4-1.1,1c0,0.6,0.4,1.1,1,1.1
	L163.3,30.1z M169,38.3c0,0.6,0.4,1.1,1,1.1c0.6,0,1.1-0.4,1.1-1L169,38.3z M177.2,32.6c0.6,0,1.1-0.4,1.1-1c0-0.6-0.4-1.1-1-1.1
	L177.2,32.6z"/>
<polyline class="st0" points="32.3,192.8 38.5,183 2,183 8.2,192.8 "/>
<path d="M1.6,183.3l6.2,9.8l0.8-0.5l-6.2-9.8L1.6,183.3z M38.5,182.5H2v1h36.5V182.5z M32.7,193.1l6.2-9.8l-0.8-0.5l-6.2,9.8
	L32.7,193.1z M7.8,193.1c0.1,0.2,0.5,0.3,0.7,0.2c0.2-0.1,0.3-0.5,0.2-0.7L7.8,193.1z M2,183v-0.5c-0.2,0-0.3,0.1-0.4,0.3
	c-0.1,0.2-0.1,0.4,0,0.5L2,183z M38.5,183l0.4,0.3c0.1-0.2,0.1-0.3,0-0.5c-0.1-0.2-0.3-0.3-0.4-0.3V183z M31.9,192.6
	c-0.1,0.2-0.1,0.5,0.2,0.7c0.2,0.1,0.5,0.1,0.7-0.2L31.9,192.6z"/>
<polyline class="st0" points="8.2,260.5 5.8,265.5 5.8,270.9 34.7,270.9 34.7,265.5 32.3,260.5 "/>
<path d="M35.2,265.3l-2.4-5l-0.9,0.4l2.4,5L35.2,265.3z M35.2,270.9v-5.3h-1v5.3H35.2z M5.8,271.4h28.9v-1H5.8V271.4z M5.3,265.5
	v5.3h1v-5.3H5.3z M7.8,260.3l-2.4,5l0.9,0.4l2.4-5L7.8,260.3z M32.7,260.3c-0.1-0.2-0.4-0.4-0.7-0.2c-0.2,0.1-0.4,0.4-0.2,0.7
	L32.7,260.3z M34.7,265.5h0.5c0-0.1,0-0.2-0.1-0.2L34.7,265.5z M34.7,270.9v0.5c0.3,0,0.5-0.2,0.5-0.5H34.7z M5.8,270.9H5.3
	c0,0.3,0.2,0.5,0.5,0.5V270.9z M5.8,265.5l-0.4-0.2c0,0.1-0.1,0.1-0.1,0.2H5.8z M8.7,260.8c0.1-0.2,0-0.5-0.2-0.7s-0.5,0-0.7,0.2
	L8.7,260.8z"/>
<rect x="8.2" y="192.8" class="st0" width="24.1" height="67.7"/>
<path d="M8.7,260.5v-67.7h-1v67.7H8.7z M32.3,260H8.2v1h24.1V260z M31.8,192.8v67.7h1v-67.7H31.8z M8.2,193.3h24.1v-1H8.2V193.3z
	 M8.2,260.5H7.7c0,0.3,0.2,0.5,0.5,0.5V260.5z M32.3,260.5v0.5c0.3,0,0.5-0.2,0.5-0.5H32.3z M32.3,192.8h0.5c0-0.3-0.2-0.5-0.5-0.5
	V192.8z M8.2,192.8v-0.5c-0.3,0-0.5,0.2-0.5,0.5H8.2z"/>
<path d="M34.7,265H5.8v1h28.9V265z M5.8,265c-0.3,0-0.5,0.2-0.5,0.5s0.2,0.5,0.5,0.5V265z M34.7,266c0.3,0,0.5-0.2,0.5-0.5
	S35,265,34.7,265V266z"/>
<path d="M5.1,188.2h30.4v-1H5.1V188.2z M35.5,188.2c0.3,0,0.5-0.2,0.5-0.5c0-0.3-0.2-0.5-0.5-0.5V188.2z M5.1,187.2
	c-0.3,0-0.5,0.2-0.5,0.5c0,0.3,0.2,0.5,0.5,0.5V187.2z"/>
<path d="M13.7,199.5v54.3h1v-54.3H13.7z M13.7,253.8c0,0.3,0.2,0.5,0.5,0.5c0.3,0,0.5-0.2,0.5-0.5H13.7z M14.7,199.5
	c0-0.3-0.2-0.5-0.5-0.5c-0.3,0-0.5,0.2-0.5,0.5H14.7z"/>
<path d="M19.7,199.5v54.3h1v-54.3H19.7z M19.7,253.8c0,0.3,0.2,0.5,0.5,0.5c0.3,0,0.5-0.2,0.5-0.5H19.7z M20.7,199.5
	c0-0.3-0.2-0.5-0.5-0.5c-0.3,0-0.5,0.2-0.5,0.5H20.7z"/>
<path d="M25.8,199.5v54.3h1v-54.3H25.8z M25.8,253.8c0,0.3,0.2,0.5,0.5,0.5c0.3,0,0.5-0.2,0.5-0.5H25.8z M26.8,199.5
	c0-0.3-0.2-0.5-0.5-0.5c-0.3,0-0.5,0.2-0.5,0.5H26.8z"/>
<polyline class="st0" points="187.5,194.5 193.7,184.7 157.2,184.7 163.4,194.5 "/>
<path d="M156.8,185l6.2,9.8l0.8-0.5l-6.2-9.8L156.8,185z M193.7,184.2h-36.5v1h36.5V184.2z M187.9,194.8l6.2-9.8l-0.8-0.5l-6.2,9.8
	L187.9,194.8z M163,194.8c0.1,0.2,0.5,0.3,0.7,0.2c0.2-0.1,0.3-0.5,0.2-0.7L163,194.8z M157.2,184.7v-0.5c-0.2,0-0.4,0.1-0.4,0.3
	c-0.1,0.2-0.1,0.4,0,0.5L157.2,184.7z M193.7,184.7l0.4,0.3c0.1-0.2,0.1-0.3,0-0.5c-0.1-0.2-0.3-0.3-0.4-0.3V184.7z M187.1,194.3
	c-0.1,0.2-0.1,0.5,0.2,0.7c0.2,0.1,0.5,0.1,0.7-0.2L187.1,194.3z"/>
<polyline class="st0" points="163.4,262.2 161,267.2 161,272.5 189.9,272.5 189.9,267.2 187.5,262.2 "/>
<path d="M190.4,267l-2.4-5l-0.9,0.4l2.4,5L190.4,267z M190.4,272.5v-5.3h-1v5.3H190.4z M161,273h28.9v-1H161V273z M160.5,267.2v5.3
	h1v-5.3H160.5z M163,262l-2.4,5l0.9,0.4l2.4-5L163,262z M188,262c-0.1-0.2-0.4-0.4-0.7-0.2s-0.4,0.4-0.2,0.7L188,262z M189.9,267.2
	h0.5c0-0.1,0-0.2-0.1-0.2L189.9,267.2z M189.9,272.5v0.5c0.3,0,0.5-0.2,0.5-0.5H189.9z M161,272.5h-0.5c0,0.3,0.2,0.5,0.5,0.5V272.5
	z M161,267.2l-0.4-0.2c0,0.1-0.1,0.1-0.1,0.2H161z M163.9,262.5c0.1-0.2,0-0.5-0.2-0.7c-0.2-0.1-0.5,0-0.7,0.2L163.9,262.5z"/>
<rect x="163.4" y="194.5" class="st0" width="24.1" height="67.7"/>
<path d="M163.9,262.2v-67.7h-1v67.7H163.9z M187.5,261.7h-24.1v1h24.1V261.7z M187,194.5v67.7h1v-67.7H187z M163.4,195h24.1v-1
	h-24.1V195z M163.4,262.2h-0.5c0,0.3,0.2,0.5,0.5,0.5V262.2z M187.5,262.2v0.5c0.3,0,0.5-0.2,0.5-0.5H187.5z M187.5,194.5h0.5
	c0-0.3-0.2-0.5-0.5-0.5V194.5z M163.4,194.5V194c-0.3,0-0.5,0.2-0.5,0.5H163.4z"/>
<path d="M189.9,266.7H161v1h28.9V266.7z M161,266.7c-0.3,0-0.5,0.2-0.5,0.5s0.2,0.5,0.5,0.5V266.7z M189.9,267.7
	c0.3,0,0.5-0.2,0.5-0.5s-0.2-0.5-0.5-0.5V267.7z"/>
<path d="M160.3,189.9h30.4v-1h-30.4V189.9z M190.8,189.9c0.3,0,0.5-0.2,0.5-0.5c0-0.3-0.2-0.5-0.5-0.5V189.9z M160.3,188.9
	c-0.3,0-0.5,0.2-0.5,0.5c0,0.3,0.2,0.5,0.5,0.5V188.9z"/>
<path d="M168.9,201.2v54.3h1v-54.3H168.9z M168.9,255.5c0,0.3,0.2,0.5,0.5,0.5c0.3,0,0.5-0.2,0.5-0.5H168.9z M169.9,201.2
	c0-0.3-0.2-0.5-0.5-0.5c-0.3,0-0.5,0.2-0.5,0.5H169.9z"/>
<path d="M175,201.2v54.3h1v-54.3H175z M175,255.5c0,0.3,0.2,0.5,0.5,0.5c0.3,0,0.5-0.2,0.5-0.5H175z M176,201.2
	c0-0.3-0.2-0.5-0.5-0.5c-0.3,0-0.5,0.2-0.5,0.5H176z"/>
<path d="M181,201.2v54.3h1v-54.3H181z M181,255.5c0,0.3,0.2,0.5,0.5,0.5c0.3,0,0.5-0.2,0.5-0.5H181z M182,201.2
	c0-0.3-0.2-0.5-0.5-0.5c-0.3,0-0.5,0.2-0.5,0.5H182z"/>
<path d="M58.1,167.9c-6.7,0-12.1,5.4-12.1,12.1c0-6.7-5.4-12.1-12.1-12.1c6.7,0,12.1-5.4,12.1-12.1C46,162.5,51.4,167.9,58.1,167.9z
	"/>
</svg>
