<?xml version="1.0" encoding="utf-8"?>
<!-- Generator: Adobe Illustrator 26.3.1, SVG Export Plug-In . SVG Version: 6.00 Build 0)  -->
<svg version="1.1" id="Layer_1" xmlns="http://www.w3.org/2000/svg" xmlns:xlink="http://www.w3.org/1999/xlink" x="0px" y="0px"
	 viewBox="0 0 775.7 808" style="enable-background:new 0 0 775.7 808;" xml:space="preserve">
<style type="text/css">
	.st0{fill:none;}
	.st1{fill:#010101;}
	.st2{fill:none;stroke:#010101;stroke-width:2;stroke-miterlimit:10;}
	.st3{fill:#FFFFFF;stroke:#010101;stroke-width:2;stroke-linecap:round;stroke-linejoin:round;stroke-miterlimit:10;}
	.st4{fill:#FBF6EB;stroke:#1C2628;stroke-width:2;stroke-miterlimit:10;}
	.st5{fill:url(#SVGID_1_);stroke:#010101;stroke-width:2;stroke-linecap:round;stroke-linejoin:round;stroke-miterlimit:10;}
	.st6{fill:none;stroke:#010101;stroke-width:2;stroke-linecap:round;stroke-linejoin:round;stroke-miterlimit:10;}
	
		.st7{fill-rule:evenodd;clip-rule:evenodd;fill:#010101;stroke:#010101;stroke-width:2.13;stroke-linecap:round;stroke-linejoin:round;}
	.st8{fill-rule:evenodd;clip-rule:evenodd;fill:#FED8B5;stroke:#010101;stroke-width:2;stroke-miterlimit:10;}
	.st9{fill:none;stroke:#1C2628;stroke-width:2.13;stroke-linecap:round;stroke-linejoin:round;}
	.st10{fill:#FED8B5;stroke:#010101;stroke-width:2;stroke-miterlimit:10;}
	
		.st11{fill-rule:evenodd;clip-rule:evenodd;fill:#1C2628;stroke:#1C2628;stroke-width:2.1299;stroke-linecap:round;stroke-linejoin:round;stroke-miterlimit:3.9998;}
	
		.st12{fill-rule:evenodd;clip-rule:evenodd;fill:#1C2628;stroke:#1C2628;stroke-width:2.13;stroke-linecap:round;stroke-linejoin:round;}
	.st13{fill:#FBF6EB;stroke:#1C2628;stroke-width:2.13;stroke-linecap:round;stroke-linejoin:round;}
	.st14{fill-rule:evenodd;clip-rule:evenodd;fill:#FED8B5;}
	.st15{fill-rule:evenodd;clip-rule:evenodd;fill:#FBF6EB;stroke:#010101;stroke-width:2;stroke-miterlimit:10;}
	.st16{fill-rule:evenodd;clip-rule:evenodd;fill:#C7BCA4;}
	.st17{fill-rule:evenodd;clip-rule:evenodd;fill:#010101;}
	.st18{fill-rule:evenodd;clip-rule:evenodd;fill:#FBF6EB;stroke:#1C2628;stroke-width:2;stroke-miterlimit:10;}
	.st19{fill-rule:evenodd;clip-rule:evenodd;fill:#010101;stroke:#FFFFFF;stroke-width:0.25;stroke-miterlimit:10;}
	.st20{fill:none;stroke:#010101;stroke-width:2.13;stroke-linecap:round;stroke-linejoin:round;}
	.st21{fill:none;stroke:#FFFFFF;stroke-width:2.13;stroke-linecap:round;stroke-linejoin:round;}
	.st22{fill-rule:evenodd;clip-rule:evenodd;fill:#FBF6EB;}
	
		.st23{fill-rule:evenodd;clip-rule:evenodd;fill:#FBF6EB;stroke:#1C2628;stroke-width:2.13;stroke-linecap:round;stroke-linejoin:round;}
	.st24{fill:#A97C50;}
	.st25{fill:none;stroke:#000000;stroke-miterlimit:10;}
	.st26{fill:none;stroke:#000000;stroke-width:0.25;stroke-miterlimit:10;}
</style>
<pattern  x="63.9" y="0.1" width="18" height="12" patternUnits="userSpaceOnUse" id="SVGID_0000004486328279718482717" viewBox="2.7 -14.7 18 12" style="overflow:visible;">
	<g>
		<rect x="2.7" y="-14.7" class="st0" width="18" height="12"/>
		<g>
			<rect x="2.7" y="-14.7" class="st0" width="18" height="12"/>
			<circle class="st1" cx="20.7" cy="-14.7" r="2.7"/>
			<circle class="st1" cx="2.7" cy="-14.7" r="2.7"/>
			<circle class="st1" cx="20.7" cy="-2.7" r="2.7"/>
			<circle class="st1" cx="11.7" cy="-8.7" r="2.7"/>
			<circle class="st1" cx="2.7" cy="-2.7" r="2.7"/>
		</g>
	</g>
</pattern>
<path class="st2" d="M459.7,736.5H280.6c-71.9,0-130.2-58.3-130.2-130.2v-340c0-121.3,98.4-219.7,219.7-219.7l0,0
	c121.3,0,219.7,98.4,219.7,219.7v340C589.9,678.2,531.6,736.5,459.7,736.5z"/>
<rect x="165.4" y="622" class="st3" width="439.4" height="114.5"/>
<g>
	<path class="st4" d="M179.7,608.7c-0.5-0.3-1,0.1-1,0.6v71.6c0,0.2,0.1,0.5,0.3,0.6l190.8,113c0.2,0.1,0.5,0.1,0.7,0l193.6-113.2
		l0,0v-74c0-0.2-0.1-0.5-0.3-0.6L373.9,494l0,0L178.7,608.1"/>
	
		<pattern  id="SVGID_1_" xlink:href="#SVGID_0000004486328279718482717" patternTransform="matrix(1 0 0 -1 -4418.5884 -14737.3184)">
	</pattern>
	<path class="st5" d="M371,720.8l193-111.3v73.2L371,794.5C371,794.5,370.8,721,371,720.8z"/>
	<line class="st6" x1="371" y1="720.8" x2="371" y2="794.5"/>
	<polygon class="st1" points="492.8,649.4 433.1,684.3 371.4,644.9 429.6,612.3 	"/>
	<polygon class="st1" points="498.6,568 428.6,607.9 368.6,569.6 436.2,529.9 	"/>
	<polygon class="st3" points="307.8,606.7 373.7,569.2 310.8,532.1 245.1,570.1 	"/>
	<polygon class="st1" points="373.7,567.1 308.1,605.3 244.1,568.2 310.6,529.9 	"/>
	<polygon class="st3" points="305.4,682.5 371.4,644.9 308.5,607.9 242.7,645.9 	"/>
	<path class="st3" d="M177.9,683.1l193,111.3v-73.2l-193-111.8C177.9,609.5,177.7,683,177.9,683.1z"/>
	<polygon class="st1" points="370.9,645 305.3,683.3 241.3,646.2 307.8,607.9 	"/>
</g>
<path class="st1" d="M586.9,114.2c-0.5,0-1-0.1-1.4-0.1c-2.1-0.2-3.7-1.9-3.8-4c0-1,0-1.9,0.1-2.9c0.1-2.4,1.8-4.1,4.2-4.1
	c0.5,0,0.9,0,1.6,0c0-0.8,0-1.4,0.1-2.1c0.1-3.5,2.2-5.5,5.7-5.4c11.9,0.3,23.8,0.6,35.7,0.8c3.4,0.1,5.4,2.2,5.4,5.6
	c0,0.7,0,1.4-0.1,2.2c0.6,0,1.1,0,1.6,0c2.3,0.1,3.9,1.9,4,4.2c0,0.9,0,1.9-0.1,2.8c-0.1,2.4-1.9,4.1-4.2,4.1c-0.5,0-1,0-1.6,0
	c-0.2,1.4-0.4,2.8-0.6,4.1c-1.5,10.9-3,21.7-4.5,32.6c-0.7,5-1.4,10-2.1,15c-0.2,1.1-0.6,1.5-1.7,1.5c-10.6-0.2-21.2-0.5-31.8-0.7
	c-1.2,0-1.6-0.4-1.7-1.6c-0.4-4.7-0.8-9.5-1.3-14.2c-0.6-6.6-1.2-13.1-1.8-19.7c-0.5-5.8-1-11.6-1.6-17.4
	C586.9,114.5,586.9,114.4,586.9,114.2z M592.6,147.5c11.4,0.3,22.7,0.5,34,0.8c1-7.3,2-14.6,3-21.9c-13.1-0.3-26-0.6-39-0.9
	C591.3,132.8,592,140.1,592.6,147.5z M626.2,151.1c-11.2-0.3-22.3-0.5-33.4-0.8c0.4,4.9,0.9,9.7,1.3,14.6
	c10.1,0.2,20.1,0.5,30.1,0.7C624.9,160.7,625.6,155.9,626.2,151.1z M630,123.6c0.4-2.8,0.8-5.6,1.1-8.3c-13.9-0.3-27.7-0.7-41.5-1
	c0.3,2.8,0.5,5.6,0.8,8.4C603.7,122.9,616.8,123.2,630,123.6z M610.7,112c5,0.1,10,0.2,15,0.4c3.2,0.1,6.4,0.2,9.6,0.2
	c1.3,0,1.8-0.5,1.8-1.8c0-0.5,0-1,0-1.5c0-2-0.3-2.3-2.2-2.3c-16.1-0.4-32.1-0.8-48.2-1.1c-0.3,0-0.5,0-0.8,0
	c-0.9,0-1.5,0.5-1.5,1.5c0,0.7,0,1.3-0.1,2c0,1.7,0.4,2.1,2,2.1C594.5,111.6,602.6,111.8,610.7,112z M590.2,103.1
	c13.8,0.3,27.5,0.6,41.4,1c0-0.6,0-1.2,0-1.8c0-2.2-0.8-3.1-3-3.2c-11.8-0.3-23.5-0.6-35.3-0.8c-0.2,0-0.4,0-0.7,0
	c-1.3,0-2.2,0.8-2.4,2.1C590.2,101.2,590.2,102.1,590.2,103.1z"/>
<path class="st7" d="M439.1,55c1-0.8,4.4-1.4,5.1-2.4c2.7-4.1,11.3-13.1,8-20.7c-3.2-7.6-8.2-5-8.2-5s-0.2-15.7-17-5.1
	c-2,1.3-2.6-1.2-3.8,1c-0.9,1.6-1.7,3.5-2.4,5.1"/>
<path class="st7" d="M377.8,57.3c-0.6,1.2-3.5,3.1-3.6,4.2c-0.8,4.9-4.8,16.7,1.4,22.2c6.1,5.5,9.5,1.1,9.5,1.1s6.7,14.2,17.6-2.4
	c1.2-2,2.8,0,3.1-2.5c0.2-1.9,0.1-3.8,0-5.7"/>
<path class="st8" d="M348.9,139.4c11.1-19.5,19.6-34,19.6-34l17.8-6.5l10.5-20.8l36,9.8l-4,9.7l-6.9,23.1c0,0,4.9,20.2-2.3,19.7
	c-0.8,0-2.2,5.9-4.1,15.7C393.8,153.6,368,150,348.9,139.4z"/>
<path class="st7" d="M445.9,68.2c3.4-25.4-3.7-21.2-4.9-28.2c-2.4-14-6.4-18.8-32-17.8c-4.5,0.2-9.8,0.3-14,2.2
	c-18.9,9-19,23.8-19,23.8s-10.7,34.1,27.5,38.5c38.2,4.3,0.2-0.6,20.8-5.1C444.8,77.1,445.9,68.2,445.9,68.2z"/>
<path class="st8" d="M403.1,69c-1.1-6,9.7-21.7,11.6-26.9c3.4-9.4-13.1-5.9-3-7.8c11.3-2,21.3-2.2,27.6,7.3
	c2.5,3.7,5.7,21.9,6.6,26.7c3.1,16.9-6.9,27.8-22.4,30.8c-10,1.9-17.9,0.3-24.4-7.2C395.3,87.6,404.1,75.1,403.1,69z"/>
<path class="st8" d="M435.6,59.6c0.5,2.2-1.7,4.6-5.2,5.3c-3.4,0.7-6.7-0.5-7.2-2.7"/>
<path class="st8" d="M409.8,63.4c-1.9-2.8-6.6-0.6-7.5,1.9c-2.1,5.2,2.6,14.4,11.4,8.5"/>
<path class="st9" d="M408.9,69c0,0-1-1.3-0.8-1.1"/>
<path class="st7" d="M429.4,74.3c1.5,2.6,3.4,4.8,6.9,5.9c0,0-4.7,6.3-10.6,3.7C421.8,82.2,429.4,74.3,429.4,74.3z"/>
<path class="st8" d="M441.6,65.4c0,0,11.4,6.3,11.4,8.3c0.5,7.9-9.1,2.4-10.1,3.1"/>
<path class="st7" d="M432.8,28.8l6.5,12.8c-8.6-12.9-14.6,21.5-39.5,19.2c-0.7,0-14.4,2.2-14.1,1.3c0.2-1.1,2.2-0.7,3.1-1.5
	c2-1.8,2.8-3.8,3.5-6.3c0.9-3-1.3-9.7,1.6-11.9c4.6-3.5,11.9-16.3,16.8-15.4L432.8,28.8z"/>
<path class="st7" d="M407.3,28.8c-1.1-0.8-2.6-3.9-3.7-4.2c-4.8-1.4-15.8-7.1-22.2-1.7c-6.3,5.3-2.5,9.2-2.5,9.2s-14.9,4.6,0,17.8
	c1.8,1.5-0.4,2.8,2,3.4c1.8,0.4,3.8,0.6,5.7,0.8"/>
<path class="st7" d="M428.7,37.4c0-1.3,1.7-4.3,1.4-5.4c-1.5-4.7-3-17.1-10.9-19.4s-9.1,3.2-9.1,3.2s-12.3-9.8-14.7,10
	c-0.3,2.3-2.5,1.3-1.7,3.6c0.7,1.8,1.6,3.4,2.5,5.2"/>
<path class="st7" d="M392.8,43.6c-1.3-0.2-3.9-2.4-5-2.2c-4.9,0.7-17.3,0.3-20.9,7.8s1.7,9.4,1.7,9.4s-11.6,10.5,7.3,16.1
	c2.3,0.7,0.9,2.7,3.2,2.3c1.8-0.4,3.6-1,5.4-1.6"/>
<g>
	<path class="st8" d="M604.6,211.7l35.6-75.5c0,0-5.7-0.7-8.1,0.2c-2.4,0.9-10.2,17.3-10.2,17.3l-5.3-14.5c0,0-3.3-1.6-3.1,6.5
		s0.4,16.2,0.4,16.2l-12.5,18.2c0,0-4.2-3.9-2.6-7.2c1.6-3.3,3.7-12.3,5.3-15.5c1.6-3.3-1.8-4.8-1.8-4.8l-16.6,22.3l-4.2,20.8
		l-105.8,22.5l27,53.4L604.6,211.7z"/>
	<path class="st10" d="M620.1,170.8c2.1-5.2,2.4-11.9,2-17.5"/>
</g>
<path class="st7" d="M283.7,264.6c31.7,0.6,104.2,22.6,137.4,24.8l2.1-45.1c0,0,34.4,36.1,51.2,33.7c29.5-4.2,63.3-13.9,63.3-13.9
	l-7.1-28.8l-7.1-28.8l-40.7-1.4c0,0-19.8-67.8-29.1-69.8l-26.2-14.5c0,0-26,8.7-59.2-15.5c-20.4-14.9-68,15.5-67.5,43.1
	C301.6,178.1,283.8,233.4,283.7,264.6z"/>
<ellipse transform="matrix(6.934285e-02 -0.9976 0.9976 6.934285e-02 -175.7754 901.3956)" class="st11" cx="395.2" cy="544.9" rx="5.9" ry="39.4"/>
<path class="st12" d="M255.9,514.3c3.1-1,16.1,3,26.4,20.8c10.3,17.7,17.1,38.6,14.3,40.2c-2.8,1.6-14.2-16.6-24.5-34.4
	C261.8,523.2,247.3,517.2,255.9,514.3z"/>
<path class="st13" d="M323.2,360.5c6.8-9.2,7.3-17.8,6.1-24.3c-0.9-4.3-1.4-31-2.5-33l-16.8,5.3"/>
<path class="st14" d="M420.8,561.5c-7.3-33,50.5-125.2,50.5-125.2l-94.1,37.2l-10.4,103.8l39.6,20.2l44.5-8
	C450.8,589.5,422.9,571.4,420.8,561.5z"/>
<path class="st15" d="M276.4,329.9c-14.4-15.5,8-56.1,8-56.1s79.6,15.6,79.2,15.5c-1.1-0.2,117.3,7.6,152.9,29.1
	c16.7,10.1,14.6,46.1,7,64l-90.3,163.9c0,0-17.3-5.1-23.3-5.8c-13-1.6-52.3,0-52.3,0l55.3-140.8l-94.7-26
	C302,368.8,287.9,342.4,276.4,329.9z"/>
<path class="st16" d="M409.7,576.1l9.2-12.6c0,0,16.5,7.8,33.1,15.7C438.6,584.9,423.3,582.7,409.7,576.1z"/>
<path class="st17" d="M363.8,567.1c0,0,11.4-8.6,17,3.5c2,4.2,18,13.7,23.8,12.5l5.2-7c13.5,6.6,28.9,8.9,42.3,3.1
	c10.2,4.8,20.4,9.8,26.8,12.8c18.3,8.8,12.4,24.1,12.4,24.1l-77.7-1.3l-56-4.6L363.8,567.1z"/>
<line class="st9" x1="306" y1="320.4" x2="325.5" y2="313.8"/>
<path class="st14" d="M279.2,560.8c13.2-19.4,81.4-46.5,81.4-46.5l-55.8-35.7l-68.3,52.6l4.9,38.2l32,32
	C273.3,601.5,273.4,569.3,279.2,560.8z"/>
<path class="st18" d="M306.2,381.6l66.6,48.7l-116.1,83.4l-0.8,0.6c0,0,11.7,5.9,20.3,17.5c7.5,10,20.3,43.6,20.3,43.6l75.2-47.7
	l95.8-60.7l6.6-4.1c11.3-9.6,18.1-28.8,16-44.6c-0.7-4.9-2.1-9.5-4.5-13.3c-21.6-34.8-93.6-82.3-95.9-83.6c0.6,0.2,1.4-2.9,2.2-7.5
	c1.9-10.6,4.1-28.7,4.1-28.7l-108.2-24.5c0,0-48.9,72.2-20.7,100.4C279.2,373.1,298.2,373.9,306.2,381.6z"/>
<path class="st7" d="M256.8,513.7c6.4,2.2,11.2,1.8,14.8,0.5c10.8-3.6,9.8-14.7,23.4-21c18.6-8.6,34.6,5.6,44.4-3.8
	c7.7-7.3,0.7-18.8,8.7-25.4c7.9-6.5,83-29,23.4-62.6c-31.5-17.7-38.8-37.3-68.4-43.4c-10.4-2.1-18.2-1.6-23.8-0.6
	c-4.4,0.8-8.4,2-12.1,3.5c13.8,9.7,31,12.9,38.9,20.5l66.6,48.7L256.8,513.7z"/>
<path class="st9" d="M258.9,332.8c17.5-2.5,32-13.4,33.8-18.9c1.2-3.7,12.9-24.6,12.7-26.5l-17.4-2.5"/>
<path class="st16" d="M262.7,566.9l17.2,0.3c0,0-0.1,14.8,2.6,31C271.7,592.9,266.6,579.2,262.7,566.9z"/>
<path class="st19" d="M242.8,524c0,0,13.6,4.4,6.8,16c-2.3,4-1,22.6,3.4,26.6l9.7,0.2c3.8,12.3,9,26.1,19.8,31.4
	c0.9,5.4,1.8,11,2.7,16.3c1.1,7,6,1.9,15.7,8c4.3,2.7,2.5,15.4,2.5,15.4l-43.6-5.1l-24.3-37.1l-11.6-20.4l-14.3-25.2L242.8,524z"/>
<path class="st7" d="M292.2,260.7l103.9,24.5c0,0-19.4,11.6-29.5,13.9c-10.3,2.4-20.3,0.3-26.7-1.5c-6.5-2-31.5-10.6-43.1-1.9
	c-20.3,5.8-17.5-14.5-17.5-14.5L292.2,260.7z"/>
<path class="st9" d="M369.2,501.9c-4.9,13-8.7,27-17.5,37.8"/>
<line class="st9" x1="273.5" y1="289.2" x2="293.9" y2="292.2"/>
<line class="st9" x1="368.1" y1="309.6" x2="390.2" y2="320.5"/>
<polyline class="st20" points="352,364.9 416.4,430.4 279.2,514.3 309.3,561.8 "/>
<line class="st20" x1="432.7" y1="194.6" x2="423.1" y2="244.2"/>
<path class="st7" d="M259.1,286.8l37.2,54.3c0,0,11.3-12.5,15.8-15.8c1.3-1,3.2-2.1,5.3-3.5c9.1-5.6,23.8-13.3,23.8-13.3
	c-8.4-10.8-39.6-53.4-39.6-53.4l57.8-74.9l9.7-5.5l4.4-2.5l-69.7-36l-56.5,95.1C244.3,247,248.4,275,259.1,286.8z"/>
<line class="st21" x1="385.5" y1="602.1" x2="358.9" y2="601.5"/>
<line class="st21" x1="491.1" y1="604.3" x2="398.3" y2="602.1"/>
<line class="st21" x1="230.4" y1="566.1" x2="216.4" y2="544.8"/>
<polyline class="st21" points="303.9,629 267.6,622.5 235.5,573.8 "/>
<path class="st22" d="M296.8,295.6c7.5,9.7,14.4,18.4,20.6,26.2c9.1-5.6,23.8-13.3,23.8-13.3c-8.4-10.8-39.6-53.4-39.6-53.4
	l57.8-74.9l9.7-5.5c-5.4-4.6-12.5-8.9-21.3-9.7c-21.7-1.9-43.9,18.2-46.4,36.8c-1.2,9.3,3.3,11.3,1.1,19.6
	c-4.5,17.1-25.9,16.3-30,30C270.2,259.2,274.6,266.8,296.8,295.6z"/>
<path class="st12" d="M315.7,209.3c3.1-0.8,4.2-4.7,4.3-6.9c0.2-4.2-2.9-8.8-5.8-8.7c-3.6,0-7.7,7.1-5.4,11.8
	C310,207.8,312.9,210,315.7,209.3z"/>
<path class="st7" d="M371.9,527.6c5.2,1.9,10.5,2.8,15.5,2.5c8.7-0.8,10.1-5.3,28.6-15.4c22.6-12.5,27-9.4,35.7-17.3
	c8.5-7.7,14-19.6,15.9-30.4L371.9,527.6z"/>
<polyline class="st9" points="329.8,293.3 341.2,308.4 327.3,316 "/>
<line class="st21" x1="348.9" y1="207.3" x2="312.9" y2="254.6"/>
<line class="st21" x1="364.3" y1="202.8" x2="331" y2="246.4"/>
<path class="st21" d="M426.5,202.5c-2.3,12.9-2,43-2.3,43.4"/>
<path class="st21" d="M267.1,226.2c2.8,2.7,4.7,6.8,3.8,10.6c-0.4,1.7-1.4,3.2-2.2,4.6c-6.3,11.9-5.1,27.3,3,37.9
	c3.6,4.8,8.5,8.6,11.8,13.6"/>
<path class="st21" d="M262.3,274.7c2.3,13.5,14,23,20.6,34.9"/>
<path class="st20" d="M458.5,140.2c11.5,24.8,24.3,64.9,24.3,64.9l40.7,1.4"/>
<path class="st21" d="M431.7,242.8c5.4,5.2,11.1,10.1,17.5,13.9c9.9,5.9,36.8,15,36.8,15c7.4-7,16.4-2.9,23.1-0.4"/>
<path class="st21" d="M485.2,264.5c-7.3,1.1-13.8-5.2-21.2-6.3"/>
<path class="st21" d="M390.7,120.9c-3.9,0.3-7.5-2.1-11-3.9c-6.2-3-13.8-4.7-17.7-10.5c-8.4,0.4-18.6,1.7-26.2,5.4
	c-2.5,1.2-5,2.8-6.9,4.9c-2.8,3-4.7,7.2-8.4,8.9"/>
<path class="st9" d="M480,421.9c1.2,7.3,2.3,15.6-1.8,21.8c-1.9,2.8-4.6,4.8-7.3,6.7c-16.1,11.9-32.5,23.3-49,34.5"/>
<path class="st9" d="M443.3,457.5c-11.9,7.2-23.2,15.4-33.9,24.3c-5,4.2-10,8.6-16.1,11.1"/>
<path class="st9" d="M411.3,471c-6,6.9-14.2,11.4-22.2,15.6c-4.2,2.2-8.3,4.4-12.4,6.6"/>
<path class="st9" d="M444.8,511.1c-3.9,6.9-13.1,20.9-17.8,27.2"/>
<path class="st9" d="M430.9,516.6c-1.2,4.8-3.1,9.3-5.8,13.5"/>
<path class="st23" d="M296.3,341.1c8.2-9.5,30-26.3,44.9-32.7"/>
<path class="st23" d="M302.7,349.1c12.8-15.9,27.3-27.7,43.7-34.9"/>
<g>
	<polyline class="st3" points="184.6,541.7 202.2,513.8 98.7,513.8 116.4,541.7 	"/>
	<polyline class="st3" points="116.4,733.5 109.5,747.6 109.5,762.8 191.5,762.8 191.5,747.6 184.6,733.5 	"/>
	<rect x="116.4" y="541.7" class="st3" width="68.2" height="191.9"/>
	<line class="st6" x1="191.5" y1="747.6" x2="109.5" y2="747.6"/>
	<line class="st6" x1="107.5" y1="527.1" x2="193.8" y2="527.1"/>
	<g>
		<line class="st6" x1="133.3" y1="560.6" x2="133.3" y2="714.5"/>
		<line class="st6" x1="150.5" y1="560.6" x2="150.5" y2="714.5"/>
		<line class="st6" x1="167.6" y1="560.6" x2="167.6" y2="714.5"/>
	</g>
</g>
<g>
	<polyline class="st3" points="624.5,546.5 642.1,518.6 538.6,518.6 556.2,546.5 	"/>
	<polyline class="st3" points="556.2,738.3 549.4,752.5 549.4,767.6 631.3,767.6 631.3,752.5 624.5,738.3 	"/>
	<rect x="556.2" y="546.5" class="st3" width="68.2" height="191.9"/>
	<line class="st6" x1="631.3" y1="752.5" x2="549.4" y2="752.5"/>
	<line class="st6" x1="547.4" y1="531.9" x2="633.7" y2="531.9"/>
	<g>
		<line class="st6" x1="573.2" y1="565.5" x2="573.2" y2="719.3"/>
		<line class="st6" x1="590.4" y1="565.5" x2="590.4" y2="719.3"/>
		<line class="st6" x1="607.5" y1="565.5" x2="607.5" y2="719.3"/>
	</g>
</g>
<image style="overflow:visible;opacity:0.6;" width="1692" height="1192" xlink:href="../../Screen Shot 2022-08-13 at 9.54.33 PM.png"  transform="matrix(0.8076 0 0 0.8076 1611.8291 -87.4795)">
</image>
<line class="st24" x1="-1128" y1="149.2" x2="-950" y2="130.8"/>
<path class="st25" d="M351.7,69c-13,9.8-33.7,22.6-61.6,29.8c-54.5,14-100-3-116.4-10.1"/>
<path class="st26" d="M272.6,105.9"/>
<path class="st25" d="M84.5,274.7c23.4,7.8,45.6,21.9,65.9,45.8"/>
<path class="st25" d="M150.4,475.2c-48.4,7.2-93.8,1.7-134.9-21.8"/>
<path class="st25" d="M116.1,619c-19.7,12.3-41.5,13.3-65.4,3"/>
<path class="st25" d="M643.4,129.3c34.7,24.1,72.1,41.4,116.6,41.5"/>
<path class="st25" d="M550.6,278c29.2,8.6,54.3,24.8,71.6,55.2"/>
<path class="st25" d="M624.4,622c27.9,9.1,56.1,2.7,84.6-27.6"/>
</svg>
